<?xml version="1.0" encoding="utf-8"?>
<!-- Generator: Adobe Illustrator 25.1.0, SVG Export Plug-In . SVG Version: 6.00 Build 0)  -->
<svg version="1.1" id="Layer_1" xmlns="http://www.w3.org/2000/svg" xmlns:xlink="http://www.w3.org/1999/xlink" x="0px" y="0px"
	 viewBox="0 0 480 480" style="enable-background:new 0 0 480 480;" xml:space="preserve">
<style type="text/css">
	.st0{fill:#FBBD92;stroke:#211628;stroke-width:12;stroke-miterlimit:10;}
	.st1{fill:#FBBD92;}
	.st2{fill:#211628;}
	.st3{fill:#F89959;}
	.st4{fill:#FDD5B9;}
	.st5{fill:#362813;}
	.st6{fill:#CE842A;}
	.st7{fill:none;stroke:#211628;stroke-width:7;stroke-miterlimit:10;}
	.st8{fill:none;stroke:#211628;stroke-width:4;stroke-miterlimit:10;}
	.st9{fill:none;stroke:#F8995A;stroke-width:4;stroke-miterlimit:10;}
	.st10{fill:#FBBD92;stroke:#211628;stroke-width:3;stroke-miterlimit:10;}
</style>
<g>
	<circle class="st0" cx="145.79" cy="272.28" r="56"/>
	<g>
		<path class="st1" d="M137.87,229.2c0-1.95,0-3.89,0-5.84c0.52-0.09,1.04-0.23,1.57-0.28c12.12-1.07,23.4,1.82,34.1,7.35
			c0.09,0.15,0.22,0.21,0.39,0.17c0.78,0.87,1.74,1.47,2.85,1.83c0,0,0,0,0,0c0.87,0.61,1.74,1.22,2.61,1.84
			c0.07,0.17,0.2,0.25,0.39,0.23c0.34,0.61,0.83,1.04,1.52,1.22l-0.02-0.01c0.45,0.38,0.9,0.75,1.36,1.13
			c0.03,0.17,0.14,0.26,0.32,0.25c0.5,0.45,1.01,0.9,1.51,1.34c0,0-0.05-0.05-0.05-0.05c0.23,0.23,0.46,0.46,0.69,0.69l-0.04-0.03
			c1.36,1.43,2.73,2.85,4.09,4.28l0.08,0.1c0.18,0.2,0.36,0.4,0.54,0.6c0,0,0.05,0.06,0.05,0.06c0.19,0.23,0.38,0.46,0.56,0.69
			c0,0-0.01-0.01-0.01-0.01c1.52,2.16,3.03,4.32,4.55,6.48l0,0c1,1.79,2,3.59,3,5.38l0.05-0.21l-0.06,0.2
			c0.38,3.46,2.2,3.9,5.32,3.03c9.16-2.55,18.48-2.8,27.88-1.31c8.94,1.41,17.17,4.77,25.2,8.78l0.09-0.26l-0.06,0.27
			c1.16,0.74,2.32,1.48,3.48,2.22l0.05,0.03c0.63,0.42,1.26,0.85,1.89,1.27l0.05,0.03c0.61,0.47,1.22,0.93,1.83,1.4l-0.03-0.02
			c0.44,0.69,1.02,1.22,1.81,1.5l-0.05-0.04c0.32,0.75,0.81,1.36,1.56,1.72l0.01,0.01c0.2,0.23,0.41,0.46,0.61,0.7l-0.01-0.02
			c0.38,1.07,1.13,1.87,1.93,2.63l-0.01-0.02c0.44,0.66,0.88,1.33,1.32,1.99c0.1,0.19,0.2,0.39,0.31,0.58
			c0.14,0.18,0.28,0.37,0.41,0.55l0.02,0.05c0.38,1.09,0.91,2.09,1.78,2.88c-0.03,0.17,0.03,0.3,0.18,0.38
			c0.16,0.81,0.53,1.49,1.19,2l-0.01-0.02c0.37,1.25,1.04,2.33,1.97,3.25l-0.01-0.03c0.25,0.39,0.5,0.78,0.74,1.17
			c0,0,0.04,0.08,0.04,0.08c0.17,0.25,0.34,0.49,0.52,0.74l-0.02-0.03c0.2,0.82,0.69,1.43,1.35,1.92l0-0.01
			c0.38,1.07,0.99,1.96,1.92,2.63l0-0.01c0.52,1.26,1.48,2.14,2.54,2.94c-0.03,0.16,0.04,0.25,0.2,0.27c0.19,0.2,0.38,0.4,0.57,0.6
			l0.03,0.03c0.2,0.21,0.41,0.41,0.61,0.62l0.02,0.02c0.34,0.32,0.67,0.64,1.01,0.96l0.14-0.19l-0.17,0.16
			c0.27,0.63,0.72,1.07,1.39,1.27l0.08-0.16l-0.12,0.14c0.28,0.64,0.75,1.04,1.44,1.18c0,0-0.02-0.01-0.02-0.01
			c4.32,3.59,9.17,5.8,14.9,5.71c0.54,0.02,1.08,0.09,1.62,0.06c1.2-0.05,2.78-0.19,3.22-1.1c0.61-1.25-1.02-1.94-1.81-2.7
			c-4.14-3.99-7.7-8.42-10.71-13.32c-3.18-5.18-5.42-10.57-4.48-16.81c2.5-16.55,6.99-32.61,12.64-48.32
			c2.59-7.2,4.18-14.47,4.06-22.08c-0.14-9.37-0.67-18.74-1.99-28.01c-1.18-8.3-2.7-16.57-5.67-24.47c1.34-1.78,3.06-3.28,4.03-5.34
			c0.79-1.23-0.13-1.26-0.91-1.21c-2.14,0.15-4.28,0.48-6.42,0.54c-8.86,0.27-17.62-0.74-26.34-2.18c-1.2-0.2-2.04-0.15-2.93,0.68
			c-1.26,1.17-2.63,2.22-3.91,3.37c-4.74,4.27-8.53,3.67-11.64-1.87c0.49-1.05,0.98-2.09,1.47-3.13l-0.02,0.02
			c0.67-0.51,1.15-1.14,1.25-2.01l0,0c0.86-0.96,1.57-2,1.97-3.23l-0.01,0.02c0.17-0.24,0.35-0.49,0.52-0.73l0.04-0.08
			c0.42-0.28,0.76-0.62,0.73-1.18c0,0-0.01,0.02-0.01,0.02c2.19-3.02,4.37-6.05,6.56-9.07c-2.82,1.56-5.32,3.35-7.31,5.76
			c-0.42,0.4-0.84,0.8-1.27,1.21c-0.25,0.24-0.49,0.49-0.74,0.73c-0.19,0.19-0.37,0.39-0.56,0.58c-0.22,0.24-0.45,0.49-0.67,0.73
			c0,0,0.02-0.03,0.02-0.03c-0.63,0.66-1.25,1.33-1.88,1.99c-1.85-0.22-3.06,1.06-4.23,2.06c-3.85,3.32-7.75,4.96-12.23,1.18
			c-0.07-0.06-0.21-0.02-0.32-0.02c0.41-1.06,0.82-2.12,1.23-3.18c0,0,0,0,0,0c1.3-1.6,2.33-3.36,3.19-5.23l0.01-0.02
			c0.89-0.92,1.61-1.94,2.01-3.17l0,0c0.62-0.53,1.04-1.18,1.21-1.99c0.16-0.08,0.22-0.2,0.18-0.37c2-3.19,4-6.38,6-9.58
			c-3.01,1.46-5.11,3.58-6.89,6.02c-0.18,0.22-0.37,0.43-0.55,0.65c-0.2,0.24-0.4,0.47-0.6,0.71l-0.01,0.02
			c-0.38,0.44-0.76,0.88-1.15,1.32l-0.25,0c-0.81,0.31-1.29,0.86-1.28,1.77l0.11,0.23c-0.19-0.07-0.38-0.07-0.57-0.01
			c-1.01-0.22-1.56,0.51-2.25,1.02c-2.15,1.62-4.24,3.34-6.51,4.77c-3,1.88-6.34,0.4-7.66-3.21c3.5-6.64,7.72-12.91,10.35-20.03
			c-3.93,2.81-6.04,7.18-9.55,10.29c-0.58,0.24-0.75,0.69-0.66,1.28l0.01,0c-1.41-0.18-2.04,1.06-2.99,1.69
			c-5.66,3.77-6.88,3.8-11.39,0.12c2.31-3.51,4.52-7.09,6.94-10.51c5.34-7.53,10.3-15.39,17.53-21.39c1.69-1.4,3.37-2.2,5.62-1.43
			c1.72,0.59,3.55,0.88,5.29,1.41c7.33,2.25,14.18,5.67,21.26,8.56c13.06,5.33,26.28,10.29,38.77,16.93
			c5.44,2.89,9.82,6.7,12.6,12.47c1.6,3.32,3.47,6.67,6.01,9.49c1.14,2.82,1.48,5.83,2.05,8.78c1.14,5.87,1.6,11.75,5.02,17.16
			c13.66,21.55,24.97,44.25,31.55,69.05c4.08,15.38,6.73,30.95,5.04,46.97c-0.34,3.18,0.57,6.17,1.46,9.18
			c0.79,2.64,2.66,4.94,2.45,7.88c-1.03-0.02-1.88,0.49-2.66,1.05c-19.32,13.75-39.98,25.09-61.67,34.64
			c-17.6,7.75-35.48,14.6-54.24,18.98c-11.4,2.66-22.8,3.58-33.93-1.04c-7.77-3.23-15.21-7.11-22.15-11.95
			c-7.99-5.57-15.49-11.69-22.05-18.89c-2.15-2.36-4.51-4.64-5.7-7.74c12.02-1.29,22.99,2.29,33.72,7.17
			c11.28,5.14,23.03,7.62,35.51,6.45c5.27-0.49,10.44-1.58,15.68-2.2c2.37-0.3,4.77-0.54,7.14-2.3c-1.92-0.37-3.39-0.66-4.86-0.93
			c-1.58-0.3-3.17-0.57-4.75-0.88c-19.28-3.76-37.29-11.21-55.29-18.79c-13.57-5.72-27.7-9.6-42.6-9.31
			c-4.58,0.09-9.15,1.18-13.72,1.81c0-19.02,0-38.04,0-57.06c18.84-1.07,33.86,7.46,47.62,19.42c0.17-0.7,0.29-0.93,0.25-1.11
			c-0.1-0.42-0.25-0.83-0.42-1.21c-3.6-7.9-9.01-14.4-15.83-19.68c-4.54-3.51-9.67-5.79-15.47-6.7
			C148.62,228.81,143.25,229.47,137.87,229.2z M343.39,297.9l0.01-0.01c-0.7,0.17-1.15,0.66-1.52,1.24
			c-0.19-0.01-0.31,0.06-0.38,0.24c-0.22,0.17-0.44,0.34-0.66,0.52l0.01-0.01c-0.73,0.22-1.31,0.64-1.69,1.32
			c-2.02,1.58-4.04,3.16-6.06,4.74c-1.62,1.35-3.24,2.7-4.86,4.05c2.52-0.33,4.53-1.28,6.32-2.65l-0.09-0.2l0.12,0.19
			c2.6-1.03,4.99-2.45,7.26-4.06l0.18,0.02l0.12-0.13c1.51-0.51,2.93-1.19,4.12-2.26l-0.14-0.26l0.16,0.24
			c0.56-0.32,1.12-0.65,1.69-0.97l-0.01,0c2.1-0.57,2.86-1.67,2.26-4c-1.25-4.89-2.15-9.87-3.27-14.79
			c-0.47-2.05-0.69-4.22-1.67-5.86c0,6.02-0.02,12.15,0.01,18.28c0.01,1.41,0.17,2.81-1.15,3.79l-0.04,0.03
			C343.87,297.54,343.63,297.72,343.39,297.9z M326.92,179.87c-0.52,1.52-0.24,2.34-0.07,3.19c1.43,7.37,2.88,14.74,4.23,22.12
			c2.01,10.99,3.78,22.03,6.58,32.86c3.09,11.96,7.56,23.16,17.28,31.48c0.76,0.65,1.33,2.04,2.61,1.41c1.17-0.57,0.74-1.9,0.8-2.94
			c0.39-6.98-1.62-13.67-2.94-20.38c-2.27-11.52-6.12-22.61-10.67-33.46c-3.26-7.75-7.05-15.25-10.9-22.7
			C331.85,187.63,330.14,183.53,326.92,179.87z M264.5,283.32c-0.88-1.14-1.19-1.66-1.61-2.08c-6.17-6.08-13.5-10.33-21.58-13.24
			c-14.84-5.34-29.13-4.81-42.41,4.61c-0.77,0.55-2.07,1.06-1.67,2.06c0.44,1.11,1.64,0.36,2.53,0.15
			c8.93-2.07,17.86-3.27,27.13-2.34c9.06,0.92,17.65,3.29,26.11,6.4C256.59,280.22,260.14,281.64,264.5,283.32z"/>
		<path class="st2" d="M369.47,299.94c0.2-2.94-1.67-5.24-2.45-7.88c-0.9-3.02-1.8-6-1.46-9.18c1.69-16.02-0.96-31.59-5.04-46.97
			c-6.58-24.8-17.89-47.5-31.55-69.05c-3.43-5.41-3.89-11.29-5.02-17.16c-0.57-2.95-0.91-5.96-2.05-8.78
			c-0.44-2.21-0.86-4.42-1.31-6.63c-1.79-8.76-6.55-14.91-14.55-19.41c-19.32-10.86-39.31-20.11-60.19-27.49
			c-9.34-3.3-13.07-2.21-19.44,5.57c-0.82,1-1.65,2.01-2.35,3.09c-5.2,8.06-10.37,16.14-15.55,24.21c-2.03,0.89-3.01,2.96-3.55,4.64
			c-0.73,2.28-0.95,5.21,2.44,6.29l-0.02-0.01c-0.03,1.02,0.14,1.86,1.46,1.73l0.06,0.06c-0.13,1.31,0.71,1.48,1.72,1.48l-0.04-0.02
			c0.28,0.22,0.55,0.45,0.83,0.67c0.18,0.02,0.32,0.1,0.41,0.25c0.2,0.17,0.41,0.34,0.61,0.5l0.02,0.01
			c1.02,2.79,3.99,2.93,5.97,4.42l-0.05-0.02c0.1,0.39,0.35,0.59,0.76,0.57l0.01-0.03c0.12,1.2,0.81,1.56,1.92,1.3l-0.04,0.21
			l0.06-0.21c0.13,1.19,0.82,1.55,1.92,1.31c0.16,1.17,0.84,1.55,1.95,1.29l-0.01,0.17l0.02-0.17c0.16,1.2,0.83,1.6,1.97,1.24
			l-0.16,0.06c0,0,0.17-0.03,0.16-0.02c0.74,2.5,2.56,1.96,4.34,1.53c0.24,0.95-0.63,2.61,1.5,2.35l-0.02,0.01
			c0.06,0.81,0.61,0.84,1.22,0.77l-0.02-0.01c0.08,0.41,0.32,0.61,0.75,0.55l0.02-0.02c0.2,1.13,1.03,1.26,1.96,1.26l0.04,0
			c0.35,1.45,1.5,1.45,2.64,1.46c0.14-0.03,0.25,0.02,0.33,0.14c2.1,2.8,4.08,3.38,6.48,1.9l0.05,0.04c0.01,0.5,0.08,0.97,0.57,1.25
			c6.58,5.48,17.82,5.24,23.8-0.39c1.15-1.08,0.26-1.37-0.32-1.92c-1.24-1.18-2.77-2.15-3.44-4.33c0.97,0.19,1.49,0.25,1.98,0.4
			c11.93,3.8,23.5,3.34,34.6-2.87c0.46-0.25,0.9-0.65,1.33,0.03c-0.97,2.06-2.69,3.56-4.03,5.34c-2.04,1.21-4,2.56-6.13,3.59
			c-1.6,0.78-1.94,1.52-1.27,3.24c6.69,17.36,7.74,35.5,7.35,53.83c-0.04,1.69-0.55,3.06-1.64,4.42c-3.18,3.96-5.88,8.24-8.14,12.81
			c-6.68,13.49-9.69,28.06-12.94,42.59c-0.58,2.61-0.24,4.77,0.86,7.11c2.62,5.58,5.67,10.9,9,16.07c-0.09,1.05,0.22,1.82,1.39,2
			l-0.06-0.02c0.06,0.43,0.31,0.67,0.73,0.73c0.37,0.44,0.74,0.87,1.11,1.31c0.02,1,0.3,1.78,1.5,1.8l-0.01,0.01
			c-0.03,0.45,0.18,0.66,0.64,0.63l-0.19,0.14l0.2-0.12c-0.03,0.45,0.18,0.66,0.64,0.63l-0.15,0.19l0.17-0.18
			c-0.02,0.46,0.18,0.66,0.65,0.59l-0.11,0.23l0.13-0.21c0.41,1.24,1.39,1.74,2.57,1.98l0.17,0.02c-2.15,1.92-3.56-0.24-5.1-1.06
			c-1.03-0.55-1.79-1.57-3.14-1.26c0,0,0.02,0.01,0.02,0.01c0.01-0.99-0.45-1.41-1.44-1.18l0.12-0.14c0,0-0.08,0.16-0.08,0.16
			c-0.04-0.88-0.46-1.36-1.39-1.27l0.17-0.16c0,0-0.14,0.19-0.14,0.19c0.08-0.76-0.42-0.9-1.01-0.96c0,0-0.02-0.02-0.02-0.02
			c-0.2-0.21-0.41-0.41-0.61-0.62c0,0-0.03-0.03-0.03-0.03c-0.19-0.2-0.38-0.4-0.57-0.6c-0.16-0.02-0.23-0.11-0.2-0.27
			c-0.47-1.31-0.91-2.63-2.53-2.94c0,0,0,0.01,0,0.01c0.11-1.43-0.25-2.51-1.92-2.63c0,0,0,0.01,0,0.01
			c0.03-0.98-0.01-1.91-1.35-1.92c0,0,0.02,0.03,0.02,0.03c-0.17-0.25-0.34-0.49-0.52-0.74l-0.04-0.08
			c-0.03-0.53-0.23-0.95-0.74-1.17c0,0,0.01,0.03,0.01,0.03c-0.05-1.45-0.06-2.93-1.97-3.25c0,0,0.01,0.02,0.01,0.02
			c0.05-0.93,0.12-1.88-1.19-2c-0.15-0.08-0.21-0.21-0.18-0.38c-0.02-1.32-0.22-2.52-1.78-2.88c0,0-0.02-0.05-0.02-0.05
			c-0.14-0.18-0.28-0.37-0.41-0.55c-0.1-0.19-0.2-0.39-0.31-0.58c0.05-0.99,0.08-1.96-1.32-1.99c0,0,0.01,0.02,0.01,0.02
			c-0.14-1.25-0.37-2.43-1.93-2.63c0,0,0.01,0.02,0.01,0.02c-0.2-0.23-0.41-0.46-0.61-0.7c0,0-0.01-0.01-0.01-0.01
			c-0.08-0.97-0.41-1.72-1.56-1.72c0,0,0.05,0.04,0.05,0.04c-0.03-1.19-0.78-1.52-1.81-1.5c0,0,0.03,0.02,0.03,0.02
			c0.03-1.3-0.87-1.39-1.83-1.4c0,0-0.05-0.03-0.05-0.03c-0.1-1.22-0.99-1.25-1.89-1.27c0,0-0.05-0.03-0.05-0.03
			c-0.75-1.39-1.41-2.92-3.48-2.22l0.06-0.27c0,0-0.09,0.26-0.09,0.26c0.04-0.84-0.67-1.01-1.2-1.33
			c-7.93-4.67-16.53-7.44-25.6-8.65c-6.99-0.93-13.94-1.25-21.02,0.31c-3.26,0.72-7.45,3.89-10.57-0.82l0.06-0.2
			c0,0-0.05,0.21-0.04,0.21c-0.25-2.21-0.79-4.26-3-5.38c0,0,0,0,0,0c-0.13-3.13-2.3-4.83-4.55-6.48c0,0,0.01,0.01,0.01,0.01
			c-0.19-0.23-0.38-0.46-0.56-0.69c0,0-0.05-0.06-0.05-0.06c-0.18-0.2-0.36-0.4-0.54-0.6c0,0-0.08-0.1-0.08-0.1
			c-0.73-2.03-1.53-3.99-4.09-4.28c0,0,0.04,0.03,0.04,0.03c-0.23-0.23-0.46-0.46-0.69-0.69c0,0,0.05,0.05,0.05,0.05
			c-0.16-0.84-0.66-1.29-1.51-1.34c-0.18,0.01-0.28-0.07-0.32-0.25c-0.08-0.82-0.56-1.17-1.36-1.13c0,0,0.02,0.01,0.02,0.01
			c-0.04-0.99-0.59-1.33-1.52-1.22c-0.18,0.02-0.31-0.06-0.39-0.23c-0.2-1.57-1.27-1.89-2.61-1.84c0,0,0,0,0,0
			c-0.31-1.61-1.52-1.82-2.85-1.83c-0.17,0.04-0.3-0.02-0.39-0.17c-2.31-3.11-5.98-3.9-9.28-5.06c-8.52-2.99-17.33-4.33-26.39-3.31
			c0-3.67,0-7.35,0-11.02c11.1-0.9,21.96,0,32.37,4.34c14.32,5.97,24.83,16.14,32.4,29.48c1.16,2.05,2.18,2.5,4.53,2.08
			c22.09-3.93,41.86,1.81,59.7,14.91c2.08,1.53,2.64,1.61,3.31-1.08c4.07-16.23,10.38-31.46,20.83-44.73
			c0.59-0.75,1.1-1.49,1.1-2.58c0-16.54-0.66-33.02-4.18-49.26c-0.35-1.59-0.02-4.27-1.73-4.48c-2.31-0.28-4.92-0.7-7.26,0.53
			c-3.14,1.65-6.28,3.32-9.46,4.89c-7.19,3.53-14.46,4.03-21.69,0.17c-1.71-0.91-2.77-0.58-4.11,0.77
			c-6.64,6.63-8.03,6.77-16.23,2.21c-5.1-2.84-9.79-6.27-14.47-9.75c-4.17-3.09-5.86-7.28-6.4-12.17c-0.18-1.61-0.39-3.24-0.31-4.84
			c0.09-2.01-0.67-3.31-2.2-4.64c-5.49-4.79-6.74-10.01-3.21-16.45c6.26-11.44,13.31-22.41,21.2-32.81
			c1.71-2.25,3.93-4.02,6.28-5.57c4.98-3.3,10.12-4.52,16.17-2.58c19.01,6.11,36.98,14.61,54.83,23.4c3.76,1.85,7.26,4.24,11.09,5.9
			c8.98,3.89,13.69,11.02,16.28,20.06c2.31,8.08,4.56,16.19,5.22,24.59c0.48,6.07,3.93,10.54,7.19,15.25
			c17.32,25.01,30.39,51.95,36.98,81.82c1.74,7.87,2.32,15.87,1.79,23.83c-0.57,8.51,1.11,16.4,4.05,24.27
			c2.92,7.79,2.73,7.84-3.89,12.47c-14.15,9.88-27.28,21.13-41.63,30.74c-21.61,14.47-43.95,27.59-68.67,36.14
			c-11.99,4.14-24.2,7.02-37.06,5.74c-8.02-0.8-15.6-3.08-22.98-6.22c-15.19-6.46-27.97-16.49-40.44-27.01
			c-3.79-3.2-7.43-6.58-11.42-9.56c-5.42-4.03-11.32-5.61-17.96-4.06c0-7.57,0-15.13,0-22.7c0.48-0.24,0.98-0.45,1.43-0.73
			c11.03-6.98,23.03-9.37,35.92-7.77c9.91,1.23,18.94,5.02,27.69,9.54c14.37,7.43,29.4,11.76,45.75,10.62
			c1.08-0.08,2.38-0.49,3.31,0.6c-5.24,0.63-10.41,1.71-15.68,2.2c-12.48,1.17-24.23-1.31-35.51-6.45
			c-10.72-4.88-21.69-8.46-33.71-7.17c-5.16,0.5-10.17,1.58-14.91,3.72c0.27,1.41,1.42,1.76,2.22,2.41
			c5.7,4.63,11.46,9.18,17.15,13.82c11.89,9.69,23.77,19.38,37.46,26.55c11.07,5.8,22.61,9.01,35.23,7.09
			c8.49-1.29,16.55-4,24.5-7.09c36.3-14.08,68.71-34.67,98.81-59.11C368.33,301.73,369.38,301.2,369.47,299.94z M212.3,142.7
			c-0.07,4.52,0.68,8.06,3.95,10.87c4.7,4.04,10.03,7.06,15.3,10.23c3.02,1.81,4.92,0.84,6.94-1.39c1.2-1.32,1.55-2.08-0.45-2.98
			c-5.23-2.37-9.95-5.62-14.64-8.9C219.82,148.02,216.25,145.49,212.3,142.7z"/>
		<path class="st3" d="M254.24,323.17c-1.58-0.3-3.17-0.57-4.75-0.88c-19.28-3.76-37.29-11.21-55.29-18.79
			c-13.57-5.72-27.7-9.6-42.6-9.31c-4.58,0.09-9.15,1.18-13.72,1.81v1.24c-1.16-0.25-2.38-0.1-3.37,0.61
			c-2.97,2.13-6.19,3.53-9.85,3.81c-0.92-0.45-2.01-0.64-3.25-0.41c-3.12,0.59-6.25,1.18-9.37,1.77c-4.53,0.85-4.48,6.95-1.19,9.14
			c5.68,3.78,10.58,7.61,17.76,6.38c2.61-0.45,5.18-1.21,7.36-2.75c0.72-0.51,1.34-1.06,1.91-1.68v0.06
			c0.48-0.24,0.98-0.45,1.43-0.73c11.03-6.98,23.03-9.37,35.92-7.77c9.91,1.23,18.94,5.02,27.69,9.54
			c14.37,7.43,29.4,11.76,45.75,10.62c1.08-0.08,2.38-0.49,3.31,0.6c2.37-0.3,4.77-0.54,7.14-2.3
			C257.18,323.73,255.71,323.45,254.24,323.17z"/>
		<path class="st4" d="M137.87,229.2c5.38,0.26,10.75-0.4,16.15,0.45c5.8,0.91,10.93,3.18,15.47,6.7
			c6.82,5.27,12.23,11.77,15.83,19.68c0.18,0.39,0.33,0.8,0.42,1.21c0.04,0.18-0.08,0.4-0.25,1.11
			c-13.76-11.96-28.78-20.49-47.62-19.42C137.87,235.69,137.87,232.45,137.87,229.2z"/>
		<path class="st5" d="M137.87,222.07c9.06-1.02,17.87,0.32,26.39,3.31c3.3,1.16,6.97,1.95,9.28,5.06
			c-10.7-5.53-21.98-8.42-34.1-7.35c-0.53,0.05-1.05,0.18-1.57,0.28C137.87,222.94,137.87,222.5,137.87,222.07z"/>
		<path class="st3" d="M369.47,299.94c-0.08,1.26-1.13,1.79-1.94,2.44c-30.1,24.44-62.51,45.03-98.81,59.11
			c-7.95,3.09-16.02,5.8-24.5,7.09c-12.62,1.92-24.17-1.29-35.23-7.09c-13.68-7.17-25.57-16.86-37.46-26.55
			c-5.69-4.64-11.45-9.19-17.15-13.82c-0.8-0.65-1.95-1-2.22-2.41c4.74-2.14,9.75-3.22,14.91-3.72c1.19,3.1,3.55,5.38,5.7,7.74
			c6.56,7.2,14.06,13.33,22.05,18.89c6.94,4.84,14.39,8.72,22.15,11.95c11.13,4.63,22.53,3.71,33.93,1.04
			c18.76-4.38,36.65-11.23,54.24-18.98c21.69-9.55,42.35-20.89,61.67-34.64C367.59,300.44,368.43,299.93,369.47,299.94z"/>
		<path class="st3" d="M287.77,297.1c-3.33-5.17-6.38-10.49-9-16.07c-1.1-2.34-1.45-4.5-0.86-7.11c3.25-14.53,6.26-29.1,12.94-42.59
			c2.26-4.57,4.97-8.85,8.14-12.81c1.08-1.35,1.6-2.72,1.64-4.42c0.39-18.33-0.66-36.47-7.35-53.83c-0.66-1.72-0.33-2.46,1.27-3.24
			c2.12-1.03,4.09-2.38,6.13-3.59c2.97,7.91,4.49,16.18,5.67,24.47c1.32,9.27,1.85,18.64,1.99,28.01
			c0.11,7.61-1.47,14.89-4.06,22.08c-5.65,15.71-10.14,31.77-12.64,48.32c-0.94,6.25,1.29,11.63,4.48,16.81
			c3.01,4.9,6.56,9.33,10.71,13.32c0.79,0.76,2.43,1.45,1.81,2.7c-0.45,0.91-2.02,1.05-3.22,1.1c-0.54,0.02-1.08-0.04-1.62-0.06
			c-2.22-1.13-4.44-2.26-6.66-3.4c0,0-0.17-0.02-0.17-0.02c-0.61-0.98-1.4-1.72-2.56-1.98l-0.13,0.21c0,0,0.11-0.23,0.11-0.22
			c-0.22-0.19-0.43-0.39-0.64-0.59l-0.17,0.18c0,0,0.15-0.19,0.15-0.19c-0.21-0.21-0.42-0.42-0.63-0.63l-0.2,0.12
			c0,0,0.19-0.14,0.19-0.14c-0.21-0.21-0.42-0.42-0.64-0.63c0,0,0.01-0.01,0.01-0.01c-0.18-0.87-0.79-1.37-1.5-1.8
			c-0.37-0.44-0.74-0.87-1.11-1.31c-0.24-0.24-0.49-0.49-0.73-0.73c0,0,0.06,0.02,0.06,0.02
			C288.95,298.26,288.53,297.56,287.77,297.1z"/>
		<path class="st4" d="M326.92,179.87c3.21,3.66,4.93,7.75,6.9,11.58c3.84,7.46,7.64,14.95,10.9,22.7
			c4.55,10.84,8.4,21.94,10.67,33.46c1.33,6.71,3.34,13.39,2.94,20.38c-0.06,1.04,0.38,2.37-0.8,2.94
			c-1.28,0.62-1.84-0.76-2.61-1.41c-9.72-8.32-14.19-19.51-17.28-31.48c-2.8-10.83-4.57-21.87-6.58-32.86
			c-1.35-7.39-2.79-14.75-4.23-22.12C326.68,182.21,326.41,181.39,326.92,179.87z"/>
		<path class="st4" d="M208.49,120.26c5.18-8.07,10.35-16.15,15.55-24.21c0.7-1.08,1.53-2.09,2.35-3.09
			c6.37-7.78,10.1-8.86,19.44-5.57c20.88,7.37,40.87,16.63,60.19,27.49c8,4.5,12.76,10.65,14.55,19.41
			c0.45,2.21,0.88,4.42,1.31,6.63c-2.54-2.82-4.4-6.18-6.01-9.49c-2.79-5.77-7.17-9.58-12.6-12.47
			c-12.49-6.63-25.71-11.59-38.77-16.93c-7.07-2.89-13.93-6.31-21.26-8.56c-1.74-0.53-3.57-0.82-5.29-1.41
			c-2.25-0.77-3.93,0.03-5.62,1.43c-7.23,6-12.19,13.85-17.53,21.39c-2.43,3.42-4.64,7-6.94,10.51c-0.47-0.2-0.94-0.4-1.42-0.59
			C206.63,123.06,208.03,121.87,208.49,120.26z"/>
		<path class="st3" d="M304.71,148.11c-0.43-0.69-0.88-0.29-1.33-0.03c-11.1,6.21-22.67,6.67-34.6,2.87
			c-0.49-0.16-1.01-0.21-1.98-0.4c0.67,2.18,2.2,3.15,3.44,4.33c0.58,0.56,1.47,0.84,0.32,1.92c-5.98,5.63-17.22,5.87-23.8,0.39
			c1.18-2.29,2.87-4.31,3.57-6.84l0.06-0.06c0.73-0.44,1.06-1.12,1.17-1.94l0-0.04c0.33-0.29,0.66-0.58,1-0.87
			c3.11,5.54,6.9,6.14,11.64,1.87c1.28-1.15,2.65-2.2,3.91-3.37c0.88-0.82,1.73-0.88,2.93-0.68c8.72,1.44,17.48,2.45,26.34,2.18
			c2.14-0.07,4.28-0.4,6.42-0.54C304.58,146.85,305.5,146.88,304.71,148.11z"/>
		<path class="st4" d="M264.5,283.32c-4.35-1.68-7.91-3.1-11.5-4.42c-8.46-3.12-17.04-5.49-26.11-6.4
			c-9.27-0.94-18.2,0.27-27.13,2.34c-0.89,0.21-2.09,0.96-2.53-0.15c-0.4-1,0.9-1.51,1.67-2.06c13.28-9.42,27.57-9.95,42.41-4.61
			c8.07,2.91,15.41,7.16,21.58,13.24C263.31,281.66,263.62,282.18,264.5,283.32z"/>
		<path class="st3" d="M239.67,154.01c-0.08-0.12-0.19-0.17-0.33-0.14c-0.7-0.81-1.56-1.33-2.64-1.46c0,0-0.04,0-0.04,0
			c-0.36-0.87-1.11-1.14-1.96-1.26c0,0-0.02,0.02-0.02,0.02c-0.25-0.18-0.5-0.37-0.75-0.56c0,0,0.02,0.01,0.02,0.01
			c-0.23-0.55-0.69-0.71-1.22-0.77c0,0,0.02-0.01,0.02,0c-1.54-1.83,0.72-3.07,0.73-4.66l0.07-0.08c0.75-0.45,1.05-1.16,1.15-1.99
			c0.39-0.28,0.78-0.57,1.17-0.85c0.11,0.01,0.25-0.03,0.32,0.02c4.49,3.78,8.38,2.14,12.23-1.18c1.17-1.01,2.38-2.29,4.23-2.06
			c-0.11,0.54-0.21,1.09-0.32,1.63l-0.05,0.13c-1,0.64-1.48,1.61-1.74,2.72l0.02-0.03c-0.54,0.23-0.7,0.7-0.76,1.23l0.16,0.2
			l-0.17-0.2c-0.58,0.32-0.89,0.82-0.97,1.48c-0.13,0.13-0.19,0.29-0.18,0.47c-1.41,1.95-2.32,4.11-2.75,6.48l0.03,0.05
			c-0.89,2.96-2.54,3.19-4.82,1.39C240.73,154.3,240.16,154.2,239.67,154.01z"/>
		<path class="st3" d="M222.1,132.03c1.32,3.6,4.66,5.09,7.66,3.21c2.27-1.43,4.36-3.15,6.51-4.77c0.68-0.52,1.24-1.24,2.25-1.02
			c-0.5,1.03-1,2.06-1.5,3.1l0.02-0.01c-0.77,0.68-1.24,1.52-1.44,2.52l0.08,0.16l-0.06-0.16c-1.39,1.43-2.23,3.16-2.7,5.08
			l-0.03,0.11c-1.13,1.07-1.61,2.5-1.88,3.93c-0.52,2.72-1.89,3.09-4.09,1.81l-0.17,0.03c0,0,0.16-0.06,0.16-0.05
			c-0.41-0.81-1.12-1.13-1.97-1.25l-0.02,0.17c0,0,0.01-0.17,0.01-0.17c-0.44-0.74-1.12-1.12-1.95-1.29
			c-0.46-0.71-1.08-1.17-1.92-1.31l-0.06,0.21c0,0,0.04-0.21,0.04-0.21c-0.44-0.72-1.09-1.14-1.92-1.3c0,0-0.01,0.03-0.01,0.03
			c-0.25-0.19-0.51-0.38-0.76-0.57c0,0,0.05,0.02,0.05,0.02C218.25,136.91,220.76,134.73,222.1,132.03z"/>
		<path class="st3" d="M206.45,124.79c0.47,0.2,0.94,0.4,1.42,0.59c4.51,3.68,5.73,3.65,11.39-0.12c0.95-0.63,1.58-1.87,2.99-1.69
			c-1.3,3.63-3.76,6.69-4.98,10.38c-1.3,3.93-1.4,3.9-4.84,1.9c0,0-0.02-0.01-0.02-0.01c-0.2-0.17-0.41-0.34-0.61-0.5
			c-0.1-0.15-0.24-0.23-0.41-0.25c-0.28-0.22-0.55-0.45-0.83-0.67c0,0,0.04,0.02,0.04,0.02c-0.39-0.7-0.94-1.23-1.72-1.48
			c0,0-0.06-0.06-0.06-0.06c-0.26-0.77-0.76-1.33-1.46-1.73c0,0,0.02,0.01,0.02,0.01C206.6,129.12,204.65,127.23,206.45,124.79z"/>
		<path class="st5" d="M212.43,135.86c3.44,2,3.54,2.03,4.84-1.9c1.22-3.69,3.68-6.75,4.98-10.38c0,0-0.01,0-0.01-0.01
			c0.62-0.22,0.59-0.78,0.66-1.28c3.51-3.1,5.62-7.48,9.55-10.29c-2.63,7.11-6.85,13.39-10.35,20.03c-1.34,2.71-3.85,4.88-3.7,8.25
			C216.41,138.79,213.44,138.65,212.43,135.86z"/>
		<path class="st5" d="M197.92,256.62c3.12,4.71,7.31,1.54,10.57,0.82c7.08-1.56,14.03-1.24,21.02-0.31
			c9.07,1.21,17.67,3.99,25.6,8.65c0.53,0.31,1.24,0.49,1.2,1.33c-8.02-4.01-16.26-7.36-25.2-8.78c-9.4-1.49-18.71-1.23-27.88,1.31
			C200.12,260.52,198.3,260.09,197.92,256.62z"/>
		<path class="st2" d="M342.16,303.15l-0.12,0.13c0,0-0.18-0.02-0.18-0.02c-2.97,0.38-5.3,1.88-7.26,4.06l-0.12-0.19
			c0,0,0.09,0.2,0.09,0.2c-0.65-0.3-1.43-0.45-1.47-1.4c2.02-1.58,4.04-3.16,6.06-4.74c0.93,0.03,1.67-0.18,1.69-1.32
			c0,0-0.01,0.01-0.01,0.01c0.22-0.17,0.44-0.34,0.66-0.52c0.07-0.17,0.2-0.25,0.38-0.24c0.94,0.11,1.5-0.22,1.52-1.24
			c0,0-0.01,0.01-0.01,0.01c0.24-0.18,0.48-0.36,0.73-0.54c0,0,0.04-0.03,0.04-0.03c1.96,0.1,1.88-1.24,1.87-2.6
			c-0.02-3.88-0.01-7.75-0.01-11.63c1.2,2.95,2.21,5.9,2.51,8.92c0.26,2.59,1.72,5.41-0.54,7.88c0,0,0.01,0,0.01,0
			c-0.71,0.07-1.65-0.26-1.69,0.97l-0.16-0.24c0,0,0.14,0.26,0.14,0.25C344.39,300.69,342.88,301.2,342.16,303.15z"/>
		<path class="st5" d="M347.99,299.9c2.27-2.46,0.81-5.29,0.54-7.88c-0.31-3.02-1.31-5.97-2.51-8.92c0,3.88-0.01,7.75,0.01,11.63
			c0.01,1.35,0.09,2.69-1.87,2.6c1.32-0.98,1.16-2.39,1.15-3.79c-0.03-6.13-0.01-12.27-0.01-18.28c0.98,1.64,1.2,3.81,1.67,5.86
			c1.13,4.92,2.02,9.9,3.27,14.79C350.85,298.23,350.09,299.32,347.99,299.9z"/>
		<path class="st2" d="M248.67,146.69c-0.01-0.18,0.05-0.34,0.18-0.47c0.9-0.11,1.26-0.58,0.97-1.48l0.17,0.2c0,0-0.16-0.2-0.16-0.2
			c0.8-0.07,0.84-0.62,0.76-1.23c0,0-0.02,0.03-0.02,0.03c1.32-0.43,1.78-1.42,1.74-2.72c0,0,0.05-0.13,0.05-0.12
			c1.7-0.62,2.25-1.94,2.2-3.63c0,0-0.02,0.03-0.02,0.03c0.22-0.24,0.45-0.49,0.67-0.73c0.19-0.19,0.37-0.39,0.56-0.58
			c0.25-0.24,0.49-0.49,0.74-0.73c0.42-0.4,0.84-0.8,1.27-1.21c0.52,0.31,3.05-1.25,1.19,1.27c-0.46,0.63-0.49,1.32-0.44,2.04
			c0,0,0.01-0.02,0.01-0.02c-0.51,0.23-0.7,0.65-0.73,1.18c0,0-0.04,0.08-0.04,0.08c-0.17,0.24-0.35,0.49-0.52,0.73
			c0,0,0.01-0.02,0.01-0.02c-1.89,0.33-1.9,1.8-1.97,3.23c0,0,0,0,0,0c-1.37,0.08-1.33,1.03-1.25,2.01c0,0,0.02-0.02,0.02-0.02
			c-2.04,0.58-2.39,2.21-2.47,4c0,0,0,0.04,0,0.04c-1.74-0.17-1.55,0.83-1.17,1.94c0,0-0.06,0.06-0.06,0.05
			c-2.45,1.07-2.28,4.09-4.14,5.6c0,0-0.05-0.04-0.05-0.04c-0.06-0.9-0.13-1.8-0.19-2.69c0,0-0.03-0.05-0.02-0.05
			C247.88,151.45,248.39,149.11,248.67,146.69z"/>
		<path class="st2" d="M242.26,125.41c0.18-0.22,0.37-0.43,0.55-0.65c0.85,0.11,2.16-0.27,1.4,1.45c-0.29,0.65-0.35,1.4-0.51,2.1
			c0.04,0.17-0.02,0.3-0.18,0.37c-1.31,0.11-1.27,1.04-1.21,1.99c0,0,0,0,0,0c-1.85,0.31-1.87,1.78-2.01,3.17
			c0,0-0.01,0.02-0.01,0.02c-2.07,1.13-3.08,2.9-3.19,5.23c0,0,0,0,0,0c-2,0.63-2.31,2.27-2.41,4.03c-1.18,0.2-1.64,0.82-1.15,1.99
			c0,0-0.07,0.08-0.08,0.08c-0.89-0.22-0.95,0.83-1.58,1.01c-0.71-2.16,1.84-3.79,0.98-5.97c0,0,0.03-0.11,0.03-0.11
			c1.86-1.19,2.42-3.06,2.7-5.08l0.06,0.16c0,0-0.08-0.16-0.07-0.16c1.49-0.26,1.51-1.37,1.44-2.52c0,0-0.02,0.01-0.02,0.01
			c1.88-0.23,1.85-1.74,2.06-3.09c0,0-0.11-0.23-0.11-0.23c1.03-0.15,1.29-0.86,1.28-1.77c0,0,0.25,0,0.25,0
			c0.77-0.1,1.14-0.55,1.15-1.32c0,0,0.01-0.02,0.01-0.02C241.86,125.88,242.06,125.64,242.26,125.41z"/>
		<path class="st5" d="M243.7,128.32c0.16-0.7,0.22-1.45,0.51-2.1c0.76-1.73-0.55-1.34-1.4-1.45c1.78-2.44,3.88-4.55,6.89-6.02
			C247.7,121.93,245.7,125.12,243.7,128.32z"/>
		<path class="st5" d="M297.13,306.81c2.22,1.13,4.44,2.26,6.66,3.4c-5.73,0.09-10.58-2.12-14.9-5.71c1.35-0.31,2.12,0.71,3.14,1.26
			C293.57,306.57,294.98,308.73,297.13,306.81z"/>
		<path class="st5" d="M258.51,137.15c-0.05-0.72-0.02-1.42,0.44-2.04c1.86-2.53-0.67-0.96-1.19-1.27c1.98-2.41,4.49-4.2,7.31-5.76
			C262.89,131.11,260.7,134.13,258.51,137.15z"/>
		<path class="st5" d="M333.1,305.94c0.03,0.94,0.82,1.1,1.47,1.4c-1.79,1.38-3.8,2.32-6.32,2.66
			C329.86,308.64,331.48,307.29,333.1,305.94z"/>
		<path class="st5" d="M190.39,244.77c2.25,1.65,4.42,3.35,4.55,6.48C193.43,249.09,191.91,246.93,190.39,244.77z"/>
		<path class="st5" d="M334.6,307.32c1.96-2.18,4.29-3.68,7.26-4.06C339.58,304.87,337.2,306.29,334.6,307.32z"/>
		<path class="st5" d="M185.08,239.05c2.56,0.28,3.36,2.24,4.09,4.28C187.8,241.9,186.44,240.47,185.08,239.05z"/>
		<path class="st5" d="M237.11,139.09c0.1-2.33,1.12-4.1,3.19-5.23C239.45,135.73,238.41,137.49,237.11,139.09z"/>
		<path class="st5" d="M194.94,251.25c2.21,1.12,2.75,3.17,3,5.38C196.94,254.83,195.94,253.04,194.94,251.25z"/>
		<path class="st5" d="M342.16,303.15c0.72-1.95,2.23-2.46,4.12-2.27C345.09,301.96,343.67,302.63,342.16,303.15z"/>
		<path class="st5" d="M251.57,148.31c0.08-1.79,0.43-3.42,2.47-4c-0.49,1.04-0.98,2.09-1.47,3.13
			C252.23,147.74,251.9,148.02,251.57,148.31z"/>
		<path class="st5" d="M234.71,143.12c0.1-1.76,0.41-3.4,2.41-4.03c-0.41,1.06-0.82,2.12-1.23,3.18
			C235.49,142.55,235.1,142.84,234.71,143.12z"/>
		<path class="st5" d="M254.55,137.06c0.05,1.68-0.5,3-2.2,3.63c0.1-0.55,0.21-1.09,0.31-1.63
			C253.3,138.39,253.92,137.72,254.55,137.06z"/>
		<path class="st5" d="M274.65,286.95c1.91,0.33,1.92,1.8,1.97,3.25C275.7,289.28,275.03,288.2,274.65,286.95z"/>
		<path class="st5" d="M256.34,267.12c2.08-0.7,2.74,0.83,3.48,2.22C258.66,268.6,257.5,267.86,256.34,267.12z"/>
		<path class="st5" d="M279.24,294.05c1.68,0.12,2.03,1.2,1.92,2.63C280.23,296.01,279.62,295.11,279.24,294.05z"/>
		<path class="st5" d="M239.09,129.45c-0.21,1.35-0.18,2.85-2.06,3.09c0.5-1.03,1-2.06,1.5-3.1
			C238.71,129.38,238.9,129.39,239.09,129.45z"/>
		<path class="st5" d="M240.31,133.85c0.14-1.39,0.15-2.87,2.01-3.17C241.93,131.9,241.2,132.93,240.31,133.85z"/>
		<path class="st5" d="M255.27,142.33c0.08-1.43,0.08-2.91,1.97-3.23C256.84,140.33,256.12,141.37,255.27,142.33z"/>
		<path class="st5" d="M281.16,296.67c1.62,0.31,2.07,1.63,2.53,2.94C282.64,298.81,281.68,297.92,281.16,296.67z"/>
		<path class="st5" d="M173.93,230.61c1.33,0.01,2.54,0.22,2.85,1.83C175.68,232.07,174.72,231.48,173.93,230.61z"/>
		<path class="st5" d="M267.54,275.91c1.57,0.2,1.8,1.38,1.93,2.63C268.66,277.79,267.92,276.98,267.54,275.91z"/>
		<path class="st5" d="M176.79,232.44c1.34-0.05,2.41,0.27,2.61,1.84C178.53,233.66,177.66,233.05,176.79,232.44z"/>
		<path class="st5" d="M271.52,281.7c1.56,0.37,1.76,1.57,1.78,2.88C272.43,283.79,271.9,282.79,271.52,281.7z"/>
		<path class="st5" d="M273.48,284.96c1.31,0.13,1.24,1.07,1.19,2C274.01,286.46,273.64,285.77,273.48,284.96z"/>
		<path class="st5" d="M269.46,278.52c1.39,0.03,1.37,1,1.32,1.99C270.34,279.85,269.9,279.19,269.46,278.52z"/>
		<path class="st5" d="M242.32,130.68c-0.06-0.94-0.1-1.87,1.21-1.99C243.36,129.5,242.94,130.15,242.32,130.68z"/>
		<path class="st5" d="M261.81,270.66c0.96,0.01,1.85,0.11,1.83,1.4C263.03,271.6,262.42,271.13,261.81,270.66z"/>
		<path class="st5" d="M277.89,292.14c1.34,0.01,1.38,0.94,1.35,1.92C278.58,293.56,278.09,292.95,277.89,292.14z"/>
		<path class="st5" d="M254.02,144.33c-0.08-0.98-0.11-1.93,1.25-2.01C255.16,143.19,254.68,143.82,254.02,144.33z"/>
		<path class="st5" d="M259.87,269.37c0.9,0.02,1.8,0.05,1.89,1.27C261.14,270.21,260.5,269.79,259.87,269.37z"/>
		<path class="st5" d="M179.78,234.5c0.93-0.12,1.48,0.23,1.52,1.22C180.61,235.54,180.13,235.11,179.78,234.5z"/>
		<path class="st5" d="M265.38,273.51c1.15,0,1.48,0.75,1.56,1.72C266.18,274.87,265.7,274.26,265.38,273.51z"/>
		<path class="st5" d="M263.61,272.05c1.03-0.02,1.78,0.32,1.81,1.5C264.64,273.27,264.06,272.74,263.61,272.05z"/>
		<path class="st5" d="M340.85,299.88c-0.02,1.14-0.76,1.35-1.69,1.32C339.54,300.52,340.12,300.1,340.85,299.88z"/>
		<path class="st5" d="M287.47,303.33c0.99-0.23,1.45,0.18,1.44,1.18C288.22,304.38,287.75,303.97,287.47,303.33z"/>
		<path class="st6" d="M240.25,127.45c0.02,0.91-0.25,1.61-1.28,1.77C238.97,128.32,239.44,127.76,240.25,127.45z"/>
		<path class="st5" d="M182.96,237.09c0.85,0.06,1.35,0.51,1.51,1.34C183.97,237.98,183.46,237.53,182.96,237.09z"/>
		<path class="st5" d="M346.31,300.87c0.03-1.24,0.97-0.91,1.69-0.97C347.44,300.22,346.88,300.54,346.31,300.87z"/>
		<path class="st5" d="M286.11,302.09c0.93-0.09,1.35,0.38,1.39,1.27C286.83,303.16,286.38,302.72,286.11,302.09z"/>
		<path class="st5" d="M343.4,297.89c-0.01,1.02-0.58,1.35-1.52,1.24C342.25,298.55,342.7,298.06,343.4,297.89z"/>
		<path class="st5" d="M181.29,235.71c0.8-0.04,1.28,0.31,1.36,1.13C182.19,236.46,181.74,236.09,181.29,235.71z"/>
		<path class="st5" d="M241.65,126.13c-0.01,0.77-0.38,1.21-1.15,1.32C240.89,127.01,241.27,126.57,241.65,126.13z"/>
		<path class="st5" d="M257.79,138.31c0.03-0.53,0.22-0.95,0.73-1.18C258.55,137.69,258.21,138.03,257.79,138.31z"/>
		<path class="st5" d="M285.13,301.15c0.59,0.06,1.09,0.2,1.01,0.96C285.8,301.79,285.46,301.47,285.13,301.15z"/>
		<path class="st5" d="M276.61,290.17c0.52,0.22,0.72,0.64,0.74,1.17C277.1,290.95,276.86,290.56,276.61,290.17z"/>
		<path class="st6" d="M222.9,122.29c-0.06,0.51-0.04,1.06-0.66,1.28C222.15,122.98,222.32,122.53,222.9,122.29z"/>
		<path class="st5" d="M266.94,275.23c0.2,0.23,0.41,0.46,0.61,0.7C267.35,275.7,267.15,275.47,266.94,275.23z"/>
		<path class="st5" d="M257.23,139.12c0.17-0.24,0.35-0.49,0.52-0.73C257.57,138.63,257.4,138.88,257.23,139.12z"/>
		<path class="st5" d="M341.5,299.37c-0.22,0.17-0.44,0.34-0.66,0.52C341.06,299.71,341.28,299.54,341.5,299.37z"/>
		<path class="st5" d="M283.89,299.88c0.19,0.2,0.38,0.4,0.57,0.6C284.27,300.28,284.08,300.08,283.89,299.88z"/>
		<path class="st5" d="M271.08,281.09c0.14,0.18,0.28,0.37,0.41,0.55C271.36,281.46,271.22,281.28,271.08,281.09z"/>
		<path class="st5" d="M255.2,136.36c-0.22,0.24-0.45,0.49-0.67,0.73C254.75,136.85,254.98,136.6,255.2,136.36z"/>
		<path class="st5" d="M184.42,238.38c0.23,0.23,0.46,0.46,0.69,0.69C184.88,238.84,184.65,238.61,184.42,238.38z"/>
		<path class="st5" d="M284.49,300.51c0.2,0.21,0.41,0.41,0.61,0.62C284.9,300.92,284.69,300.72,284.49,300.51z"/>
		<path class="st5" d="M256.5,135.05c-0.25,0.24-0.49,0.49-0.74,0.73C256.01,135.54,256.25,135.29,256.5,135.05z"/>
		<path class="st5" d="M189.83,244.09c0.19,0.23,0.38,0.46,0.56,0.69C190.21,244.55,190.02,244.32,189.83,244.09z"/>
		<path class="st5" d="M189.25,243.43c0.18,0.2,0.36,0.4,0.54,0.6C189.61,243.82,189.43,243.63,189.25,243.43z"/>
		<path class="st5" d="M277.4,291.42c0.17,0.25,0.34,0.49,0.52,0.74C277.74,291.92,277.57,291.67,277.4,291.42z"/>
		<path class="st5" d="M242.26,125.41c-0.2,0.24-0.4,0.47-0.6,0.71C241.86,125.88,242.06,125.64,242.26,125.41z"/>
		<path class="st5" d="M344.12,297.35c-0.24,0.18-0.48,0.36-0.73,0.54C343.63,297.72,343.87,297.54,344.12,297.35z"/>
		<path class="st3" d="M212.3,142.7c3.95,2.79,7.52,5.32,11.11,7.83c4.69,3.28,9.41,6.53,14.64,8.9c2,0.91,1.65,1.66,0.45,2.98
			c-2.02,2.23-3.92,3.2-6.94,1.39c-5.27-3.17-10.6-6.19-15.3-10.23C212.98,150.76,212.22,147.23,212.3,142.7z"/>
		<path class="st5" d="M206.45,124.79c-1.8,2.44,0.14,4.33,0.93,6.39c-3.38-1.08-3.17-4.01-2.44-6.29c0.54-1.68,1.52-3.75,3.55-4.64
			C208.03,121.87,206.63,123.06,206.45,124.79z"/>
		<path class="st5" d="M232.89,140.22c0.86,2.19-1.69,3.81-0.98,5.97l0,0.01c-0.55,0.26-0.65,0.75-0.65,1.29l0,0
			c-1.78,0.43-3.6,0.97-4.34-1.53c2.2,1.27,3.57,0.9,4.09-1.81C231.28,142.73,231.76,141.29,232.89,140.22z"/>
		<path class="st5" d="M245.95,153.22c0.06,0.9,0.13,1.8,0.19,2.69c-2.39,1.48-4.38,0.89-6.48-1.9c0.49,0.2,1.07,0.29,1.46,0.6
			C243.42,156.41,245.07,156.18,245.95,153.22z"/>
		<path class="st5" d="M246.2,155.95c1.86-1.51,1.69-4.53,4.14-5.6c-0.7,2.54-2.39,4.56-3.57,6.84
			C246.28,156.92,246.2,156.45,246.2,155.95z"/>
		<path class="st5" d="M231.91,146.2c0.63-0.18,0.69-1.23,1.58-1.01c-0.01,1.59-2.26,2.83-0.73,4.66c-2.13,0.26-1.26-1.4-1.5-2.35
			c0,0,0,0,0,0C231.8,147.23,231.91,146.75,231.91,146.2L231.91,146.2z"/>
		<path class="st5" d="M294.4,304.82c1.17,0.26,1.95,1,2.56,1.98C295.79,306.55,294.81,306.05,294.4,304.82z"/>
		<path class="st5" d="M236.7,152.4c1.07,0.14,1.93,0.66,2.64,1.46C238.2,153.85,237.05,153.85,236.7,152.4z"/>
		<path class="st5" d="M224.94,144.69c0.85,0.11,1.57,0.43,1.97,1.25C225.77,146.29,225.1,145.89,224.94,144.69z"/>
		<path class="st5" d="M208.88,132.97c0.78,0.25,1.33,0.77,1.72,1.48C209.59,134.45,208.75,134.28,208.88,132.97z"/>
		<path class="st5" d="M234.7,151.14c0.85,0.12,1.6,0.39,1.96,1.26C235.74,152.4,234.9,152.27,234.7,151.14z"/>
		<path class="st5" d="M219.12,140.79c0.83,0.15,1.47,0.58,1.92,1.3C219.93,142.35,219.24,141.99,219.12,140.79z"/>
		<path class="st5" d="M222.98,143.4c0.82,0.17,1.5,0.55,1.94,1.29C223.82,144.96,223.14,144.57,222.98,143.4z"/>
		<path class="st5" d="M287.77,297.1c0.77,0.46,1.18,1.16,1.39,2C287.99,298.92,287.68,298.15,287.77,297.1z"/>
		<path class="st5" d="M290.94,301.12c0.7,0.43,1.32,0.93,1.5,1.8C291.25,302.9,290.96,302.12,290.94,301.12z"/>
		<path class="st3" d="M207.37,131.18c0.7,0.4,1.2,0.97,1.46,1.73C207.5,133.04,207.33,132.2,207.37,131.18z"/>
		<path class="st5" d="M221.05,142.09c0.84,0.15,1.47,0.6,1.92,1.31C221.87,143.65,221.18,143.28,221.05,142.09z"/>
		<path class="st5" d="M232.74,149.85c0.53,0.06,1,0.22,1.22,0.77C233.35,150.69,232.8,150.67,232.74,149.85z"/>
		<path class="st5" d="M218.35,140.26c0.25,0.19,0.51,0.38,0.76,0.57C218.69,140.85,218.45,140.65,218.35,140.26z"/>
		<path class="st5" d="M289.1,299.08c0.24,0.24,0.49,0.49,0.73,0.73C289.41,299.75,289.16,299.51,289.1,299.08z"/>
		<path class="st5" d="M210.56,134.43c0.28,0.22,0.55,0.44,0.83,0.67C211.11,134.87,210.83,134.65,210.56,134.43z"/>
		<path class="st5" d="M292.43,302.93c0.21,0.21,0.42,0.42,0.64,0.63C292.61,303.59,292.4,303.38,292.43,302.93z"/>
		<path class="st5" d="M211.8,135.34c0.2,0.17,0.41,0.34,0.61,0.5C212.2,135.68,212,135.51,211.8,135.34z"/>
		<path class="st5" d="M293.08,303.58c0.21,0.21,0.42,0.42,0.63,0.63C293.26,304.24,293.05,304.03,293.08,303.58z"/>
		<path class="st5" d="M293.73,304.22c0.21,0.2,0.43,0.39,0.64,0.59C293.91,304.88,293.71,304.68,293.73,304.22z"/>
		<path class="st5" d="M233.94,150.61c0.25,0.19,0.5,0.37,0.75,0.56C234.26,151.22,234.02,151.02,233.94,150.61z"/>
		<path class="st5" d="M250.39,150.29c-0.37-1.11-0.57-2.11,1.17-1.94C251.46,149.17,251.13,149.85,250.39,150.29z"/>
		<path class="st5" d="M248.67,146.69c-0.29,2.43-0.79,4.76-2.75,6.48C246.35,150.8,247.27,148.64,248.67,146.69z"/>
		<path class="st5" d="M252.31,140.81c0.04,1.3-0.41,2.29-1.74,2.72C250.83,142.41,251.3,141.44,252.31,140.81z"/>
		<path class="st5" d="M233.56,145.11c-0.49-1.17-0.03-1.79,1.15-1.99C234.61,143.95,234.31,144.66,233.56,145.11z"/>
		<path class="st5" d="M249.82,144.74c0.3,0.9-0.06,1.37-0.97,1.48C248.93,145.56,249.24,145.06,249.82,144.74z"/>
		<path class="st5" d="M250.59,143.5c0.08,0.61,0.04,1.16-0.76,1.23C249.89,144.2,250.05,143.73,250.59,143.5z"/>
		<path class="st5" d="M235.62,135.04c-0.28,2.02-0.85,3.89-2.7,5.08C233.39,138.19,234.23,136.47,235.62,135.04z"/>
		<path class="st5" d="M237.04,132.52c0.07,1.15,0.05,2.26-1.44,2.52C235.8,134.04,236.27,133.2,237.04,132.52z"/>
		<path class="st2" d="M231.9,146.21c0.01,0.54-0.1,1.03-0.65,1.29C231.25,146.96,231.35,146.47,231.9,146.21z"/>
	</g>
	<line class="st7" x1="140.79" y1="317.28" x2="120.79" y2="322.28"/>
	<line class="st7" x1="142.29" y1="332.78" x2="132.29" y2="334.78"/>
	<line class="st7" x1="133.29" y1="334.78" x2="109.29" y2="317.78"/>
	<line class="st8" x1="131.04" y1="337.08" x2="132.54" y2="334.48"/>
	<line class="st9" x1="141.79" y1="297.28" x2="106.79" y2="305.28"/>
	<line class="st10" x1="101.79" y1="299.28" x2="112.79" y2="313.28"/>
	<path class="st2" d="M137.75,319.28c-10.87-0.73-20.91-5.2-28.83-12.66c-4.68-4.41-11.76,2.64-7.07,7.07
		c0.39,0.36,0.78,0.71,1.18,1.07c0.14,0.37,0.33,0.75,0.59,1.13c5.01,7.32,11.82,10.94,20.12,13.56c2.19,0.69,3.93-0.09,4.99-1.47
		c2.94,0.65,5.94,1.1,9.01,1.3C144.17,329.72,144.15,319.71,137.75,319.28z"/>
</g>
<path d="M265.48,29.56c3.43,0.34,6.55,0.56,9.63,1.04c0.68,0.1,1.62,1.04,1.73,1.72c0.19,1.17,0,2.48-0.32,3.66
	c-1.51,5.61,1.62,9.62,7.54,9.24c1.06-0.07,2.3-1.27,2.98-2.27c0.67-0.97,0.72-2.37,1.08-3.56c0.27-0.9,0.54-1.81,0.94-2.65
	c1.24-2.62,3.94-2.46,10.02,0.41c2.49,1.18,1.36,2.71,0.74,4.41c-0.62,1.73-1.16,3.58-1.18,5.39c-0.01,1,0.87,2.4,1.77,2.95
	c6.45,3.97,7.94,3.44,10.97-3.52c1.75-4.02,1.75-4.02,5.69-2.28c6.45,2.84,6.58,2.89,3.88,9.2c-1.23,2.86-0.36,4.62,1.99,6.01
	c1.06,0.63,2.29,0.99,3.43,1.49c2.6,1.14,4.24,0.22,5.64-2.17c3.83-6.58,3.9-6.54,10.16-2.36c4.05,2.71,3.94,2.72,1.26,7.04
	c-1.01,1.63-2.38,4.61-1.71,5.42c1.84,2.22,4.57,3.83,7.2,5.18c0.57,0.29,2.33-1.36,3.32-2.35c1.67-1.67,2.93-4.59,4.78-4.96
	c1.52-0.31,3.65,2.28,5.49,3.61c3.79,2.75,3.79,2.76,0.71,6.35c-0.48,0.56-0.99,1.08-1.43,1.67c-2.33,3.13-2.23,4.19,0.61,6.86
	c5.4,5.09,5.96,5.06,10.78-0.59c2.77-3.25,2.76-3.24,5.87-0.22c1.78,1.73,3.6,3.43,5.58,5.31c-1.99,2.12-3.87,4.04-5.64,6.06
	c-1.81,2.06-1.74,3.85,0.43,5.91c7.23,6.85,5.6,5.05,11.89,0.16c0.73-0.57,1.43-1.17,2.26-1.85c2.07,2.55,4.14,4.87,5.88,7.4
	c0.41,0.6,0.07,2.19-0.48,2.89c-1.08,1.38-2.59,2.42-3.86,3.67c-2.24,2.21-2.41,4.45-0.6,6.98c3.8,5.3,5.42,5.49,10.74,1.26
	c3.23-2.57,3.21-2.56,5.14,1.19c0.52,1.01,1.14,2,1.83,2.91c2.1,2.77,1.99,3.85-0.79,5.82c-0.85,0.6-1.83,1.03-2.65,1.67
	c-2.68,2.11-3.1,3.95-1.64,6.75c3.23,6.2,4.6,6.66,10.45,2.79c2.39-1.58,3.43-1.26,4.62,1.36c3.07,6.8,3.13,6.65-3.05,10.68
	c-1.36,0.89-3.2,3.09-2.89,4.11c0.82,2.75,2.21,5.76,4.33,7.52c1.02,0.85,4.21-0.83,6.38-1.49c1.05-0.32,2.01-0.94,3.33-1.58
	c1.24,3.55,2.43,6.75,3.43,10c0.16,0.54-0.34,1.63-0.86,1.95c-1.13,0.7-2.45,1.13-3.73,1.58c-4.81,1.69-5.46,2.82-4.43,7.84
	c0.97,4.73,3.16,5.87,7.93,4.28c1.52-0.51,3.11-0.77,4.86-1.18c0.2,1.11,0.33,1.7,0.41,2.3c0.38,2.77,1.83,6.11,0.78,8.14
	c-0.89,1.71-4.8,1.69-7.18,2.85c-1.08,0.53-1.74,2.01-2.45,3.15c-0.23,0.37-0.04,1.02-0.03,1.55c0.2,7.49,1.13,8.36,8.59,7.08
	c2.58-0.44,3.57,0.61,3.81,2.8c0.22,2.07,0.43,4.22,0.12,6.25c-0.15,0.98-1.41,1.89-2.34,2.62c-0.39,0.31-1.22,0.06-1.84,0.07
	c-6.65,0.11-8.22,1.94-7.3,8.42c0.39,2.71,1.92,3.98,4.65,4.07c7.11,0.26,7.11,0.29,6.95,7.32c-0.1,4.53-0.86,5.24-5.24,4.44
	c-2.72-0.5-5.66-0.15-6.54,2.31c-0.9,2.52-0.66,5.72,0.03,8.38c0.27,1.03,3.1,1.76,4.84,1.96c4.44,0.52,5.01,1.1,4.08,5.58
	c-0.11,0.51-0.21,1.02-0.32,1.53c-1.16,5.29-1.51,5.54-6.65,4.2c-2.12-0.55-4.53-1.13-5.7,0.98c-1.3,2.35-2.21,5.15-2.32,7.8
	c-0.04,0.99,2.51,2.59,4.12,3.06c5.48,1.59,6.03,2.39,4.07,7.62c-0.29,0.78-0.55,1.57-0.82,2.36c-1.09,3.13-1.92,3.46-5.15,2.33
	c-1.47-0.52-3.08-1.25-4.51-1.05c-1.42,0.19-3.09,1.14-3.93,2.29c-0.99,1.36-1.3,3.26-1.75,4.97c-0.63,2.4,1.09,3.39,2.84,4.2
	c6.22,2.88,6.23,2.86,3.25,8.92c-2.58,5.24-2.58,5.24-7.78,2.65c-3.1-1.54-4.94-1.05-6.92,1.88c-0.52,0.78-1.01,1.59-1.47,2.4
	c-1.7,2.97-1.38,4.26,1.51,6.26c5.65,3.91,5.65,3.91,1.86,9.71c-2.9,4.44-3.09,4.47-7.4,1.39c-4.32-3.09-4.69-3.03-7.94,1.32
	c-3.83,5.12-3.76,5.55,1.5,9.52c3.44,2.6,3.44,2.6,0.91,6.16c-0.24,0.34-0.51,0.66-0.75,1c-4.12,5.89-4.12,5.89-9.56,1.5
	c-3.11-2.51-4.38-2.36-6.99,0.83c-0.2,0.24-0.4,0.48-0.6,0.72c-3.59,4.23-3.56,5,0.38,9.09c0.51,0.53,0.99,1.09,1.52,1.58
	c1.49,1.38,1.48,2.46-0.28,3.75c-1.67,1.23-3.18,2.74-4.53,4.33c-1.73,2.04-3.05,1.58-4.51-0.24c-0.97-1.22-2.02-2.41-3.16-3.47
	c-1.9-1.76-3.89-1.85-5.82,0.03c-0.45,0.44-0.92,0.86-1.36,1.3c-4.11,4.12-4.14,5.16-0.37,9.65c0.79,0.95,1.5,1.97,2.45,3.23
	c-2.67,2.1-5.09,4.21-7.75,5.94c-0.66,0.43-2.43-0.02-3.13-0.67c-1.44-1.32-2.47-3.09-3.74-4.6c-1.51-1.79-3.24-2.17-5.15-0.54
	c-0.32,0.27-0.65,0.53-0.99,0.77c-5.87,4.06-6.11,4.94-1.95,10.56c1.61,2.18,1.27,3.52-0.92,4.73c-1.28,0.71-2.58,1.38-3.85,2.1
	c-3.92,2.21-4.52,2.01-6.63-2.11c-0.62-1.2-1.3-2.39-2.14-3.43c-1.21-1.49-2.71-1.88-4.38-0.59c-0.41,0.32-0.86,0.59-1.32,0.84
	c-5.9,3.23-6.25,4.19-2.89,10.22c1.32,2.37,0.77,3.64-1.58,4.58c-1.93,0.77-3.79,1.71-5.72,2.47c-1.64,0.65-2.84,0.11-3.47-1.6
	c-0.25-0.68-0.65-1.31-0.88-2c-2.22-6.61-5.34-6.27-11.42-2.72c-2.14,1.25-2.18,3.47-1.32,5.85c2.07,5.79,1.98,5.82-3.96,7.55
	c-0.8,0.23-1.58,0.55-2.38,0.77c-3.33,0.89-4.05,0.39-4.41-2.99c-0.65-6.12-3.76-8.15-9.33-6.04c-2.74,1.03-4.37,2.75-3.68,5.96
	c0.29,1.32,0.73,2.75,0.48,4.01c-0.21,1.08-1.11,2.56-2.04,2.87c-2.04,0.69-4.3,0.77-6.47,1.07c-1.74,0.24-2.85-0.45-3.02-2.27
	c-0.16-1.66-0.18-3.33-0.34-4.99c-0.26-2.73-1.72-4.17-4.55-4.01c-0.1,0.01-0.21,0.03-0.31,0.03c-7.33,0.46-7.85,1.05-7.54,8.47
	c0.15,3.64-0.41,4.31-3.97,4.29c-8.58-0.06-7.38,1.39-7.45-7.4c-0.03-3.88-0.8-4.68-4.74-4.81c-6.86-0.22-7.59,0.36-7.77,7.17
	c-0.08,2.98-0.97,4.58-4.22,3.88c-0.1-0.02-0.21-0.01-0.31-0.01c-7.58-0.28-7.58-0.28-6.5-7.87c0.48-3.39-0.57-4.9-3.85-5.52
	c-6.13-1.16-7.38-0.33-8.56,5.65c-0.98,4.95-1.2,5.09-6.19,3.81c-7.16-1.83-7.14-1.82-4.69-9.16c0.28-0.85,0.59-2,0.25-2.7
	c-1.51-3.1-4.76-3.31-7.55-3.5c-1.26-0.09-2.76,1.63-3.95,2.74c-0.54,0.5-0.61,1.52-0.89,2.3c-1.63,4.65-2.66,5.12-7.36,3.4
	c-5.47-2.01-5.47-2.01-3.46-7.28c2-5.24-0.58-9.43-6.22-9.28c-1.55,0.04-3.6,2.01-4.45,3.62c-3.16,5.91-3.61,6.16-9.43,2.67
	c-1.14-0.68-2.33-1.28-3.68-2.02c1.29-2.23,2.5-4.27,3.67-6.33c1.18-2.06,0.81-3.78-1.18-5.14c-0.69-0.47-1.31-1.04-2.01-1.5
	c-3.81-2.49-4.68-2.33-7.45,1.31c-4.05,5.33-4.05,5.33-9.73,1.83c-3.51-2.16-3.59-2.7-1.04-5.99c0.76-0.99,1.43-2.05,2.11-3.1
	c1.31-2.03,0.84-3.83-0.93-5.25c-1.21-0.97-2.52-2.11-3.95-2.44c-1.25-0.29-3.1,0.02-4.03,0.82c-2.11,1.81-3.82,4.08-5.86,6.35
	c-2.99-2.39-5.79-4.64-8.67-6.94c1.98-2.49,3.75-4.66,5.47-6.86c2.22-2.85,0.17-4.6-1.73-6.31c-1.92-1.72-3.94-3.42-6.56-1.19
	c-1.43,1.21-2.8,2.52-4.1,3.87c-1.44,1.5-2.72,1.63-4.26,0.08c-1.9-1.91-3.94-3.68-6.52-6.08c2.3-2.03,4.14-3.55,5.85-5.19
	c2.08-2,2.43-4,0.37-6.5c-3.57-4.36-5.33-4.75-9.67-1.39c-1.3,1.01-2.56,2.07-3.92,3.17c-2.19-2.59-4.31-4.9-6.13-7.43
	c-0.36-0.5,0.12-2.09,0.71-2.72c1.34-1.44,3.03-2.56,4.49-3.9c1.75-1.6,2.39-3.4,0.66-5.46c-0.33-0.4-0.58-0.87-0.88-1.3
	c-3.26-4.69-4.4-4.92-9.11-1.79c-4.3,2.86-4.31,2.85-6.82-1.8c-0.25-0.46-0.49-0.92-0.73-1.38c-2.19-4.18-2.19-4.18,1.92-6.61
	c5.25-3.1,5.77-7.8,1.13-11.96c-0.73-0.66-2.36-0.82-3.38-0.53c-1.78,0.51-3.52,1.37-5.06,2.41c-1.73,1.16-2.68,0.54-3.48-0.97
	c-1.07-2.02-2.26-4.01-3.04-6.15c-0.29-0.82,0.11-2.39,0.77-2.93c1.15-0.96,2.7-1.48,4.14-2.03c3.45-1.33,4.72-4.16,3.26-7.5
	c-0.42-0.95-0.95-1.86-1.37-2.81c-0.91-2.1-2.36-2.64-4.56-1.97c-2.26,0.69-5.14,2.13-6.77,1.31c-1.58-0.8-1.81-4.11-2.83-6.22
	c-1.08-2.23-0.11-3.61,1.67-4.69c0.69-0.42,1.55-0.6,2.36-0.8c5.67-1.44,6.88-3.78,4.67-9.08c-1.41-3.39-2.81-4.03-6.72-3.11
	c-5.56,1.3-5.56,1.3-6.43-4.34c-0.92-5.94-0.92-5.94,5.12-7.05c3.88-0.72,4.87-2.25,4.37-6.78c-0.52-4.8-1.37-5.6-5.73-5.45
	c-6.79,0.24-6.79,0.24-6.69-6.54c0.07-4.69,0.07-4.69,4.83-4.78c5.73-0.1,8.86-5.37,5.99-10.47c-0.6-1.07-2.49-1.75-3.88-1.97
	c-2.13-0.32-4.35-0.09-7.5-0.09c0.51-3.62,0.89-6.94,1.53-10.21c0.11-0.54,1.38-1.14,2.16-1.2c1.76-0.15,3.56-0.06,5.33,0.08
	c3.33,0.27,4.38-1.72,4.78-4.52c0.67-4.77,0.04-6.44-3.09-7.34c-1.48-0.43-3.07-0.52-4.63-0.67c-2.71-0.27-3.43-1.29-2.67-3.95
	c0.29-1,0.72-1.98,0.87-3c0.96-6.54,1.52-4.81,6.37-4.18c1.89,0.25,4.97,0.22,5.64-0.85c1.45-2.33,2.13-5.39,2.19-8.18
	c0.02-0.91-2.77-2.2-4.46-2.76c-5.33-1.77-5.37-1.67-3.94-7.03c0.24-0.91,0.39-1.86,0.77-2.71c1.02-2.22,2.5-3.38,4.92-1.72
	c0.17,0.12,0.35,0.27,0.54,0.31c2.12,0.5,4.65,1.94,6.27,1.25c3.11-1.33,4-4.91,3.74-8.03c-0.13-1.48-2.11-3.2-3.67-4.08
	c-5.05-2.83-5.13-2.7-3.17-8.08c0.36-0.98,0.79-1.93,1.29-2.85c1.08-1.98,2.59-2.25,4.41-0.99c0.09,0.06,0.15,0.15,0.24,0.2
	c6.23,4.06,7.27,3.7,10.53-2.85c1.46-2.93,0.36-4.73-1.86-6.41c-1.86-1.41-4.82-2.58-5.23-4.34c-0.36-1.58,2.11-3.79,3.3-5.74
	c2.14-3.48,2.48-3.56,5.67-1.15c5.6,4.23,7.39,3.71,10.49-2.65c1.25-2.57,0.67-4.36-1.51-5.94c-1.84-1.34-3.63-2.75-5.7-4.33
	c2.24-2.63,4.14-5.11,6.35-7.26c0.54-0.52,2.33-0.31,3.2,0.18c1.43,0.8,2.66,2.02,3.83,3.2c2.37,2.37,4.4,1.8,6.3-0.54
	c0.72-0.89,1.37-1.84,2.12-2.7c1.84-2.11,1.41-3.91-0.56-5.66c-1.85-1.64-3.62-3.37-5.83-5.44c2.53-2.37,4.71-4.63,7.15-6.54
	c0.58-0.45,2.31-0.08,3.08,0.5c1.65,1.25,3.01,2.88,4.52,4.33c1.34,1.28,2.74,1.34,4.16,0.09c0.71-0.62,1.44-1.21,2.17-1.8
	c3.29-2.64,3.49-4.7,0.78-7.92c-4.15-4.91-4.15-4.91,0.99-8.8c4.21-3.19,4.2-3.18,7.11,1.11c0.58,0.86,1.19,1.72,1.85,2.53
	c1.57,1.9,3.37,2.35,5.46,0.79c0.42-0.31,0.88-0.56,1.32-0.85c4.49-2.98,4.84-5.1,1.53-9.33c-0.83-1.06-1.71-2.08-3.06-3.71
	c3.26-2.03,6.25-3.99,9.37-5.7c0.41-0.22,1.8,0.69,2.28,1.39c0.82,1.18,1.14,2.7,1.94,3.9c1.21,1.82,2.5,3.73,5.23,3.17
	c2.29-0.47,6.78-4.09,6.47-5.79c-0.35-1.95-1.4-3.89-2.58-5.53c-1.38-1.92-1.2-3.22,0.77-4.31c2.09-1.15,4.17-2.37,6.39-3.19
	c0.62-0.23,2.02,0.63,2.55,1.36c0.96,1.34,1.43,3.01,2.27,4.44c2.24,3.8,3.13,4.21,7.26,2.5c3.88-1.61,6.13-4.26,3.27-8.41
	c-2.72-3.94-2.07-5.19,2.44-6.72c6.09-2.06,6.07-2.05,8.41,3.74c0.47,1.16,1.04,2.29,1.68,3.35c1,1.66,2.41,2.19,4.26,1.3
	c1.03-0.49,2.14-0.81,3.2-1.24c2.38-0.96,3.3-2.78,2.96-5.24c-0.14-1.03-0.46-2.03-0.75-3.04c-0.99-3.54-0.73-4.19,2.78-5.15
	c2-0.55,4.1-0.91,6.16-0.94c0.75-0.01,1.6,1.11,2.24,1.85c0.28,0.33,0.16,1.01,0.21,1.53c0.96,8.87,2.68,7.01,9.39,6.54
	c1.19-0.08,2.53-2.15,3.24-3.58c0.48-0.97-0.02-2.43-0.14-3.67c-0.08-0.82-0.5-1.69-0.34-2.45c1.11-5.4,5.86-2.26,8.77-3.49
	c1.76-0.74,3.24,0.94,3.23,3.15c0,0.42,0,0.84,0,1.26c0.05,7.66,1.05,8.57,8.57,7.96c2.28-0.18,3.74-1.17,3.93-3.6
	c0.1-1.35,0.35-2.71,0.32-4.06c-0.1-4.75-0.14-4.75,4.48-4.77c0.1,0,0.21,0,0.31,0c7.69,0,7.69,0,6.28,7.61
	c-0.67,3.6,0.62,5.23,4.34,5.48c7.08,0.49,7.46,0.17,8.44-7.1C265.11,31.81,265.27,30.9,265.48,29.56z M240.63,404.83
	c4.82-0.59,13.9-1.8,23-2.8c21.29-2.33,41.18-9.23,59.66-19.63c25.15-14.17,45.89-33.34,61.21-58.07
	c11.67-18.84,19.78-38.98,23.55-60.9c3.12-18.16,3.93-36.3,1.57-54.6c-2.39-18.59-7.49-36.36-16-53.04
	c-13.42-26.31-31.8-48.35-56.11-65.51c-25.97-18.33-54.99-27.71-86.23-30.85c-16.82-1.69-33.53-0.36-50.17,2.92
	c-23.5,4.63-45.16,13.49-64.64,27.32c-21.16,15.03-38.19,33.86-50.94,56.62c-10.53,18.79-17.94,38.62-20.91,59.91
	c-3.09,22.12-2.16,44.16,2.94,66c8.54,36.53,26.99,67.23,55.63,91.2C155.74,390.64,193.82,403.86,240.63,404.83z"/>
</svg>
