<?xml version="1.0" encoding="utf-8"?>
<!-- Generator: Adobe Illustrator 25.1.0, SVG Export Plug-In . SVG Version: 6.00 Build 0)  -->
<svg version="1.1" id="Layer_1" xmlns="http://www.w3.org/2000/svg" xmlns:xlink="http://www.w3.org/1999/xlink" x="0px" y="0px"
	 viewBox="0 0 480 20" style="enable-background:new 0 0 480 20;" xml:space="preserve">
<style type="text/css">
	.st0{fill:#FFFFFF;}
</style>
<g>
	<path class="st0" d="M385.3,13.45c1.16,1.37,2.33,2.74,3.49,4.11c-7.22-4.54-14.3-5.34-21.62,0.53c-0.08-0.36-0.17-0.72-0.24-1.08
		c1.05-1.13,2.11-2.25,3.81-4.07c-4.12,0-7.74-0.7-10.78,0.12c-11.48,3.1-22.73,3.19-34.17-0.01c-2.64-0.74-5.7-0.44-9.81-0.69
		c2.11,2.42,3.3,3.8,4.5,5.17c-7.13-4.39-14.23-5.22-21.86-0.6c1.01-1.1,2.01-2.21,3.6-3.96c-4.07,0-7.68-0.69-10.72,0.12
		c-11.17,2.99-22.14,3.17-33.32,0.16c-2.87-0.78-6.09-0.69-9.14-1c-0.2,0.33-0.39,0.66-0.6,0.99c1.22,1.44,2.43,2.88,3.65,4.32
		c-7.24-4.66-14.34-5.09-21.91-0.52c1.02-1.14,2.05-2.27,3.7-4.12c-4.04,0-7.66-0.69-10.69,0.12c-11.49,3.1-22.73,3.22-34.18-0.04
		c-2.66-0.76-5.77-0.42-9.88-0.65c2.11,2.36,3.33,3.73,4.55,5.11c-7.12-4.21-14.21-5.27-21.82-0.53c1.01-1.11,2.01-2.22,4.03-4.46
		c-4.72,0.26-8.39-0.1-11.62,0.74c-11.02,2.88-21.86,2.98-32.87,0.03c-2.87-0.77-6.08-0.7-9.13-1.02c-0.19,0.33-0.39,0.67-0.59,1
		c1.21,1.44,2.42,2.88,3.64,4.32c-7.19-4.54-14.28-5.2-21.85-0.5c0.99-1.15,1.99-2.29,3.54-4.09c-3.99,0-7.6-0.69-10.63,0.12
		C74.88,16.15,63.65,16.26,52.19,13c-2.63-0.75-5.72-0.4-9.85-0.63c2.15,2.39,3.39,3.75,4.61,5.11c-7.25-4.61-14.49-4.93-22.12-0.58
		c1.07-1.03,2.14-2.05,4.26-4.08c-4.38,0-7.71-0.32-10.9,0.08c-4.81,0.6-9.51,1.79-14.3,2.51c-0.93,0.14-2.09-0.73-3.15-1.13
		c0.95-0.54,1.81-1.4,2.84-1.58c3.71-0.63,7.47-1.03,11.63-1.57C10.85,7.8,4.32,10.12-0.33,6.16c10.87-1.93,19.41,5.58,29.31,1.29
		c-0.83-1.18-1.76-2.52-2.86-4.09C29.73,4.62,33,6.65,36.29,6.68c3.43,0.03,6.89-1.85,10.73-3.02c-1.28,1.43-2.47,2.74-4.57,5.08
		c3.99-0.17,7.1,0.26,9.72-0.51C63.6,4.89,74.8,4.95,86.3,8.15c3.3,0.92,7.3,0.14,11.73,0.14c-1.57-2.14-2.57-3.5-3.58-4.87
		c6.87,4.33,13.61,5.44,20.42-0.84c0.13,0.37,0.28,0.75,0.41,1.12c-1.14,1.33-2.26,2.66-4.06,4.77c3.47,0,6.49,0.63,8.9-0.11
		c11.73-3.53,23.2-3.48,34.98-0.06c3.15,0.91,6.99,0.14,11.31,0.14c-1.57-2.29-2.5-3.65-3.43-5.01c6.91,4.54,13.51,5.21,20.22-0.8
		c0.16,0.36,0.31,0.73,0.45,1.09c-1.17,1.32-2.36,2.64-4.14,4.63c3.54,0,6.71,0.64,9.29-0.11c11.6-3.39,22.93-3.34,34.55,0.01
		c3.18,0.92,7.07,0.14,11.48,0.14c-1.6-2.18-2.61-3.55-3.77-5.12c3.61,1.27,6.91,3.31,10.26,3.37c3.45,0.06,6.94-1.81,10.69-2.92
		c-1.12,1.31-2.27,2.65-4.06,4.73c3.46,0,6.47,0.62,8.89-0.11c11.73-3.53,23.22-3.45,34.99-0.08c3.17,0.9,7.01,0.14,11.35,0.14
		c-1.58-2.25-2.53-3.61-3.48-4.97c6.93,5.07,13.67,4.68,20.78,0.3c-1.21,1.32-2.41,2.63-4.31,4.71c3.61,0,6.63,0.62,9.08-0.11
		c11.73-3.48,23.22-3.49,34.99-0.04c3.15,0.92,7.01,0.14,11.45,0.14c-1.71-2.28-2.73-3.64-3.75-5c6.87,4.24,13.62,5.48,20.44-0.88
		c0.12,0.38,0.24,0.76,0.37,1.14c-1.14,1.34-2.27,2.69-4.25,5.03c3.89-0.17,7.01,0.26,9.62-0.51c11.44-3.4,22.64-3.23,34.13-0.07
		c3.29,0.9,7.23,0.14,11.63,0.14c-1.54-2.21-2.48-3.56-3.42-4.92c6.93,5.16,13.68,4.75,20.8,0.4c-1.17,1.24-2.33,2.48-3.85,4.11
		c9.27,3.25,17.07-3.85,25.75-1.92c0.23,2.14,0.22,2.07-5.46,2.77c-2.68,0.33-5.31,0.97-7.97,2.21c2.72,0.51,5.5,0.86,8.14,1.57
		c2.01,0.54,5.92-1.51,5.79,2.61c-9,1.69-16.93-4.55-26.34-2.07c1.47,1.68,2.69,3.06,3.9,4.44c-7.12-4.28-14.22-5.37-21.86-0.58
		c0.97-1.12,1.95-2.25,3.81-4.4c-4.39,0.16-7.96-0.32-11.02,0.52c-11.32,3.09-22.43,3.17-33.74,0.03c-2.72-0.76-5.83-0.56-8.76-0.8
		C385.58,12.7,385.43,13.07,385.3,13.45z M357.43,10.71c-9.94-3.07-19.16-3.13-29.12,0.01C338.29,13.41,347.5,13.4,357.43,10.71z
		 M289.12,10.7c-10.29-3.08-19.47-3.03-29.32,0.01C269.7,13.38,278.93,13.41,289.12,10.7z M151.87,10.83
		c-7.29-3.26-22.32-3.26-28.02,0.11C133.09,13.38,142.19,13.37,151.87,10.83z M396.67,10.68c10.08,2.78,19.21,2.68,29.19,0.02
		C415.9,7.66,406.77,7.63,396.67,10.68z M54.54,10.74c10.11,2.56,19.24,2.72,29.4-0.09C73.77,7.71,64.64,7.62,54.54,10.74z
		 M220.69,10.66c-10.1-2.95-19.22-3.06-29.32,0.06C201.46,13.33,210.58,13.45,220.69,10.66z"/>
</g>
</svg>
