<?xml version="1.0" encoding="utf-8"?>
<!-- Generator: Adobe Illustrator 25.1.0, SVG Export Plug-In . SVG Version: 6.00 Build 0)  -->
<svg version="1.1" id="Layer_1" xmlns="http://www.w3.org/2000/svg" xmlns:xlink="http://www.w3.org/1999/xlink" x="0px" y="0px"
	 viewBox="0 0 480 480" style="enable-background:new 0 0 480 480;" xml:space="preserve">
<g>
	<path d="M196.16,191.2h-2.86c-7.29,1.68-20.04,3.36-38.25,5.04c-5.27,0-10.15-3.11-14.63-9.33c-0.28-0.5-0.42-1.06-0.42-1.68
		c1.79,0.56,3.03,0.84,3.7,0.84h0.76v-0.42c-1.4-1.06-2.58-3.87-3.53-8.41c0.28,0,0.42-0.14,0.42-0.42c6.22,2.07,12.55,3.11,19,3.11
		h2.86c2.07,0,12.11-1.54,30.1-4.62v0.42l0.84-0.42c14.63,0,23.99,2.05,28.08,6.14l0.42,0.76v0.42l-4.12-1.18l0.42,0.76
		c-0.28,0-0.42,0.14-0.42,0.42c-3.59-0.78-6.42-1.18-8.49-1.18c-2.07,0-5.21,0.39-9.42,1.18v0.42c9.98,0,16.5,2.44,19.59,7.31
		c0.9,1.01,1.65,2.07,2.27,3.19C209.19,191.98,200.42,191.2,196.16,191.2z M172.11,233.65c8.13-0.5,16.31-1.12,24.55-1.85l1.09-0.5
		c0,0.17,0.11,0.22,0.34,0.17c-0.06,4.65-2.92,7.71-8.58,9.16l-4.79,0.84h-0.25v0.34c4.04-0.22,7.65-0.78,10.84-1.68l1.43-0.34
		c0.5-0.17,1.09-0.14,1.77,0.08c-0.11,1.18-1.26,2.07-3.45,2.69c-0.34,0.06-2.27,0.31-5.8,0.76h-0.17v0.25
		c4.76-0.17,7.23-0.2,7.4-0.08c0.45,1.57-0.56,2.94-3.03,4.12c-6.11-0.17-12.02-0.22-17.74-0.17l-3.87-3.03
		c-2.63,11.32-5.69,23.46-9.16,36.4c13.06-1.85,23.71-3.31,31.95-4.37c0,0.73-1.15,3.9-3.45,9.5c0.56,1.18,0.84,2.07,0.84,2.69
		c-8.24,5.77-19.04,8.64-32.41,8.62c-13.37-0.03-18.82-7.55-16.35-22.57c5.83-18.66,10.23-35.78,13.2-51.37l2.52-13.45h-0.42
		c-0.34,0-1.04,0.67-2.1,2.02c-2.13-1.29-3.19-3.31-3.19-6.05v-1.26c0-2.35,6-4.65,17.99-6.89h2.77c3.47,0,6.75,2.3,9.84,6.89h-0.67
		c-2.13-0.78-3.9-1.18-5.3-1.18h-1.01c-2.63,0-3.95,0.39-3.95,1.18c3.31,0,4.96,0.56,4.96,1.68
		C176.29,214.99,174.36,224.13,172.11,233.65z M169.84,242.82l-0.5,2.19l-0.17,0.5h0.08c0.28-0.84,0.56-1.65,0.84-2.44
		L169.84,242.82z M176.91,254.59h0.84v0.92c-1.4,2.52-3.42,4.26-6.05,5.21l-0.92-1.77C171.38,258.96,173.43,257.5,176.91,254.59z
		 M176.49,249.54h0.84v1.77c-1.01,0-2.47,0.87-4.37,2.61h-1.77C171.19,253.02,172.96,251.56,176.49,249.54z M209.44,210.37
		l0.84,1.68v0.92h-2.61v-0.92C207.84,210.93,208.43,210.37,209.44,210.37z"/>
	<path d="M266.69,172.11h2.77c1.12,0,2.38,3.76,3.78,11.27l4.71,0.92v2.86c-4.26,4.88-13.98,18.97-29.17,42.29
		c-0.79,0-2.66,2.49-5.63,7.48c3.59,9.47,7.68,26.71,12.27,51.7c1.51,2.02,2.75,5.44,3.7,10.26h-0.92c-2.24,0-4.74-1.23-7.48-3.7
		h-1.01v2.77l1.01,1.93c-1.23,0.62-2.19,0.92-2.86,0.92l-7.48-4.71v3.78c-9.42-4.65-14.12-18.44-14.12-41.36
		c-5.88,7.51-14.01,21.91-24.38,43.21h-1.01c-1.85,0-2.77-2.19-2.77-6.56h-0.92c0,3.14-0.65,4.71-1.93,4.71
		c-4.99-4.76-7.48-7.59-7.48-8.49v-1.85c1.63-10.65,13.2-27.57,34.72-50.78l-10.26-64.82l1.85-0.92h1.85c0,1.85,1.26,3.42,3.78,4.71
		l0.92-3.78h0.92l4.71,4.71v-3.7h1.85c3.81,0,7.26,13.45,10.34,40.35c0.9-0.22,9.05-13.67,24.46-40.35L266.69,172.11z
		 M260.05,225.67c1.29,0.17,1.93,0.79,1.93,1.85v1.93c-3.53,6.22-6.05,9.67-7.57,10.34h-0.92v-1.01
		C253.94,234.75,256.13,230.37,260.05,225.67z"/>
	<path d="M303.26,173.21h8.24c12.39,0,21.58,7.93,27.57,23.79c0.62,5.32,0.92,8.35,0.92,9.08c0,20.85-15.58,37.92-46.74,51.2
		c-7.73,0-11.6,2.44-11.6,7.31c-4.09,22.53-6.64,33.8-7.65,33.8c-3.03,0-4.54-4.88-4.54-14.63h-0.92c-1.63,9.13-3.14,13.7-4.54,13.7
		c-0.62-1.18-0.92-2.1-0.92-2.77l-2.77,1.85l-0.84-1.85v-0.92c0-3.36,0.59-7.93,1.77-13.7h-1.77c1.18-9.19,1.77-15.89,1.77-20.09
		c-2.75-1.18-4.26-2.38-4.54-3.61v-8.24l0.92-1.85c4.04,1.23,7.09,1.85,9.16,1.85c7.29-28.3,11.85-44.75,13.7-49.35h-0.92
		l-4.62,2.77c-1.79-4.04-2.69-6.78-2.69-8.24c0-2.19,2.13-5.83,6.39-10.93c-0.62,0-0.92-0.31-0.92-0.92
		C286.39,175.95,294.91,173.21,303.26,173.21z M261.23,277.37v1.85h0.92v-1.85H261.23z M265.85,218.86h0.92
		c1.18,0.22,1.77,0.84,1.77,1.85c0,1.23-0.59,1.85-1.77,1.85l-1.85-0.92C265.54,220.45,265.85,219.53,265.85,218.86z M288.63,292.33
		v0.92c0,0.62-0.28,0.92-0.84,0.92l0.84,1.77c-3.81,7.96-8.97,11.94-15.47,11.94l-0.92-1.85v-1.85
		C278.35,296.28,283.81,292.33,288.63,292.33z M288.63,281.4h0.92v0.84c0,1.63-3.03,4.99-9.08,10.09h-0.92
		C281.35,288.24,284.37,284.6,288.63,281.4z M289.05,207v0.92h0.84c2.63-7.29,4.79-10.93,6.47-10.93h1.77
		c0,3.25-3.03,16.65-9.08,40.18c19.78-7.51,29.68-18.19,29.68-32.03v-2.69c0-6.73-3.03-10.09-9.08-10.09
		c-13.17,0-19.76,3.98-19.76,11.94C289.33,205.49,289.05,206.39,289.05,207z M293.26,286.45c1.18,0.22,1.77,0.84,1.77,1.85
		c0,1.23-0.59,1.85-1.77,1.85c-1.23,0-1.85-0.62-1.85-1.85C291.58,287.07,292.19,286.45,293.26,286.45z"/>
</g>
</svg>
