<?xml version="1.0" encoding="utf-8"?>
<!-- Generator: Adobe Illustrator 25.1.0, SVG Export Plug-In . SVG Version: 6.00 Build 0)  -->
<svg version="1.1" id="Layer_1" xmlns="http://www.w3.org/2000/svg" xmlns:xlink="http://www.w3.org/1999/xlink" x="0px" y="0px"
	 viewBox="0 0 480 480" style="enable-background:new 0 0 480 480;" xml:space="preserve">
<g>
	<path d="M186.81,169.78c2.99,1.5,4.49,3.71,4.49,6.63h0.2c0.34-2.92,1.46-4.39,3.37-4.39h2.14v1.12c0,5.3-11.73,46.44-35.19,123.41
		l2.24-1.12h17.34c2.72,0,6.09-0.37,10.1-1.12c5.78,0.88,9.49,1.97,11.12,3.26c-0.14,3.61-0.2,5.98-0.2,7.14
		c1.5,0.2,2.24,0.95,2.24,2.24v2.24c-2.58,4.22-14.86,7.17-36.82,8.87C149.28,314.2,140,304.55,140,289.11
		c0-15.5,10.4-51.95,31.21-109.34h3.37c0,2.24,0.75,3.37,2.24,3.37c1.5-7.41,2.99-11.12,4.49-11.12l3.26,2.24
		C184.57,171.27,185.32,169.78,186.81,169.78z M144.49,226.59l1.12,2.24v2.24h-1.12c-1.5,0-2.24-0.75-2.24-2.24
		C142.45,227.34,143.2,226.59,144.49,226.59z M191.3,279.01l1.12,2.24l-2.24,1.12l-1.12-2.24L191.3,279.01z M196.91,252.29
		c1.43,0.2,2.14,0.95,2.14,2.24c-2.79,6.46-5,9.79-6.63,10l-1.12-2.24C191.3,258.75,193.17,255.42,196.91,252.29z"/>
	<path d="M226.3,159.89l7.04,5c9.93,0,14.89,9.15,14.89,27.44c-1.56,20.74-4.62,48.11-9.18,82.1v1.22h1.12
		c18.49-60.99,31.45-95.63,38.86-103.93h1.12c1.5,0.27,2.24,1.06,2.24,2.35v1.12l-1.12,2.24h2.35c0-2.24,1.5-4.15,4.49-5.71
		c1.56,1.02,2.35,5.58,2.35,13.67l2.24-1.12h1.12v13.77c0,11.36-12.54,37.98-37.63,79.86c-9.11,20.19-13.67,30.84-13.67,31.92
		l1.12,2.35v5.71c0,1.5-0.75,2.24-2.24,2.24c-17.54-2.04-26.31-9.28-26.31-21.72l-1.12-7.96c0.75-19.04,1.12-36.55,1.12-52.53v-5.71
		l1.12-6.83c-0.75-1.22-1.12-3.13-1.12-5.71v-4.59c0-1.7,0.37-3.2,1.12-4.49c0-0.82-0.37-1.22-1.12-1.22
		c2.58-28.15,4.86-42.22,6.83-42.22c0.54,0,0.68,27.03,0.41,81.08L226.3,159.89z"/>
	<path d="M322.15,169.78c2.99,1.5,4.49,3.71,4.49,6.63h0.2c0.34-2.92,1.46-4.39,3.37-4.39h2.14v1.12c0,5.3-11.73,46.44-35.19,123.41
		l2.24-1.12h17.34c2.72,0,6.09-0.37,10.1-1.12c5.78,0.88,9.49,1.97,11.12,3.26c-0.14,3.61-0.2,5.98-0.2,7.14
		c1.5,0.2,2.24,0.95,2.24,2.24v2.24c-2.58,4.22-14.86,7.17-36.82,8.87c-18.56-3.88-27.84-13.53-27.84-28.97
		c0-15.5,10.4-51.95,31.21-109.34h3.37c0,2.24,0.75,3.37,2.24,3.37c1.5-7.41,2.99-11.12,4.49-11.12l3.26,2.24
		C319.91,171.27,320.66,169.78,322.15,169.78z M279.82,226.59l1.12,2.24v2.24h-1.12c-1.5,0-2.24-0.75-2.24-2.24
		C277.79,227.34,278.53,226.59,279.82,226.59z M326.64,279.01l1.12,2.24l-2.24,1.12l-1.12-2.24L326.64,279.01z M332.25,252.29
		c1.43,0.2,2.14,0.95,2.14,2.24c-2.79,6.46-5,9.79-6.63,10l-1.12-2.24C326.64,258.75,328.51,255.42,332.25,252.29z"/>
</g>
</svg>
