<?xml version="1.0" encoding="utf-8"?>
<!-- Generator: Adobe Illustrator 25.1.0, SVG Export Plug-In . SVG Version: 6.00 Build 0)  -->
<svg version="1.1" id="Layer_1" xmlns="http://www.w3.org/2000/svg" xmlns:xlink="http://www.w3.org/1999/xlink" x="0px" y="0px"
	 viewBox="0 0 480 480" style="enable-background:new 0 0 480 480;" xml:space="preserve">
<style type="text/css">
	.st0{fill:#DD8800;}
</style>
<g>
	<g>
		<path class="st0" d="M150.87,299.67c4.09-22.95,60.55-19.92,59.54,1.29c-1.83,38.46,12.19,57.36,27.71,60.72
			c39.05,8.45,44.96-40.41,32.72-61.86c-35.71-62.57-135.5-72.48-130.66-154c6.15-103.78,204.62-99.33,185.89,0.55
			c-7.32,39.04-59.44,27.35-55.2,1.5c3.12-19.05,0.59-27.36-10.74-33.08c-23.1-11.68-58.88-0.14-61.03,29.87
			c-5.02,69.96,89.89,72.93,131.55,145.05c16.9,29.24,21.7,121.33-82.03,120.57C170.56,409.72,145.27,331.1,150.87,299.67z"/>
	</g>
	<g>
		<path class="st0" d="M251.4,50.4c6.42,51.97,0.32,123.9-1.14,211.03c-0.95,56.51,2.52,105.09-0.15,163.06
			c-1.91,40.96-22.16,38.36-23.78,0.32c-1.86-43.64,1.01-96.59,1.7-166.74c0.71-72.01-4.94-130.54,0.21-208.57
			C230.05,22.06,246.84,13.44,251.4,50.4z"/>
	</g>
</g>
</svg>
