<?xml version="1.0" encoding="utf-8"?>
<!-- Generator: Adobe Illustrator 25.1.0, SVG Export Plug-In . SVG Version: 6.00 Build 0)  -->
<svg version="1.1" id="Layer_1" xmlns="http://www.w3.org/2000/svg" xmlns:xlink="http://www.w3.org/1999/xlink" x="0px" y="0px"
	 viewBox="0 0 480 480" style="enable-background:new 0 0 480 480;" xml:space="preserve">
<path d="M395.67,346.84c-3.32,0.92-6.64,1.83-9.95,2.76c-1.22,0.35-2.6,4.32-2.05,6.35c0.52,1.9,1.3,3.73,2.18,6.22
	c-1.18-1.04-1.74-1.87-2.48-2.1c-1.05-0.32-2.85-0.66-3.25-0.15c-0.83,1.07-1.63,2.93-1.25,4.05c1.14,3.3,2.95,6.35,4.29,9.59
	c0.37,0.9,0.17,2.12,0.01,3.15c-0.42,2.59-1.26,5.15-1.34,7.73c-0.04,1.37,0.93,2.96,1.86,4.13c1.98,2.5,4.23,4.78,6.04,7.37
	c-3.12-1.88-6.24-3.75-9.66-5.81c-0.95,2.2-1.89,4.39-2.89,6.68c1.81,1.31,2.4,4.87,5.36,2.94c0.4,2.21,0.57,4.56,1.28,6.74
	c1.2,3.71,1.39,7.07-2.48,10.07c1.97,0.28,3.29,0.47,5.28,0.75c-1.47,0.36-2.29,0.69-3.13,0.74c-2.18,0.13-4.02,0.65-5.46,2.56
	c-0.74,0.98-2.07,1.87-3.26,2.09c-2.24,0.41-2.59,1.87-2.97,3.65c-0.67,3.05-1.5,6.07-2.41,9.68c3.33-0.15,6.1-0.27,9.39-0.41
	c-1.76,0.88-3.31,1.63-4.84,2.42c-1.75,0.89-3.95,1.41-5.16,2.78c-4.63,5.26-10.41,5.97-16.8,5.05c-1.35-0.19-2.71-0.33-4.07-0.49
	c-0.19,0.23-0.39,0.46-0.58,0.69c1.61,2.68,3.21,5.37,4.82,8.05c-0.18,0.14-0.37,0.28-0.55,0.41c-2.47-3.18-4.95-6.35-7.42-9.53
	c-0.41-0.53-0.67-1.33-1.2-1.6c-2.81-1.42-5.63-2.87-8.58-3.95c-0.95-0.35-2.42,0.15-3.43,0.67c-3.35,1.74-6.56,3.72-9.89,5.49
	c-1.57,0.83-3.3,1.37-5.2,1.5c1.8-1.14,3.6-2.27,5.4-3.41c-0.02-0.27-0.04-0.54-0.06-0.81c-1.27-0.33-2.52-0.76-3.81-0.97
	c-6.92-1.13-13.45-3.33-19.28-7.28c-1.36-0.92-2.28-0.74-3.53,0.06c-1.99,1.28-4.11,2.35-6.15,3.56c-2.15,1.28-4.16,2.08-6.89,1.27
	c-1.73-0.51-3.89,0.41-5.88,0.7c0.46,2.24,0.86,4.18,1.3,6.31c-1.86-2.04-3.43-3.95-5.19-5.65c-1.47-1.41-3.21-1.31-5.14-0.63
	c-3.18,1.12-6.48,1.92-9.73,2.86c-0.07-0.2-0.15-0.41-0.22-0.61c2.2-1.19,4.4-2.38,6.68-3.61c-2.84-1.76-5.29-3.36-7.85-4.79
	c-0.58-0.33-1.57-0.24-2.25,0.01c-0.89,0.32-1.67,0.96-2.45,1.52c-2.71,1.91-5.12,3.11-8.95,2c-6.27-1.82-10.11,0.67-13.18,6.44
	c-1.14,2.15-2.87,3.99-4.33,5.97c-0.19-0.15-0.39-0.29-0.58-0.44c0.89-1.81,1.93-3.57,2.62-5.46c0.69-1.86,1.03-3.85,1.55-5.9
	c-2.15-1-4.4-2.15-6.73-3.07c-0.61-0.24-1.7,0.03-2.26,0.46c-3.91,3.01-7.92,5.8-12.81,7.06c-1.33,0.34-1.29,0.5-1.6,3.92
	c-1.69-1.34-3.42-3.01-5.43-4.22c-2.12-1.28-4.13-0.76-5.89,1.15c-0.73,0.79-1.98,1.15-3.04,1.56c-1.79,0.68-3.62,1.25-5.44,1.85
	c-0.89,0.29-1.8,0.55-3.19,0.97c4.04-3.02,7.63-5.69,11.45-8.54c-1.32-1.07-2.31-1.77-3.17-2.61c-1.04-1.02-1.92-0.99-2.9,0.04
	c-1.64,1.72-3.59,2.58-5.95,3.32c-4.23,1.34-8.23,3.61-10.08,8.51c-0.12-1.43-0.24-2.87-0.36-4.32c-3.37-0.27-6.84-0.46-10.28-0.89
	c-0.89-0.11-1.85-0.82-2.51-1.51c-1.99-2.08-3.86-4.29-5.72-6.39c-2.49,0.83-3.36,2.23-3.4,4.61c-0.06,3.52-0.09,7.16-2.16,9.85
	c-0.31-3.06-0.63-6.31-1.01-10.15c-2.17,0.95-3.92,1.61-5.57,2.47c-1.57,0.81-2.91,0.91-4.69,0.25c-3.68-1.36-7.61-2.08-11.3-3.41
	c-1.82-0.66-3.32-2.16-5.04-3.15c-0.85-0.48-1.95-1.06-2.8-0.89c-1.78,0.36-3.5,1.09-5.18,1.83c-3.35,1.48-6.06,0.84-8.48-1.82
	c-2.17-2.38-4.51-4.6-6.87-6.8c-0.51-0.48-1.4-0.61-2.14-0.77c-1.4-0.32-2.81-0.55-4.11-1.26c2.35-0.36,4.71-0.73,7.13-1.1
	c0.45-2.31,0.99-4.6,1.32-6.92c0.11-0.78-0.13-1.74-0.54-2.42c-1.57-2.62-2.61-5.29-2.23-8.46c0.09-0.73-0.64-1.87-1.31-2.27
	c-0.54-0.32-1.75-0.05-2.36,0.39c-1.25,0.9-2.3,2.07-3.44,3.14c-0.19-0.14-0.38-0.29-0.57-0.43c1.29-1.78,2.39-3.73,3.9-5.3
	c3.82-3.96,5.24-9.07,6.81-14.04c0.36-1.14-0.7-3.18-1.71-4.23c-1.81-1.87-4.13-3.25-6.15-4.93c-1.05-0.87-1.9-1.97-3.03-3.16
	c4.62,2.48,8.94,4.79,13.61,7.3c0.66-1.07,1.5-2.44,2-3.24c-2.91-5.28-5.63-10.17-8.3-15.07c-0.88-1.62-2.15-2.18-3.94-1.79
	c-2.13,0.46-4.28,0.83-6.42,1.24c-0.08-0.28-0.15-0.56-0.23-0.84c3.31-0.96,6.61-1.94,9.92-2.88c1.29-0.37,2.78-4.13,2.22-6.24
	c-0.51-1.91-1.31-3.75-2.25-6.36c1.18,1.05,1.7,1.83,2.4,2.05c1.06,0.34,2.67,0.82,3.29,0.31c1.16-0.96,2.43-2.31,1.43-4.3
	c-1.57-3.13-3.08-6.31-4.44-9.53c-0.35-0.83-0.17-1.95-0.01-2.9c0.44-2.67,1.18-5.31,1.42-7.99c0.1-1.06-0.59-2.37-1.28-3.29
	c-1.21-1.6-2.74-2.96-4.07-4.48c-1-1.15-1.9-2.39-3.11-3.94c3.64,2.18,6.77,4.05,10.2,6.11c0.95-2.19,1.9-4.38,2.84-6.53
	c-3.1-3.89-3.1-3.89-6.24-2.65c0.56-1.6,1.22-2.88,1.44-4.22c0.53-3.26,0.97-6.54,1.14-9.83c0.03-0.6-1.3-1.62-2.17-1.87
	c-4.69-1.34-9.42-2.5-13.71-3.61c0.34-0.07,1.36-0.41,2.39-0.44c1.93-0.07,3.86-0.02,5.78,0.08c3.67,0.19,4.72-1.18,3.5-4.71
	c-0.23-0.66-0.61-1.27-0.81-1.94c-0.88-2.93-1.88-5.89,0.59-8.6c0.06-0.06,0.09-0.15,0.13-0.23c2.79-5.76,2.62-6.58-2.54-10.85
	c1.55,0,2.79,0.23,3.91-0.04c4.02-0.97,3.89-5.17,5.77-7.81c0.15-0.22-0.42-1.04-0.76-1.51c-2-2.68-4.7-4.11-7.82-5.41
	c-3.85-1.6-7.23-4.32-10.81-6.56c0.14-0.25,0.27-0.49,0.41-0.74c1.96,0.89,3.92,1.78,5.88,2.66c1.36,0.61,2.67,1.39,4.08,1.79
	c1.63,0.46,2.55-0.43,1.79-1.98c-0.73-1.5-1.88-2.82-3.02-4.07c-0.86-0.94-1.99-1.65-2.78-2.88c0.74,0.22,1.48,0.45,2.63,0.8
	c0-1.19,0.11-2.19-0.02-3.14c-0.4-2.82-0.39-5.46,2.33-7.25c0.07-0.05,0.11-0.14,0.17-0.2c3.27-3.35,5.1-6.73,1.87-11.38
	c-2.02-2.9-2.41-6.29-1.04-10c1.73-4.7,0.72-9-3.23-12.65c-2.51-2.31-4.38-5.31-6.29-8.14c2.1,1.84,4.15,3.75,6.33,5.5
	c2.43,1.96,2.93,1.72,3.9-1.23c0.82-2.49,1.77-4.94,2.67-7.41c0.09-0.24,0.41-0.55,0.34-0.69c-1.54-3.06-3.08-6.12-4.78-9.09
	c-0.1-0.17-1.63,0.23-2.27,0.68c-1.11,0.78-2.05,1.81-3.06,2.73c-0.18-0.13-0.36-0.26-0.54-0.4c0.95-1.39,1.69-2.99,2.88-4.13
	c4.05-3.88,5.49-9.08,7.45-14.03c0.91-2.3,0.13-4.03-1.8-5.49c-2.91-2.2-5.72-4.53-8.19-7.27c4.22,2.23,8.45,4.47,12.83,6.78
	c0.4-0.63,0.89-1.56,1.52-2.36c0.88-1.1,0.53-1.85-0.18-2.97c-2.55-3.97-5.03-8-7.24-12.17c-1.18-2.23-2.44-3.23-4.98-2.46
	c-1.62,0.49-3.34,0.62-5.02,0.92c-0.08-0.32-0.15-0.64-0.23-0.96c3.04-0.82,6.34-1.15,9-2.64c1.42-0.8,2.02-3.53,2.42-5.5
	c0.22-1.1-0.75-2.43-1.16-3.67c-0.3-0.89-0.55-1.79-0.99-3.22c1.1,0.97,1.65,1.81,2.39,2.03c1.06,0.31,2.87,0.64,3.27,0.11
	c0.83-1.07,1.59-2.92,1.21-4.05c-1.1-3.22-2.89-6.19-4.18-9.35c-0.4-0.98-0.24-2.28-0.07-3.39c0.4-2.59,1.14-5.14,1.36-7.74
	c0.09-1.07-0.56-2.4-1.26-3.31c-1.33-1.73-2.96-3.23-4.41-4.88c-0.89-1.01-1.66-2.12-2.76-3.54c3.65,2.19,6.8,4.09,10.16,6.1
	c0.87-2.05,2-3.9,2.35-5.89c0.17-1-0.87-2.52-1.79-3.29c-0.78-0.65-2.17-0.56-3.44-0.83c0.15-3.67,0.28-7.85,0.53-12.03
	c0.12-1.98-0.8-2.98-2.49-3.85c-2.48-1.27-4.81-2.84-6.99-4.75c3.27,2.75,7.01,1.72,10.72,1.52c2.29-4.68,4.96-9.43,1.34-14.93
	c0.24-0.1,0.49-0.2,0.73-0.31c0.9,1.06,1.86,2.07,2.7,3.18c0.75,1,1.42,1.44,2.56,0.47c2.95-2.54,6.55-3.2,10.29-3.4
	c2.37-0.13,4.73-0.42,7.09-0.47c3.46-0.07,5.74-2.02,6.73-4.97c1.65-4.92,2.78-10.02,4.04-14.67c0.14,1.39,0.38,3.41,0.52,5.44
	c0.05,0.78-0.24,1.58-0.2,2.36c0.08,1.34,0.31,2.67,0.47,4c1.37-0.29,2.76-0.52,4.11-0.89c2.1-0.58,4.15-1.34,6.26-1.85
	c0.53-0.13,1.26,0.29,1.82,0.6c2.04,1.13,3.98,2.44,6.07,3.47c2.64,1.3,4.74,0.57,6.15-2.08c0.32-0.6,0.79-1.11,1.42-1.98
	c-0.07,1.55-0.28,2.71-0.14,3.83c0.3,2.34,1.98,3.45,4.05,4.2c1.53,0.55,3.58,2.2,4.37,1.71c2.06-1.28,4.54-3.22,5.09-5.36
	c1.41-5.47,5.17-9.25,8.52-13.48c-0.28,0.79-0.53,1.59-0.85,2.36c-0.36,0.89-0.76,1.77-1.18,2.64c-0.42,0.87-1.09,1.66-1.3,2.57
	c-0.33,1.4-0.36,2.86-0.52,4.3c1.69-0.7,3.59-1.11,5.01-2.17c1.25-0.93,1.97-2.58,3.44-3.65c-0.22,0.73-0.44,1.46-0.77,2.58
	c1.17,0,2.16,0.09,3.13-0.02c2.78-0.29,5.47-0.44,7.27,2.32c0.09,0.14,0.27,0.22,0.4,0.34c3.31,3.16,6.61,4.95,11.15,1.73
	c2.89-2.05,6.29-2.38,10-1.04c4.7,1.69,8.97,0.74,12.65-3.22c2.48-2.67,5.75-4.62,8.97-7.14c-2.38,2.7-4.51,4.98-6.47,7.39
	c-1.75,2.14-1.47,2.74,1.15,3.62c2.57,0.86,5.11,1.82,7.66,2.73c0.16,0.06,0.37,0.27,0.46,0.22c3.13-1.51,6.26-3.02,9.31-4.67
	c0.16-0.09-0.21-1.64-0.66-2.29c-0.77-1.11-1.8-2.03-2.73-3.03c0.16-0.2,0.32-0.4,0.48-0.61c1.7,1.26,3.55,2.37,5.07,3.81
	c3.91,3.71,8.95,5.03,13.79,6.77c1.92,0.69,3.38-0.32,4.53-1.83c1.49-1.96,2.93-3.95,4.49-5.85c0.79-0.97,1.8-1.76,2.87-2.41
	c-2.21,4.18-4.41,8.36-6.74,12.77c1.03,0.64,2.35,1.45,3.25,2c5.29-2.93,10.33-5.73,15.36-8.52c1.69-0.94,1.83-2.4,1.46-4.09
	c-0.41-1.87-0.75-3.75-1.12-5.62c0.22-0.06,0.45-0.13,0.67-0.19c1.18,3.2,2.36,6.41,3.93,10.69c2.95,2.69,6.98,0.55,11-1.16
	c0.12,0.27,0.25,0.54,0.37,0.81c-0.57,0.39-1.5,0.68-1.64,1.18c-0.34,1.21-0.87,2.94-0.3,3.71c0.87,1.19,2.33,2.24,4.32,1.17
	c3.01-1.62,6.14-3.02,9.29-4.34c0.83-0.35,1.96-0.19,2.91-0.03c2.67,0.44,5.3,1.16,7.98,1.45c0.99,0.11,2.25-0.47,3.09-1.12
	c1.79-1.39,3.37-3.07,5.09-4.57c1-0.87,2.11-1.62,3.41-2.61c-2.1,3.55-3.94,6.67-5.93,10.05c2.02,0.87,3.94,1.89,5.98,2.51
	c2.15,0.65,4.32-2.96,3.62-5.01c2.21-0.4,4.5-0.81,6.78-1.24c2.06-0.39,4.11-0.93,6.19-1.15c2.44-0.25,4.49,0.34,6.17,2.53
	c2.22,2.9,2.66,2.75,5.5,0.55c1.13-0.87,2.4-1.57,3.87-1.96c-1.68,2.11-3.76,4.03-4.88,6.4c-0.58,1.23,0.52,3.27,0.88,5.03
	c2.53,0.15,5-0.11,7.2,0.55c2.1,0.63,3.91,2.23,5.55,3.91c1.25-0.25,2.49-0.5,3.74-0.75c0.19,0.27,0.39,0.53,0.58,0.8
	c-0.51,0.26-1.08,0.45-1.53,0.78c-3.6,2.66-2.39,6.34-1.36,9.44c0.77,2.32,0.92,4.31,0.53,6.6c-0.17,0.99,0.2,2.48,0.9,3.07
	c0.46,0.4,2.1-0.15,2.91-0.7c0.98-0.67,1.65-1.79,2.45-2.72c0.27,0.2,0.53,0.41,0.8,0.61c-0.96,1.44-1.68,3.12-2.91,4.26
	c-4.06,3.78-5.37,8.94-7.37,13.77c-0.98,2.38-0.2,4.21,1.83,5.72c2.72,2.02,5.33,4.18,7.99,6.28c-0.14,0.19-0.27,0.38-0.41,0.56
	c-4.02-2.09-8.04-4.17-12.28-6.37c-0.08,0.12-0.38,0.63-0.77,1.06c-1.68,1.89-1.23,3.34,0.26,5.36c2.42,3.3,4.34,6.99,6.23,10.64
	c1.6,3.08,2.17,3.49,5.51,2.76c1.78-0.39,3.58-0.63,5.51-0.37c-3.34,1.22-6.67,2.44-11.07,4.05c-2.63,2.97-0.6,7,0.66,11.09
	c-0.57-0.52-1.07-1.31-1.73-1.49c-1.14-0.31-2.99-0.74-3.45-0.2c-0.85,1.01-1.57,2.9-1.18,4.03c1.1,3.22,2.88,6.19,4.17,9.35
	c0.4,0.98,0.23,2.27,0.06,3.38c-0.39,2.59-1.1,5.15-1.35,7.75c-0.1,0.99,0.48,2.24,1.13,3.08c1.33,1.73,2.95,3.24,4.39,4.89
	c0.93,1.07,1.75,2.24,2.86,3.67c-3.59-2.12-6.68-3.94-10.09-5.95c-0.88,2.02-2.15,4-2.48,6.12c-0.16,1.02,1.27,2.56,2.35,3.39
	c0.65,0.5,2,0.09,3.37,0.09c-0.42,1.17-1.09,2.45-1.3,3.8c-0.52,3.26-0.93,6.55-1.12,9.84c-0.03,0.56,1.18,1.5,1.97,1.73
	c4.77,1.39,9.58,2.62,15,4.07c-3.53,0-6.61,0.15-9.68-0.04c-3.02-0.18-4.06,0.85-3.31,3.81c0.19,0.76,0.53,1.48,0.78,2.23
	c1.06,3.15,1.79,6-0.25,9.4c-3.27,5.45-2.79,6.4,2.4,11.04c-1.28-0.14-2.37-0.47-3.41-0.33c-1.95,0.26-7.15,6.67-6.23,8.13
	c1.45,2.32,3.73,4.28,6.04,5.85c2.04,1.39,4.74,1.79,6.87,3.08c2.14,1.3,3.95,3.15,5.75,5.13c-1.72-0.77-3.45-1.52-5.16-2.3
	c-1.27-0.58-2.49-1.33-3.81-1.76c-0.73-0.24-1.63,0.01-2.45,0.04c0.06,0.82-0.17,1.83,0.23,2.41c0.96,1.38,2.18,2.58,3.35,3.79
	c0.71,0.74,1.53,1.38,2.84,2.56c-1.48-0.36-2.25-0.55-3.52-0.86c0.11,1.49,0.17,2.73,0.29,3.96c0.22,2.36-0.06,4.36-2.07,6.14
	c-1.67,1.47-2.87,3.53-4.09,5.46c-0.36,0.57-0.3,1.63-0.05,2.33c0.53,1.48,1.32,2.86,2,4.29c1.47,3.09,2.04,6.08,0.8,9.58
	c-1.7,4.8-0.8,9.18,3.29,12.88c2.51,2.28,4.35,5.31,6.03,8.33c-2.11-1.98-4.14-4.07-6.35-5.92c-2.09-1.75-2.76-1.43-3.64,1.17
	c-0.87,2.57-1.82,5.11-2.74,7.66c-0.03,0.08-0.09,0.15-0.12,0.23c-0.52,1.39,3.13,9.22,4.55,9.45c0.74,0.12,1.76-0.2,2.36-0.68
	c1.07-0.87,1.92-2.01,2.86-3.04c0.24,0.18,0.48,0.35,0.72,0.53c-0.93,1.44-1.61,3.13-2.83,4.26c-4.13,3.84-5.52,9.06-7.52,13.99
	c-0.96,2.36-0.19,4.16,1.86,5.7c3.04,2.28,5.93,4.76,8.54,7.51c-4.32-2.32-8.63-4.64-13.26-7.13c-0.67,1.06-1.53,2.43-2.04,3.25
	c2.92,5.28,5.63,10.16,8.32,15.06c0.87,1.59,2.07,2.24,3.91,1.81c2.12-0.49,4.27-0.84,6.41-1.25
	C395.57,346.2,395.62,346.52,395.67,346.84z M120.83,138.03c2.71-3.64,5.39-7.24,8.35-11.23c-0.37,1.28-0.58,2.19-0.89,3.07
	c-0.53,1.49-1.53,2.94-1.57,4.43c-0.06,2.17-1.1,3.42-2.41,4.94c-0.85,0.98-1.34,3.14-0.83,4.23c1.12,2.39,2.98,4.44,4.48,6.54
	c-0.83,0.54-3.22-1.46-3.91,1.22c-1.28,4.98-4.09,9.07-7.17,13.05c-0.39,0.51-0.63,1.51-0.41,2.06c0.93,2.35,2.07,4.62,3.21,7.08
	c3.71-1.31,7.43-2.62,10.98-3.88c-1.14,2.57-3.83,3.84-6.53,4.98c-2.93,1.24-4.82,3.21-5.14,6.4c-0.21,2.09-0.91,4.57-0.09,6.23
	c2.02,4.07-0.6,6.53-2.29,9.41c-0.62,1.05-1.31,2.06-1.86,2.93c1.81,3.04,3.53,5.92,5.45,9.15c1.29-2.43,2.47-4.63,3.65-6.84
	c-0.3,3.28-0.82,6.55-2.08,9.52c-1.16,2.73-0.71,4.79,1.21,6.66c1.46,1.43,3.17,2.62,5.2,4.27c-2.43-0.49-4.37-0.88-6.65-1.34
	c-0.28,1.95-1.22,4.06-0.68,5.66c1.08,3.18-0.35,5.42-1.7,7.85c-1.11,1.99-2.39,3.9-3.38,5.94c-0.34,0.69-0.4,1.92,0,2.51
	c4.27,6.42,6.52,13.55,7.75,21.07c0.14,0.84,0.56,1.64,1.1,3.14c1.57-2.48,2.72-4.3,3.88-6.12c-0.17,1.87-0.66,3.61-1.49,5.18
	c-1.84,3.49-3.85,6.89-5.78,10.33c-0.83,1.48-0.88,2.8,0.12,4.39c1.2,1.91,1.84,4.16,2.91,6.16c0.49,0.91,1.32,1.7,2.14,2.37
	c3.07,2.49,6.2,4.9,9.3,7.35c-0.15,0.17-0.3,0.35-0.45,0.52c-2.62-1.58-5.23-3.16-8.49-5.12c0,1.65-0.07,2.32,0.01,2.98
	c0.44,3.83,0.96,7.66,1.37,11.49c0.3,2.79-0.39,5.07-2.53,7.25c-1.95,1.99-3.06,4.8-4.87,7.8c4.22,0.46,7.45,0.81,10.49,1.14
	c-2.56,1.79-5.85,2.16-9.18,2.03c-2.48-0.1-4.26,0.61-5.18,3.39c1.84,1.69,3.62,3.68,5.74,5.17c1.72,1.21,2.38,2.69,2.51,4.59
	c0.2,2.94,0.33,5.89,0.51,9.13c1.42,0,2.82,0,4.22,0c-4.56,1.81-6.98,5.58-8.18,9.62c-0.9,3.03-2.45,5.26-4.32,7.53
	c-0.1,0.12-0.07,0.33-0.14,0.67c1,1.26,2.08,2.6,3.48,4.36c2.87-3.86,5.5-7.39,8.47-11.37c-0.41,1.4-0.64,2.36-0.97,3.29
	c-0.5,1.4-1.49,2.78-1.49,4.17c-0.01,2.19-1.14,3.41-2.4,4.93c-0.83,1-1.31,3.12-0.81,4.23c1.04,2.32,2.83,4.29,4.28,6.36
	c-1.01,0.3-3.12-1.08-3.74,1.44c-1.21,4.89-3.99,8.92-7.02,12.83c-0.44,0.57-0.73,1.66-0.5,2.27c0.91,2.35,2.06,4.61,3.19,7.06
	c3.77-1.38,7.51-2.75,11.25-4.11c-1.52,1.62-3.27,3.11-5.16,4.39c-1.3,0.88-2.83,1.39-4.19,2.18c-1.83,1.06-2.18,2.95-1.48,4.59
	c0.53,1.25,1.9,2.79,3.1,2.99c3.88,0.64,7.85,0.71,11.7,1c-0.76,2.15,1.25,5.74,3.36,5.2c2.13-0.55,4.12-1.65,6.18-2.52
	c-2.02-3.39-3.85-6.48-6.06-10.2c1.58,1.26,2.74,2.11,3.81,3.05c1.58,1.39,3.02,2.96,4.69,4.22c0.92,0.69,2.25,1.31,3.33,1.21
	c2.6-0.25,5.14-1,7.73-1.43c1.04-0.17,2.25-0.32,3.17,0.05c3.08,1.26,6.13,2.63,9.06,4.21c2.08,1.12,3.61,0.07,4.53-1.24
	c0.53-0.76-0.18-2.48-0.51-3.73c-0.13-0.5-0.74-0.87-1.63-1.83c1.53,0.48,2.42,0.76,3.3,1.04c1.24,0.4,2.58,1.3,3.7,1.08
	c1.92-0.37,4.65-0.95,5.35-2.31c1.51-2.94,1.95-6.43,2.82-9.69c0.29,0.07,0.58,0.14,0.87,0.21c-0.34,1.87-0.57,3.78-1.06,5.61
	c-0.66,2.48,0.22,3.83,2.49,5c4.04,2.08,7.98,4.39,11.76,6.92c1.47,0.98,2.45,1.4,3.85,0.21c0.65-0.55,1.44-0.95,1.9-1.25
	c-2.29-4.33-4.5-8.52-6.71-12.71c0.17-0.13,0.34-0.26,0.51-0.39c2.21,2.8,4.47,5.56,6.63,8.41c1.37,1.81,3.02,2.78,5.23,1.92
	c4.78-1.87,9.86-3.13,13.69-6.96c1.43-1.43,3.32-2.38,5-3.55c0.17,0.23,0.34,0.45,0.51,0.68c-0.84,0.77-1.73,1.48-2.5,2.31
	c-2.15,2.32-1.89,3.54,0.98,5.01c3.73,1.9,7.41,3.81,11.57,0.85c0.95-0.67,2.33-0.7,3.48-1.12c0.86-0.31,1.67-0.78,3.2-1.5
	c-2.83-3.01-5.31-5.64-7.79-8.28c0.15-0.19,0.31-0.38,0.46-0.56c2.62,2.09,5.57,3.89,7.8,6.34c3.69,4.06,8.06,5.1,12.87,3.31
	c3.72-1.39,7.12-0.91,9.98,1.1c4.59,3.24,7.84,1.35,11.13-1.81c0.06-0.06,0.15-0.1,0.2-0.17c1.86-2.8,4.62-2.75,7.5-2.44
	c0.95,0.1,1.92,0.02,3.15,0.02c-0.43-1.16-0.68-1.85-0.94-2.54c1.44,0.94,2.15,2.45,3.33,3.32c1.5,1.1,3.83,2.75,5.01,2.26
	c2.04-0.85,0.02-2.81-0.42-4.25c-0.28-0.91-0.87-1.71-1.29-2.58c-0.38-0.79-0.75-1.58-1.08-2.39c-0.32-0.78-0.58-1.57-0.87-2.36
	c3.46,4.17,7.48,7.92,8.35,13.52c0.04,0.25,0.17,0.53,0.34,0.7c1.61,1.59,3.04,3.56,4.96,4.56c0.87,0.45,2.76-1.02,4.16-1.67
	c1.88-0.87,3.99-1.55,4.18-4.11c0.08-1.07,0.01-2.15,0.01-3.76c0.99,1.32,1.5,2.43,2.36,3.03c0.98,0.68,2.5,1.53,3.38,1.2
	c2.65-0.97,5.1-2.49,7.65-3.76c0.65-0.32,1.43-0.8,2.05-0.67c1.96,0.4,3.87,1.05,5.8,1.6c1.45,0.41,2.9,0.82,4.34,1.22
	c0.19-1.57,0.46-3.14,0.55-4.72c0.08-1.39-0.14-2.81-0.03-4.2c0.09-1.22,0.44-2.43,0.61-3.27c0.82,3.76,1.46,7.74,2.57,11.58
	c1.72,5.95,5.42,8.35,12.3,8.03c-0.29-1.63-0.42-3.24-0.88-4.74c-0.75-2.42-1.83-4.73-2.58-7.15c-0.96-3.09-1.54-6.31-2.64-9.34
	c-0.6-1.66-0.55-2.96,0.23-4.46c0.89-1.72,1.58-3.55,2.51-5.68c-3.75-0.42-6.97-0.78-10.08-1.13c2.76-1.75,6.12-2.18,9.54-2.03
	c2.45,0.1,4-0.77,4.85-3.43c-2.01-1.81-4.16-3.61-6.14-5.57c-0.8-0.79-1.66-1.87-1.8-2.92c-0.46-3.34-0.6-6.73-0.86-10.11
	c-1.39-0.08-2.78-0.16-4.17-0.24c4.58-1.73,6.89-5.51,8.14-9.44c0.97-3.05,2.4-5.48,4.39-7.78c0.09-0.1,0.04-0.33,0.06-0.65
	c-1.01-1.25-2.08-2.59-3.44-4.28c-2.85,3.81-5.46,7.28-8.06,10.76c0.52-2.44,1.73-4.67,2.07-7.02c0.28-1.97,1.03-3.25,2.29-4.69
	c0.86-0.98,1.43-3.11,0.95-4.21c-1.04-2.35-2.85-4.36-4.32-6.48c0.86-0.43,3.14,1.18,3.78-1.5c1.18-4.9,3.99-8.92,7.05-12.8
	c0.41-0.52,0.73-1.52,0.52-2.06c-0.96-2.41-2.13-4.74-3.28-7.23c-3.79,1.37-7.5,2.71-10.8,3.91c0.86-1.96,1.78-2.78,5.55-4.62
	c5.71-2.8,8.06-9.33,5.63-15.25c-0.35-0.86-0.27-2.22,0.18-3.04c1.37-2.52,3.01-4.89,4.36-7.04c-1.85-3.12-3.52-5.94-5.44-9.16
	c-1.32,2.48-2.51,4.71-3.7,6.95c0.36-3.43,1.05-6.77,2.25-9.92c0.87-2.27,0.78-4.14-0.88-5.79c-1.58-1.57-3.33-2.97-5.32-4.71
	c2.16,0.42,4.08,0.79,6.57,1.27c0.1-2.46,0.17-4.85,0.29-7.23c0.06-1.16-0.11-2.47,0.37-3.44c1.48-2.98,3.29-5.79,4.82-8.75
	c0.36-0.69,0.45-1.94,0.06-2.53c-4.26-6.42-6.53-13.55-7.77-21.08c-0.14-0.84-0.57-1.63-1.13-3.2c-1.58,2.52-2.73,4.34-3.87,6.15
	c0.18-1.87,0.67-3.62,1.5-5.19c1.8-3.41,3.78-6.73,5.68-10.09c0.92-1.64,1.02-3.12-0.1-4.86c-1.17-1.82-1.77-4-2.8-5.92
	c-0.49-0.91-1.3-1.72-2.12-2.38c-3.1-2.49-6.26-4.9-9.4-7.33c0.13-0.18,0.25-0.37,0.38-0.55c2.69,1.57,5.37,3.14,8.62,5.04
	c0-1.62,0.07-2.31-0.01-2.99c-0.43-3.75-0.87-7.49-1.34-11.23c-0.37-2.93,0.43-5.24,2.58-7.5c1.89-1.98,3-4.71,4.83-7.72
	c-4.23-0.44-7.53-0.78-10.65-1.11c2.8-1.99,6.4-2.1,9.97-2.12c2.35-0.02,3.76-0.98,4.53-3.42c-2.07-1.86-4.22-3.66-6.21-5.62
	c-0.79-0.79-1.61-1.88-1.76-2.93c-0.45-3.27-0.58-6.58-0.84-9.93c-1.37-0.11-2.8-0.23-4.23-0.34c4.43-1.5,6.5-5.15,7.96-8.81
	c1.26-3.15,2.22-6.3,5.03-8.59c-1.3-1.66-2.4-3.06-3.77-4.81c-2.92,3.94-5.55,7.5-8.54,11.53c0.44-1.47,0.7-2.45,1.02-3.41
	c0.56-1.65,1.12-3.31,1.76-4.94c0.44-1.13,0.73-2.5,1.55-3.28c1.97-1.86,2.49-3.93,1.12-6.13c-1.22-1.96-2.9-3.63-3.96-4.93
	c1.01-0.47,3.24-0.82,3.53-1.77c1.53-5,4.34-9.17,7.44-13.23c0.37-0.48,0.44-1.49,0.21-2.08c-0.91-2.26-1.99-4.45-3.12-6.91
	c-3.77,1.36-7.52,2.71-11.08,3.99c1.22-2.7,4.19-3.73,6.79-5.29c1.58-0.95,3.2-2.21,4.16-3.73c1.5-2.38,2.46-5.1,3.79-7.99
	c-0.86-0.13-2.06-0.64-3.1-0.41c-1.95,0.42-3.82,1.24-5.71,1.92c-6.08,2.21-12.11,5.34-18.49,0.81c-0.16-0.11-0.48-0.01-1.08-0.01
	c-0.37,3.28-0.74,6.54-1.1,9.79c-1.12-3.18-1.85-6.48-2.06-9.81c-0.15-2.29-0.78-3.88-3.37-4.76c-1.82,2.02-3.68,4.21-5.69,6.27
	c-0.73,0.75-1.74,1.54-2.71,1.67c-3.36,0.45-6.75,0.61-10.14,0.88c-0.12,1.39-0.25,2.87-0.42,4.9c-2.25-5.81-6.49-8.13-11.46-9.58
	c-0.96-0.28-2-0.62-2.73-1.26c-3.2-2.79-3.17-2.83-6.53-0.19c-0.33,0.26-0.62,0.57-1.29,1.19c3.72,2.78,7.27,5.44,11.45,8.56
	c-1.62-0.52-2.52-0.79-3.41-1.09c-1.65-0.57-3.32-1.12-4.94-1.76c-1.21-0.48-2.58-0.87-3.48-1.72c-1.67-1.59-3.47-2.3-5.45-1.12
	c-2.09,1.25-3.95,2.89-5.93,4.37c-0.55-0.95,1.26-3.3-1.36-3.94c-4.99-1.23-9.06-4.1-13.04-7.18c-0.5-0.39-1.5-0.56-2.07-0.34
	c-2.34,0.94-4.6,2.08-6.73,3.07c0.51,2.05,0.83,4.05,1.52,5.92c0.69,1.87,1.75,3.6,2.7,5.49c-2.76-1.18-4.07-3.52-5.25-5.99
	c-2.76-5.74-9.34-8.12-15.22-5.7c-0.91,0.38-2.36,0.21-3.26-0.27c-2.45-1.31-4.74-2.92-6.83-4.25c-3.11,1.83-5.95,3.5-9.18,5.39
	c2.38,1.3,4.6,2.5,6.82,3.71c-3.45-0.34-6.76-1.11-9.93-2.27c-2.05-0.75-3.82-0.8-5.35,0.7c-1.71,1.68-3.23,3.56-5.02,5.57
	c0.41-2.12,0.79-4.1,1.24-6.41c-2.1-0.25-4.22-1.05-6-0.58c-2.61,0.69-4.58,0-6.65-1.24c-2.11-1.26-4.3-2.38-6.36-3.71
	c-1.18-0.76-2.05-0.89-3.29-0.05c-5.84,3.95-12.34,6.2-19.27,7.33c-1.31,0.21-2.59,0.64-4.68,1.16c2.26,1.58,3.81,2.66,5.35,3.75
	c-0.1,0.19-0.2,0.38-0.3,0.57c-1.34-0.54-2.74-0.97-4-1.65c-3.39-1.84-6.73-3.78-10.08-5.69c-1.64-0.94-3.12-1.06-4.86,0.08
	c-1.74,1.14-3.84,1.71-5.67,2.73c-1.05,0.59-1.99,1.48-2.76,2.41c-2.49,3.01-4.87,6.1-7.29,9.16c-0.17-0.14-0.34-0.28-0.51-0.42
	c1.58-2.67,3.17-5.34,4.75-8.01c-0.23-0.23-0.45-0.47-0.68-0.7c-2.32,0.33-4.63,0.66-6.95,0.99c-2.75,0.39-4.18,1.91-3.26,4.39
	c1.96,5.26,2.19,10.23-0.9,15.09c-0.02,0.04,0.07,0.15,0.3,0.62c2.93,0.35,6.1,0.72,9.27,1.1c0.04,0.22,0.09,0.45,0.13,0.67
	c-3.22,0.48-6.43,1.22-9.66,1.37c-2.35,0.11-3.83,0.85-4.69,3.36c1.84,1.68,3.62,3.67,5.75,5.15c1.73,1.21,2.36,2.71,2.49,4.58
	c0.21,2.96,0.33,5.92,0.49,8.91c1.45,0.11,2.92,0.21,5.13,0.37c-5.64,1.81-7.93,5.83-9.34,10.18c-0.7,2.16-1.49,3.98-3.03,5.56
	c-0.47,0.49-0.82,1.09-1.27,1.7c0.97,1.27,1.86,2.45,2.77,3.62C120,137.46,120.24,137.58,120.83,138.03z M142.03,54.8
	c-2.86,3.96-2.39,5.21,1.54,5.67c0.67,0.08,1.59-0.18,2.08-0.64c1.85-1.73,3.5-3.68,5.38-5.37c0.88-0.79,2.09-1.59,3.21-1.67
	c4.73-0.33,8.54-2.3,11.86-6.06c-6.72-4.14-13.8-6.19-21.71-6.03c1.91,3.84,3.67,7.37,5.43,10.91c-3.02-2.86-5.66-5.83-8.2-8.87
	c-1.23-1.47-2.74-1.99-4.45-1.36c-1.79,0.66-3.77,1.3-5.14,2.54c-4.16,3.76-9.05,5.08-14.46,5.36c-6.42,0.33-11.69,2.81-14.81,8.78
	c-2.44,4.68-3.48,9.71-3.67,14.95c-0.12,3.4,1.46,5.74,4.38,7.37c2.5-4.14,4.95-8.08,7.28-12.09c0.97-1.67,1.12-3.3-1-4.44
	c-0.95-0.51-1.7-1.37-2.97-2.42c5.88,1.07,6.65,1.02,7.6-4.08c0.11-0.6,0.43-1.18,0.45-1.78c0.05-1.71,1.06-2.8,2.57-2.76
	c2.92,0.08,5.93,0.17,8.71,0.95c4.58,1.28,6.4,0.97,9.48-2.68c0.9-1.07,1.96-1.99,2.95-2.99c-0.84,2.26-2.19,4.05-3.4,5.93
	c-0.52,0.81-0.75,1.82-1.11,2.73c1.27,0.07,2.6,0.41,3.79,0.14C139.08,56.6,140.22,55.73,142.03,54.8z M108.67,275.99
	c0.03,0.16,0.06,0.33,0.09,0.49c-3.07,2.65-6.13,5.31-9.21,7.95c-1.48,1.27-1.64,2.85-1.06,4.54c0.79,2.32,2.09,4.54,2.45,6.91
	c0.42,2.76,0.57,5.77-0.09,8.43c-1.06,4.25-1.2,4.68,2.56,7c2.1-3.22,4.18-6.45,6.3-9.65c3.07-4.63,2.61-7.85-1.71-11.42
	c-0.89-0.73-1.83-1.4-2.75-2.09c0.27-0.29,0.55-0.59,0.82-0.88c1.67,1.18,3.29,2.43,5.02,3.51c0.81,0.5,1.82,0.68,2.74,1
	c0.08-1.2,0.44-2.46,0.17-3.57c-0.33-1.32-1.2-2.5-1.83-3.74c3.47,2.24,4.71,1.81,5.28-2.04c0.11-0.73-0.18-1.76-0.68-2.3
	c-1.71-1.86-3.67-3.49-5.38-5.36c-0.75-0.81-1.52-1.95-1.58-2.98c-0.27-4.83-2.31-8.67-6.07-12.02c-4.16,6.74-6.2,13.82-6.03,21.72
	C101.59,279.55,105.13,277.77,108.67,275.99z M367.47,195.36c-1.49-0.43-2.99-1.38-3.88-0.98c-0.86,0.39-1.21,2.14-1.52,3.37
	c-0.13,0.53,0.23,1.38,0.64,1.82c1.74,1.84,3.66,3.52,5.36,5.4c0.79,0.88,1.64,2.07,1.71,3.17c0.33,4.81,2.33,8.65,6.08,11.89
	c4.17-6.71,6.15-13.79,6.03-21.69c-3.89,1.94-7.51,3.74-11.75,5.85c2.91-2.79,4.9-5.43,7.54-7.06c4.68-2.9,4.21-4.62,2.39-9.23
	c-0.48-1.22-0.95-2.45-1.42-3.68c-1.15-3.01-1.04-6.01,0.07-9c1.44-3.88,1.17-4.59-2.55-6.67c-2.16,3.3-4.33,6.58-6.46,9.89
	c-2.82,4.38-2.37,7.48,1.56,10.85c1,0.86,2.03,1.68,3.04,2.52c-0.24,0.26-0.48,0.51-0.73,0.77c-1.68-1.18-3.32-2.43-5.06-3.52
	c-0.82-0.51-1.82-0.72-2.74-1.06c-0.09,1.2-0.48,2.48-0.2,3.59C365.92,192.94,366.83,194.15,367.47,195.36z M336.27,416.43
	c-7.98-0.17-15.06,1.89-22.22,6.33c2.79,1.81,4.95,4.32,7.32,4.53c5.55,0.49,9.26,3.26,12.44,7.34c0.11,0.14,0.26,0.23,0.4,0.35
	c1.67,1.4,5.13,1.68,5.78,0.13c0.47-1.12-0.37-2.78-0.63-4.24c1.07,0.57,2.44,1.57,3.97,2.02c0.98,0.28,2.2-0.25,3.31-0.41
	c-0.29-0.85-0.43-1.8-0.9-2.54c-1.12-1.75-2.4-3.41-3.62-5.1c0.18-0.15,0.37-0.3,0.55-0.45c2.92,1.96,4.3,6.48,8.77,5.85
	c3.76-0.53,6.89-2.21,8.29-5.6c-3.35-1.57-6.51-3.03-9.65-4.51c-2.06-0.97-4.05-2.09-6.16-2.92c-1.86-0.73-3.54-0.36-4.94,1.32
	c-2.5,3.02-5.13,5.94-7.7,8.9c-0.15-0.06-0.29-0.12-0.44-0.18C332.57,423.79,334.32,420.32,336.27,416.43z M141.64,63.38
	c-0.07-0.32-0.14-0.64-0.22-0.97c-0.71-0.32-1.4-0.73-2.15-0.93c-4.98-1.35-9.93-2.89-14.98-3.91c-3.46-0.7-6.14,0.57-6.85,3.05
	c-1.67,5.79-4.67,10.73-8.62,15.19c-1.21,1.37-0.68,2.13,1.03,2.44c0.86,0.15,1.67,0.59,2.5,0.9c-5.18,0.52-5.48,0.65-6.76,3.41
	c5.79,1.5,5.42,8.06,9.55,11.51c1.46-2.46,3.14-4.75,4.26-7.28c2.32-5.24,1.39-7.96-3.23-10.9c-0.19-0.12-0.31-0.36-0.7-0.83
	c3.29,0.67,3.91-0.82,3.96-3.55c0.02-1.49,1.08-4,2.11-4.24c2.8-0.66,4.27-2.08,4.76-5.12c1.8,4.51,2.3,5.07,6.31,4.28
	C135.7,65.81,138.63,64.42,141.64,63.38z M135.24,422.23c-2.65-3.72-3.8-4.79-7.84-4.65c-5.12,0.18-9.61-1.48-14.26-3.52
	c1.06-0.5,2.05-0.97,3.06-1.45c-0.15-4.58,0.19-9.15-2.44-13.69c-3.51,4.63-7.09,8.75-9.98,13.31c-2.58,4.07-1.5,6.02,3.33,6.83
	c2.81,0.47,4.94,1.73,6.61,3.87c1.26,1.61,2.5,1.58,4.06,0.5c1.09-0.75,2.3-1.31,3.46-1.95c0.1,0.15,0.2,0.3,0.3,0.45
	c-1.41,1.84-2.82,3.69-4.35,5.68c0.27,0.43,0.76,1.16,1.18,1.92c0.67,1.23,1.5,1.51,2.77,0.77
	C125.82,427.59,130.53,424.93,135.24,422.23z M374.06,166.36c-5.5-1.81-5.59-8-9.65-11.8c-2.97,5.37-5.86,10.59-8.84,15.98
	c0.93,0.69,1.93,1.44,3.04,2.27c-1.5,0.43-3.8-0.96-3.61,1.87c0.25,3.72,0.78,7.42,1.01,11.15c0.23,3.72,1.72,6.83,4.18,10.05
	c0.72-2.27,1.59-4.14,1.9-6.09c1.02-6.55,2.55-12.7,8.53-16.77c1.6-1.09,0.89-2.2-0.94-2.57c-0.97-0.2-1.88-0.64-2.82-0.97
	C371.66,169.34,372.51,169.04,374.06,166.36z M120.34,284.1c-0.37,0.05-0.74,0.11-1.11,0.16c-0.68,2.41-1.59,4.78-1.99,7.24
	c-0.96,5.96-2.55,11.49-8.03,14.98c-0.07,0.05-0.14,0.11-0.2,0.17c-1.22,1.32-1.27,2.25,0.78,2.69c1.03,0.22,2,0.7,2.99,1.06
	c-4.57-0.16-6.09,0.42-7.1,3.32c5.73,1.43,5.3,7.93,9.54,11.48c2.97-5.36,5.88-10.63,8.85-15.99c-0.95-0.67-1.85-1.3-2.19-1.53
	c0.95-0.84,2.64-1.66,2.63-2.45c-0.08-3.98-0.32-8-1.07-11.9C122.83,290.18,121.4,287.17,120.34,284.1z M223.82,56.18
	c-4.51-3.28-8.26-7.5-14.75-8.15c0,3.22,0,6.36,0,9.48c-1.71-1.18-2.52-2.9-2.67-5.14c-0.14-1.98-0.34-4.05-1.05-5.88
	c-0.97-2.51-2.33-2.61-4.36-0.94c-1.54,1.28-3.2,2.42-4.84,3.56c-3.31,2.3-6.65,4.57-10.22,7.02c4.47,2.59,5.79,2.45,8.99-0.49
	c3.13-2.88,4.4-3.57,5.94-3.52c-1.94,2.33-4.06,4.88-6.46,7.78c1.43,0.35,2.02,0.58,2.61,0.63c4.92,0.44,9.89,3.11,14.76-0.29
	c0.29-0.2,0.86-0.07,1.28,0.01C217.39,61.08,220.56,58.83,223.82,56.18z M271.55,433.26c0-3.16,0-6.36,0-9.6
	c-6.43,0.84-10.25,4.92-14.94,8.46c2.26,1.29,4.1,3.01,6.19,3.39c3.76,0.68,7.53,1.71,11.27,1.98c3.72,0.27,7.55-0.9,11.55-1.47
	c-1.15-4.1-4.14-6.24-6.62-8.9c2.54,1.32,4.91,2.85,7.06,4.64c2.95,2.45,4.86,2.61,8.16,0.22c-0.68-0.58-1.3-1.2-2-1.7
	c-4.23-3.05-8.52-6.03-12.7-9.14c-1.86-1.38-3.15-1.4-4.06,0.78c-0.75,1.8-1.05,3.87-1.18,5.84
	C274.13,430.1,273.44,431.99,271.55,433.26z M362.81,248.22c-2.25,7.83-2.28,10.52-0.47,17.45c0.11,0.41,0.08,0.88,0,1.3
	c-0.83,4.36,1.35,7.55,4.07,10.79c3.29-4.5,7.45-8.28,8.13-14.71c-3.35,0-6.56,0-9.64,0c1.19-1.53,2.87-2.51,5.29-2.64
	c2.14-0.11,4.35-0.57,6.33-1.38c1.76-0.73,2.27-2.08,0.7-3.95c-1.72-2.04-2.89-4.53-4.48-6.69c-2.03-2.76-4.24-5.39-6.49-8.22
	c-2.37,4.29-2.16,5.48,0.53,8.68c1.73,2.06,3.16,4.38,4.73,6.58c-0.14,0.07-0.28,0.14-0.43,0.21
	C368.48,253.29,365.86,250.95,362.81,248.22z M113.13,240.09c2.61-4.86,2.39-5.89-0.47-9.24c-1.67-1.95-2.98-4.22-4.44-6.35
	c0.13-0.05,0.25-0.1,0.38-0.14c2.64,2.29,5.27,4.59,8.4,7.31c0.55-2.86,1-4.73,1.26-6.62c0.5-3.69,1.71-7.46-0.97-10.89
	c-0.21-0.27-0.11-0.86-0.03-1.28c0.89-4.38-1.37-7.57-4.03-10.81c-3.31,4.44-7.47,8.22-8.19,14.69c3.29,0,6.5,0,9.7,0
	c-1.29,1.59-2.99,2.51-5.35,2.72c-2.29,0.2-4.63,0.78-6.75,1.65c-1.5,0.62-1.69,2.01-0.38,3.42c1.3,1.4,2.48,2.94,3.57,4.52
	C108.21,232.56,110.52,236.13,113.13,240.09z M375.65,82.18c-0.23,0.06-0.46,0.12-0.69,0.18c-0.96-1.59-1.91-3.18-2.96-4.92
	c-1.53,1.95-2.98,3.78-3.89,4.93c1.23,2.82,2.19,5.06,3.18,7.27c1.05,2.34,2.13,4.67,3.41,7.47c5.02-7.01,8.15-13.92,7.05-22.22
	c-0.19-1.44-0.18-2.94-0.01-4.39c0.58-4.93-0.3-9.59-2.6-13.95c-0.81-1.54-1.96-2.95-4.22-2.09c-0.49,0.19-1.34-0.4-1.97-0.75
	c-0.54-0.3-1-0.75-1.49-1.14c-0.24,0.03-0.48,0.05-0.72,0.08c1.24,3.81-0.7,6.44-2.96,8.75c3.21,1.36,6.29,2.43,9.12,3.94
	c2.54,1.36,2.74,2.9,0.91,5.1C374.92,73.97,373.58,77.7,375.65,82.18z M350.32,58.87c0.43,1.11,0.88,2.25,1.32,3.39
	c1.22-0.52,2.48-0.98,3.65-1.59c1.32-0.69,2.52-1.6,3.85-2.26c1.63-0.8,3.14-0.83,4.42,0.88c0.54,0.73,1.53,1.13,2.89,2.07
	c0.84-3.32,1.52-6.01,2.36-9.36c-2.74,0.39-4.64,0.55-6.49,0.95c-4.32,0.92-8.53,1.08-12.47-1.35c-1.24-0.77-1.93-0.4-2.25,0.99
	c-0.24,1.04-0.62,2.06-0.94,3.08c-0.12-2.85,0.01-5.5-3.17-7.35c-1.78,5.88-8.14,5.76-11.72,9.72c2.3,1.43,4.42,3,6.75,4.14
	c5.27,2.58,8.39,1.64,11.6-3.19C350.19,58.88,350.39,58.84,350.32,58.87z M304.84,63.03c6.69,3.76,17.36,1.53,21.92-4.71
	c-2.98-1.83-5.95-3.65-9.65-5.93c0.28,3.13,0.5,5.6,0.73,8.19c-1.78-1.54-3.03-3.08-3.12-5.58c-0.06-1.56-0.86-3.27-1.79-4.57
	c-1.19-1.67-3.2-3.66-5.16-2.43c-4.69,2.93-9,6.48-13.78,10.02c1.46,0.85,2.2,1.31,2.96,1.72c3.82,2.02,4.96,1.72,7.34-1.84
	c1.25-1.87,2.55-3.72,3.83-5.57c0.21,0.11,0.42,0.21,0.62,0.32C307.47,56.03,306.19,59.42,304.84,63.03z M115.52,329.9
	c-1.98,3.22-3.83,6.22-6.07,9.87c3.03-0.21,5.34-0.37,7.65-0.53c0.09,0.28,0.19,0.56,0.28,0.83c-1.74,0.71-3.48,1.42-5.23,2.12
	c-1.69,0.68-3.68,0.98-4.99,2.09c-1.53,1.3-3.62,3.11-1.92,5.52c3.05,4.34,6.35,8.49,9.77,13.01c0.75-1.17,1.19-1.79,1.56-2.45
	c2.29-4.13,1.99-5.26-1.96-7.91c-1.9-1.28-3.76-2.63-5.63-3.95c0.1-0.17,0.2-0.34,0.29-0.5c3.62,1.38,7.25,2.76,10.87,4.14
	C123.61,344.84,122.11,337.25,115.52,329.9z M115.13,131.74c0.61-1.05,0.89-1.5,1.14-1.96c2.7-4.83,2.5-5.61-2.06-8.67
	c-1.64-1.1-3.22-2.3-4.83-3.45c0.12-0.19,0.24-0.38,0.36-0.56c3.47,1.33,6.93,2.66,10.39,3.98c3.53-7.44,1.54-16.9-4.75-22.01
	c-1.84,2.97-3.67,5.93-5.99,9.66c3.17-0.28,5.65-0.49,8.14-0.71c-1.35,1.73-2.9,2.96-5.37,3.14c-1.58,0.12-3.23,0.85-4.63,1.68
	c-2.79,1.65-3.5,4.43-1.65,7C108.74,123.8,111.87,127.56,115.13,131.74z M162.85,436.33c0.2-2.7,0.38-5.11,0.61-8.14
	c-2.22,1.34-3.72,2.23-5.2,3.15c-1.51,0.94-3.01,1.9-4.57,2.88c6.7,6.49,16.08,8.28,22.07,4.48c-1.28-3.43-2.55-6.83-3.82-10.23
	c0.22-0.11,0.45-0.21,0.67-0.32c1.58,2.29,3.19,4.57,4.72,6.89c1.03,1.55,2.45,2.05,4.09,1.44c1.6-0.6,3.08-1.51,4.94-2.45
	c-2.22-1.92-4.08-3.61-6.03-5.19c-1.84-1.49-3.7-2.95-5.67-4.25c-2.6-1.71-5.18-1.21-6.86,1.45c-0.91,1.45-1.81,3.18-1.87,4.82
	C165.84,433.39,164.43,434.78,162.85,436.33z M370.75,131.39c-0.09,0.16-0.18,0.32-0.27,0.48c-3.63-1.38-7.27-2.77-10.91-4.16
	c-3.75,6.51-1.9,15.81,4.58,22.05c1.89-3.06,3.76-6.07,6.06-9.79c-3.21,0.3-5.73,0.54-8.38,0.79c1.66-1.62,3.11-3.12,5.75-3.19
	c1.63-0.04,3.58-0.84,4.74-1.97c1.23-1.19,2.84-3.87,2.33-4.7c-2.95-4.77-6.49-9.19-10.06-14.05c-0.86,1.43-1.29,2.09-1.66,2.78
	c-2.12,3.97-1.84,5.07,1.83,7.56C366.77,128.58,368.75,130,370.75,131.39z M364.17,380.89c1.95-3.18,3.79-6.18,5.62-9.17
	c-0.15-0.22-0.31-0.44-0.46-0.67c-2.44,0.28-4.88,0.56-7.4,0.85c1.59-1.84,3.2-3.27,5.92-3.34c1.54-0.04,3.29-0.86,4.51-1.86
	c1.45-1.2,3.53-3,2.24-5c-3-4.65-6.51-8.97-9.94-13.6c-4.32,6.29-4.1,7.38,1.54,11.15c1.57,1.05,3.06,2.23,4.59,3.35
	c-0.11,0.13-0.21,0.26-0.32,0.39c-3.65-1.41-7.3-2.81-10.95-4.22C355.88,365.63,357.66,374.58,364.17,380.89z M364.02,404.58
	c-3.86-0.11-4.48,0.74-3.07,4.05c1.66,3.88,4.52,7.39,3.18,12.06c1.81,0,3.25,0,4.76,0c-0.04-0.72-0.02-1.25-0.11-1.76
	c-0.97-5.39-1.01-10.62,2.3-15.41c0.18-0.25-0.6-1.46-1.18-1.87c-0.74-0.52-1.74-0.68-2.62-0.99c2.64-0.39,5.29,0.01,6.87-3.24
	c-5.75-1.69-5.64-8.01-9.72-11.77c-1.6,2.85-3.52,5.41-4.57,8.29c-1.95,5.35-1.05,7.17,3.9,10.21
	C363.83,404.18,363.85,404.29,364.02,404.58z M243.24,55.4c-0.57,1.01-1.13,2.01-1.74,3.1c5.13,1.4,13.33,0.38,16.05-1.95
	c-4.87-3.9-9.7-7.77-14.84-11.88c-4.86,3.46-9.63,6.86-14.76,10.51C233.63,58.68,238.44,59.31,243.24,55.4z M367.42,281.85
	c-3.35,5.56-4.16,10.22-0.59,14.99c-0.89-0.4-1.78-0.8-3.12-1.39c-0.41,5.78-0.67,11.06,1.97,16.48c4.18-5.22,8.1-10.11,12.22-15.25
	C374.45,291.79,371.1,287.05,367.42,281.85z M101.95,182.83c3.25,5.34,5.79,10.76,10.73,14.42c3.02-5.06,3.57-9.91-0.29-14.64
	c1.02,0.55,2.03,1.1,3.59,1.94c0.24-5.89,0.62-11.19-2.06-16.65C109.73,173.12,105.85,177.96,101.95,182.83z M181.46,44.4
	c2.51,1.92,4.62,3.54,6.65,5.1c3.95-2.02,7.93-4.06,12.18-6.24c-10.67-8.36-22.09-3.61-28.97,2.93c3.98,2.95,7.96,5.9,11.91,8.83
	C187.65,50.61,182.53,48.03,181.46,44.4z M100.34,225.53c-8.08,10.33-4.26,21.2,2.84,29.06c2.96-3.98,5.91-7.96,8.86-11.93
	c-4.29-4.42-7,0.71-10.65,1.75c1.96-2.53,3.57-4.62,5.1-6.61C104.51,233.82,102.51,229.84,100.34,225.53z M376.46,225.16
	c-3.03,4.08-5.95,8.01-8.84,11.91c2.48,2.42,4.04,2.52,6.59,0.69c1.26-0.91,2.6-1.71,3.9-2.56c0.03,0.1,0.06,0.19,0.09,0.29
	c-1.69,2.16-3.38,4.32-4.95,6.32c0.83,2.04,1.54,4.21,2.57,6.23c1.03,2.03,2.36,3.91,3.65,6
	C387.16,243.98,383.77,233.7,376.46,225.16z M338.52,437.8c4.72,3.91,7.44,4.56,15.66,4.64c2.44,0.02,4.05-0.72,4.83-3.06
	c0.06-0.19,0.28-0.33,0.42-0.5c0.39,0.7,0.75,1.33,1.11,1.96c5.54-3.43,9.15-11.15,7.88-16.76c-1.44,0.15-2.89,0.31-4.24,0.46
	c-1.36,4.74-3.52,8.04-8.83,8.92C349.83,434.37,344.45,436.22,338.52,437.8z M237.33,431c4.88,4,9.75,3.42,15.51-0.22
	c-5.04-3.39-9.65-6.52-14.3-9.57c-0.37-0.24-1.24-0.21-1.59,0.06c-4.68,3.65-9.31,7.36-14.34,11.37c5.61,2.5,10.88,2.46,16.65,1.73
	C238.48,433.01,237.91,432.01,237.33,431z M292.55,425.19c1.23-0.91,2.34-1.69,3.41-2.53c1.11-0.87,2.19-1.79,3.28-2.68
	c-0.66,1.57-1.56,2.95-2.51,4.29c-1.69,2.39-1.56,3.91,0.77,6.45c3.95-2.94,7.93-5.9,11.93-8.88c-10.36-8.94-20.91-9.73-28.87-2.66
	C284.69,421.25,288.67,423.25,292.55,425.19z M377.54,272.05c2.11-1.14,5.56-1.32,5.06-4.84c-0.37-2.57-1.26-5.07-1.92-7.61
	c-0.31,0.01-0.62,0.03-0.93,0.04c-3.53,6.9-5.27,14.82-11.11,19.34c3.86,5.36,7.29,10.11,10.69,14.81
	c2.33-3.67,3.14-10.04,1.54-12.93c-1.89,0.41-3.8,0.82-5.71,1.23c1.35-1.62,3.23-2.53,4.5-3.97c1.1-1.25,1.52-3.1,2.24-4.68
	C380.57,273.03,379.25,272.6,377.54,272.05z M104.8,197.51c0.1,0.11,0.2,0.23,0.3,0.34c-1.88,1.39-3.95,2.58-5.57,4.23
	c-0.99,1.01-1.28,2.7-1.89,4.09c1.22,0.37,2.45,0.74,3.67,1.11c0.14,0.04,0.26,0.13,0.97,0.49c-2.63,1.05-5.8,1.53-5.27,4.97
	c0.39,2.51,1.25,4.94,1.9,7.4c0.29-0.01,0.58-0.02,0.87-0.03c3.84-6.65,5-14.86,11.31-19.21c-3.87-5.32-7.37-10.13-11.06-15.22
	c-1.18,4.39-3.25,8.54-1.6,13.35C100.76,198.49,102.78,198,104.8,197.51z M205.73,41.82c-0.03,0.39-0.06,0.78-0.09,1.17
	c3.58,1.49,7.33,2.67,10.7,4.54c3.37,1.87,6.36,4.42,8.92,6.24c5.11-3.68,9.88-7.11,14.62-10.51c-3.75-2.28-9.71-3.1-13.02-1.64
	c0.53,2.12,1.06,4.27,1.6,6.42c-1.73-1.72-2.94-3.88-4.65-5.52c-1.06-1.02-2.87-1.26-4.35-1.85c-0.23,1.36-0.46,2.72-0.7,4.08
	c-0.02,0.12-0.14,0.23-0.33,0.52c-1.68-1.83-1.34-5.75-4.98-5.29C210.84,40.31,208.3,41.19,205.73,41.82z M274.92,418.51
	c-0.03-0.3-0.06-0.61-0.09-0.91c-2.25-0.65-4.47-1.49-6.77-1.88c-2.17-0.37-3.97,0.34-4.58,2.86c-0.21,0.85-0.85,1.6-1.1,2.04
	c-0.39-1.4-0.77-2.8-1.16-4.2c-1.59,0.69-3.25,1.25-4.74,2.12c-0.68,0.4-0.98,1.42-1.5,2.12c-0.8,1.08-1.65,2.12-2.91,3.72
	c0.69-2.9,1.2-5.06,1.75-7.38c-4.95-1.25-9.07,0.39-13.89,1.98c1.99,1.2,3.4,1.92,4.66,2.83c2.75,1.98,5.7,3.79,8.05,6.18
	c1.77,1.8,2.95,2.15,4.64,0.34c3.13-3.35,6.91-5.51,11.31-6.82C270.82,420.85,272.83,419.53,274.92,418.51z M149.03,61.47
	c2.36,0.4,3.9,0.57,5.39,0.93c1.61,0.39,3.16,1.04,4.78,1.43c4.08,0.97,7.35-0.49,9.6-4.14c0.86-1.39,1.81-2.74,2.72-4.1
	c0.31,0.6,0.06,0.91,0.07,1.21c0.02,1.13-0.22,2.52,0.34,3.3c0.34,0.47,2.12,0.3,3.02-0.1c2.22-0.99,4.32-2.27,7.18-3.83
	c-2.42-1.2-4.23-2.81-6.05-2.82c-2.25,0-3.61-0.88-5.03-2.2c-0.82-0.76-1.66-1.51-2.76-2.51c-2.49,4.62-6.9,6.15-11.16,8.03
	C154.51,57.83,152.13,59.61,149.03,61.47z M113.12,243.67c-1.2,2.53-2.65,4.27-2.73,6.07c-0.09,2.06-0.7,3.47-2.03,4.83
	c-0.84,0.86-1.58,1.82-2.63,3.04c4.61,2.44,6.08,6.87,7.97,11.1c1.18,2.63,2.93,5.02,4.55,7.73c0.94-3.51,1.77-6.5,2.54-9.51
	c1.07-4.23-0.32-7.54-4.04-9.85c-1.25-0.77-2.45-1.62-3.58-2.37c1.48-0.25,3.56-0.1,3.86-0.75c0.48-1.07,0.07-2.77-0.45-4.01
	C115.79,248.04,114.6,246.3,113.12,243.67z M312.32,424.34c-1.16,1.09-1.87,1.88-2.71,2.5c-1.1,0.82-2.45,2.31-3.42,2.13
	c-3.18-0.61-4.84,1.41-7.24,3.2c2.62,1.39,4.95,2.72,7.37,3.84c0.68,0.31,1.97,0.32,2.39-0.11c0.53-0.55,0.5-1.68,0.62-2.56
	c0.06-0.42-0.07-0.86-0.12-1.3c1.23,1.17,2.14,2.44,2.91,3.79c1.61,2.8,4.11,4.31,7.19,3.89c3.88-0.53,7.68-1.66,11.49-2.52
	C325.59,431.38,316.38,431.87,312.32,424.34z M373.91,222.2c-4.28-2.36-5.94-6.25-7.62-10.28c-1.23-2.94-3.17-5.58-4.97-8.64
	c-0.84,3.3-1.44,5.93-2.18,8.52c-1.52,5.34-0.35,8.45,4.32,11.31c1.26,0.77,2.45,1.67,3.67,2.51c-0.82,0.16-1.36-0.29-1.89-0.28
	c-0.97,0.03-2.2,0.04-2.82,0.61c-0.45,0.41-0.37,1.84-0.02,2.59c1.08,2.34,2.41,4.58,3.63,6.85c0.29,0.02,0.59,0.04,0.88,0.05
	c0.81-1.94,1.65-3.86,2.43-5.81c0.49-1.23,0.7-2.61,1.37-3.71C371.48,224.68,372.62,223.67,373.91,222.2z M130.02,433.93
	c0.62,0.99,0.95,1.48,1.25,1.99c1.82,3.13,3.05,3.7,6.66,3.19c4.24-0.59,7.54-2.9,10.8-5.53c-3.6-3.77-9.83-3.76-11.55-9.35
	c-2.67,1.59-2.96,2.42-3,7.01c-0.53-0.95-0.86-1.96-1.13-2.99c-0.35-1.36-1.06-1.79-2.26-0.9c-3,2.2-5.98,4.42-9.28,6.86
	c1.35,0.95,2.72,2.18,4.31,2.97C129.28,438.9,129.9,438.45,130.02,433.93z M99.54,412.83c1.68-2.63,3.79-4.88,4.61-7.53
	c0.77-2.48,0.16-5.39,0.16-8.4c1.11,1.86,2.13,3.56,3.28,5.49c1.5-1.9,2.97-3.77,4.22-5.34c-1.18-1.89-2.33-3.31-3.04-4.93
	c-1.27-2.92-2.28-5.96-3.47-9.17C98.18,389.66,95.13,405.96,99.54,412.83z M114.48,393.61c0.96-2.47,1.66-4.33,2.42-6.17
	c0.29-0.7,0.65-1.79,1.15-1.9c2.63-0.58,2.82-2.69,2.98-4.64c0.47-5.53-1.88-9.92-5.88-13.94c-0.99,1.44-2.02,2.55-2.61,3.87
	c-1.63,3.6-2.11,7.84-6.17,9.91c0.46,0.86,0.71,1.41,1.03,1.92C109.63,386.1,111.85,389.54,114.48,393.61z M114.46,162.51
	c0.91-2.32,1.61-4.18,2.39-6.01c0.33-0.77,0.73-1.53,1.24-2.18c0.88-1.13,2.4-2.03,2.73-3.27c1.39-5.24-2.04-12.67-6.08-14.97
	c-1.07,1.98-2.47,3.85-3.12,5.95c-0.79,2.59-1.76,4.86-3.91,6.62c-0.52,0.42-0.89,1.82-0.58,2.33
	C109.37,154.73,111.79,158.36,114.46,162.51z M190.55,433.74c4.16,4.12,8.48,6.41,13.81,6.01c1.48-0.11,3.79-0.69,4.16-1.65
	c0.87-2.28,2.69-2.36,4.36-3.05c1.33-0.55,2.6-1.23,4.23-2.01c-3.97-2.55-7.53-4.91-11.17-7.12c-0.52-0.32-1.84-0.21-2.17,0.2
	c-2.02,2.55-4.78,3.55-7.74,4.5C194.19,431.21,192.59,432.54,190.55,433.74z M365.12,317.26c-0.97,2.48-1.66,4.35-2.43,6.19
	c-0.29,0.7-0.64,1.8-1.15,1.91c-2.49,0.54-2.76,2.52-2.95,4.38c-0.59,5.64,1.79,10.1,6.01,14.36c1.23-2.21,2.62-3.99,3.25-6
	c0.85-2.74,1.85-5.19,4.17-7.04c0.47-0.38,0.68-1.81,0.35-2.37C370.18,325.02,367.82,321.46,365.12,317.26z M290.08,57.97
	c-2.15-1.22-3.84-2.57-5.77-3.2c-2.78-0.91-5.44-1.76-7.3-4.25c-0.34-0.45-1.66-0.72-2.14-0.43c-3.73,2.25-7.36,4.65-11.53,7.34
	c2.31,0.92,4.16,1.62,5.97,2.39c0.77,0.33,2,0.69,2.13,1.23c0.59,2.65,2.7,2.81,4.63,2.96C281.51,64.44,285.91,62.21,290.08,57.97z
	 M365.12,86.21c-0.94,2.4-1.64,4.27-2.4,6.12c-0.29,0.71-0.6,1.85-1.08,1.96c-2.89,0.64-3,2.96-3.11,5.08
	c-0.28,5.31,1.96,9.59,6.03,13.59c1.16-1.97,2.48-3.56,3.1-5.4c0.99-2.93,1.92-5.75,4.49-7.76c0.42-0.33,0.58-1.65,0.27-2.16
	C370.2,93.97,367.83,90.41,365.12,86.21z M111.87,165.93c-1.15-1.73-2.38-3.12-3.08-4.73c-1.3-3.01-2.29-6.14-3.5-9.46
	c-7.78,7.88-9.9,20.8-4.86,27.97c3.65-3.75,6.1-7.8,3.41-13.41c0.27,0,0.53,0.01,0.8,0.01c0.96,1.62,1.91,3.24,2.96,5.01
	C109.05,169.48,110.46,167.7,111.87,165.93z M274.08,48.28c-7.68-7.79-20.96-9.96-27.92-4.86c3.74,3.66,7.8,5.99,13.31,3.45
	c0.03,0.24,0.06,0.47,0.08,0.71c-1.6,0.96-3.21,1.93-4.99,3c1.88,1.5,3.71,2.95,5.37,4.27c1.71-1.15,3.08-2.4,4.7-3.1
	C267.63,50.45,270.76,49.47,274.08,48.28z M234.62,418.95c-8.44-4.55-21.33-2.29-27.74,4.86c4.66,2.09,9.24,4.15,14.27,6.41
	c1.28-1.03,3.07-2.46,4.88-3.9c-2.01-1.25-3.69-2.29-5.36-3.33C226.37,425.13,230.66,423.01,234.62,418.95z M374.27,328.05
	c7.79-7.79,10.04-22.28,4.8-27.84c-4.72,5.3-5.22,7.26-3.8,13.67c-1.06-1.73-2.12-3.46-3.28-5.35c-1.46,1.86-2.91,3.69-4.24,5.38
	c1.12,1.68,2.37,3.07,3.07,4.69C372.09,321.54,373.04,324.62,374.27,328.05z M306.33,46.33c-8.73-6.88-16.07-6.11-27.13,1.13
	c1.12,1.01,2.21,2.01,3.31,3c0.26,0.24,0.51,0.48,0.79,0.69c2.45,1.86,3.59,1.5,5.12-1.17c1.06-1.84,2.51-3.46,3.79-5.18
	c0.17,0.14,0.33,0.29,0.5,0.43c-1.16,2.97-2.32,5.95-3.55,9.1c0.78,0.61,1.64,1.28,2.61,2.05c2.06-2.47,3.89-4.71,5.78-6.89
	c0.49-0.56,1.13-1.13,1.81-1.34C301.49,47.5,303.68,47.01,306.33,46.33z M111.4,367.79c0.65-0.86,1.26-1.67,1.96-2.6
	c-2.51-2.13-4.87-4.09-7.16-6.12c-0.47-0.41-0.85-1.04-1.03-1.64c-0.64-2.09-1.18-4.22-1.9-6.86c-7.18,9.44-5.42,17.03,1.26,27.14
	c1.35-1.53,2.78-2.94,3.96-4.53c1.54-2.07,1.13-3.35-1.28-4.5c-2.1-1.01-3.98-2.21-5.23-4.52
	C105.24,365.41,108.16,366.54,111.4,367.79z M375.14,102.05c-1.2,1.33-2.25,2.5-3.3,3.66c-0.18,0.2-0.34,0.4-0.5,0.61
	c-1.75,2.37-1.46,3.58,1.18,4.9c3.25,1.63,4.01,2.36,4.66,4.33c-2.81-1.1-5.79-2.28-8.95-3.52c-0.63,0.82-1.29,1.68-2.01,2.63
	c2.54,2.14,4.83,4.03,7.08,5.99c0.49,0.42,0.96,1.01,1.14,1.61c0.63,2.14,1.13,4.32,1.82,7
	C383.04,120.44,382.43,113.5,375.14,102.05z M201.49,423.19c-11.37-7.31-18.52-7.91-26.8-1.43c1.98,0.82,3.79,1.57,5.61,2.32
	c0.95,0.39,2.15,0.54,2.79,1.21c2.04,2.14,3.87,4.47,5.86,6.83c1.03-0.84,1.83-1.49,2.55-2.08c-1.24-3.16-2.4-6.12-3.56-9.09
	c0.2-0.15,0.4-0.3,0.6-0.45c1.31,1.84,2.75,3.6,3.89,5.54c1.29,2.19,2.32,2.66,4.36,1.17C198.41,426.05,199.84,424.62,201.49,423.19
	z M104.52,146.63c1.24-1.38,2.55-2.67,3.67-4.1c1.88-2.41,1.46-3.53-1.21-5.07c-1.85-1.07-3.47-2.54-5.19-3.83
	c0.14-0.17,0.28-0.33,0.42-0.5c3.03,1.18,6.07,2.37,9.16,3.57c0.67-0.84,1.26-1.58,2.03-2.55c-2.42-2.05-4.77-3.99-7.05-6.01
	c-0.53-0.47-0.95-1.18-1.17-1.85c-0.67-2.06-1.22-4.15-1.96-6.77C96,129.16,97.99,136.74,104.52,146.63z M366.19,345.67
	c2.48,2.1,4.78,4,7.01,5.97c0.54,0.47,1.01,1.15,1.23,1.82c0.67,2.08,1.19,4.21,1.92,6.83c7.32-9.48,5.21-17.52-1.28-27.06
	c-1.19,1.3-2.41,2.54-3.51,3.88c-2.04,2.49-1.66,3.7,1.13,5.27c1.67,0.94,3.12,2.26,4.68,3.41c-0.16,0.19-0.33,0.39-0.49,0.58
	c-2.84-1.06-5.68-2.11-8.65-3.22C367.62,343.89,367.03,344.63,366.19,345.67z M376.87,134.88c-3.47,6.36-6.69,12.26-10.09,18.49
	c2.53,1.14,5.61,2.53,9.21,4.15c-2.5,0.15-4.29,0.25-6.07,0.35c-0.08,0.31-0.16,0.62-0.24,0.94c1.79,1.71,3.59,3.43,5.6,5.35
	C379.11,154.44,379.88,144.99,376.87,134.88z M330.48,55.79c1.15-2.55,2.54-5.62,4.17-9.24c0.12,2.54,0.2,4.32,0.29,6.09
	c0.33,0.07,0.65,0.15,0.98,0.22c1.7-1.77,3.4-3.55,5.17-5.4c-7.87-4.3-24.39-4.74-28.47-1.43C318.4,49.19,324.25,52.39,330.48,55.79
	z M104.37,84.44c-3.83,9.91-4.74,19.33-1.59,29.33c3.42-6.28,6.63-12.18,10.02-18.41c-2.58-1.16-5.67-2.56-8.77-3.95
	c0.06-0.19,0.12-0.39,0.18-0.58c1.79,0,3.58,0,6.02,0C108.03,88.42,106.36,86.61,104.37,84.44z M375.23,395.45
	c3.81-9.98,4.76-19.39,1.59-29.38c-3.45,6.31-6.64,12.16-10.03,18.37c2.69,1.21,5.85,2.64,9,4.06c-0.07,0.18-0.15,0.37-0.22,0.55
	c-1.86,0-3.71,0-5.57,0c-0.07,0.24-0.14,0.49-0.22,0.73C371.49,391.57,373.21,393.35,375.23,395.45z M112.83,326.46
	c-2.68-1.22-5.87-2.66-9.05-4.1c0.07-0.16,0.13-0.32,0.2-0.47c1.87,0,3.74,0,5.61,0c0.13-0.28,0.26-0.55,0.39-0.83
	c-1.79-1.7-3.59-3.39-5.66-5.36c-3.8,9.71-4.66,19.14-1.55,29.16C106.2,338.59,109.42,332.7,112.83,326.46z M150.35,431.98
	c0.29,0.09,0.58,0.19,0.87,0.28c4.2-6.03,11.52-6.83,17.65-10.77c-10.33-2.99-19.78-2.36-28.83,1.29c1.7,2.1,3.25,4,4.79,5.91
	c0.3-0.16,0.59-0.33,0.89-0.49c0-1.8,0-3.6,0-5.4c0.16-0.05,0.31-0.1,0.47-0.16C147.57,425.75,148.96,428.86,150.35,431.98z
	 M367.9,49.97c-0.62-3.83-5.44-8.78-9.36-9.55c-4.43-0.87-10.66,2.05-13.2,6.54c2.82,1.02,5.49,2.52,8.31,2.91
	c5.42,0.73,5.81,0.18,6.03-5.13C361.89,47.5,362.91,51.98,367.9,49.97z M373.17,419.72c3.33-0.74,3.75-3,2.97-6.02
	c1.01,0.96,1.8,1.71,2.57,2.44c5.23-4.84,3.91-12.67-2.4-16.48C370.52,405.54,371.39,412.53,373.17,419.72z M366.55,63.45
	c-3.8,5.56-3.98,13.08-0.51,16.94c2.7-3.36,5.39-6.69,8.08-10.03c1.31-1.62,0.91-2.97-0.84-3.85
	C371.1,65.42,368.85,64.49,366.55,63.45z M116.24,432.2c-1.88-4.23-5.24-6.62-8.6-8.81c-1.91-1.25-4.44-1.56-6.66-2.29
	c-0.88,3.71-0.03,7.25,2.68,9.61C107.42,433.98,111.7,433.34,116.24,432.2z"/>
</svg>
