<?xml version="1.0" encoding="utf-8"?>
<!-- Generator: Adobe Illustrator 25.1.0, SVG Export Plug-In . SVG Version: 6.00 Build 0)  -->
<svg version="1.1" id="Layer_1" xmlns="http://www.w3.org/2000/svg" xmlns:xlink="http://www.w3.org/1999/xlink" x="0px" y="0px"
	 viewBox="0 0 480 720" style="enable-background:new 0 0 480 720;" xml:space="preserve">
<style type="text/css">
	.st0{opacity:0.8;}
	.st1{fill:#DA2E28;}
	.st2{fill:#CD3F34;}
</style>
<g class="st0">
	<path class="st1" d="M409.08,495.6c1.44,0.61,3.02,0.51,4.53,1.09c3.66,1.41,7.1,3.27,10.7,4.79c3.27,1.39,3.69,3.82,1.35,6.48
		c-1.04,1.18-2.03,2.27-1.15,4.26c0.58,1.31-0.17,2.96-1.43,4.11c1.46,1.08,1.57,2.53,1.15,4.28c-0.46,1.94-1.48,3.74-1.39,5.81
		c-0.33-0.16,0.14,1.12-0.67,0.35c-0.15-0.14-0.71,0.66-0.35,1.26c0,0,0.04,0.04,0.04,0.04c-0.56-0.05-0.37,0.36-0.4,0.64
		c-0.84-0.12-1.72,0.19-2.63-0.21c0.52,0.44,1.71,0.47,0.8,1.51c0.21,0.04,0.41,0.09,0.62,0.13c0.2,0.03,0.4,0.05,0.59,0.08
		c-0.4,0.55,0.28,0.64,0.4,0.97c-0.71-0.02-0.61,0.62-0.63,0.96c-0.04,0.92-0.61,0.96-1.38,0.97c1.05,0.53,1.4,1.41,1.54,2.48
		c0.39-1.47,0.71-2.92,0.44-4.43c0.44,0,0.68-0.14,0.41-0.61c0.66,0.68,0.99,3.32,0.34,3.93c-0.54,0.5-0.59,1.04-0.35,1.49
		c0.73,1.34,0.09,2.98,1.08,4.33c0.32,0.44-0.33,1.57-0.52,2.38c-1.25,5.34-3.88,10.23-5.06,15.61c-0.26,1.21-0.88,2.41-1.39,3.57
		c-0.76,1.71-0.48,3.26-0.08,4.9c0.87,3.63,0.67,7.37,1.09,11.05c0.14,1.28-0.06,2.6,0.27,3.86c0.4,1.53-0.25,2.73-1.33,3.57
		c-1.12,0.87-2.48,0.94-3.8,0.14c-1.33-0.81-1.73-2.02-1.59-3.46c0.14-1.54,0.97-2.87,1.41-4.31c0.72-2.33,0.08-4.69,0.25-7.03
		c0.23-3.15,1.13-6.2,1.19-9.37c0.05-2.62-0.31-3.16-2.87-3.53c-0.17-0.02-0.34-0.03-0.5-0.05c-4.09-0.3-4.22-0.24-3.37,3.62
		c0.61,2.76-0.15,5.36-0.5,8.02c-0.2,1.51-1.69,1.53-2.76,1.8c-1.04,0.27-0.93-0.91-1.24-1.48c-0.72-1.32-0.65-2.63-0.12-4.05
		c0.78-2.1,0.58-4.37,0.35-6.51c-0.13-1.21-1.53-1.74-3.01-1.81c-4.2-0.22-8.39,0.44-12.58,0.09c-0.95-0.08-1.88-0.3-2.82-0.46
		c-2.15-0.35-3.04,0.25-3.06,2.4c-0.06,4.61-0.04,9.23,0.06,13.84c0.02,0.98-0.2,1.89-0.28,2.83c-0.48,5.47,0.65,10.88,0.57,16.34
		c0,0.17,0,0.37,0.09,0.49c1.91,2.57,1.04,5.28,0.26,7.9c-1.68,5.64-1.51,11.34-0.9,17.08c0.18,1.68,0.32,3.37,0.38,5.05
		c0.05,1.46-0.07,2.89-0.66,4.29c-0.77,1.81-2,2.88-3.46,2.42c-1.46-0.46-2.57-1.31-1.47-3.09c-1.14-3.68,0.65-7.36-0.01-11.04
		c-0.04-0.22,0.01-0.45,0.01-0.67c0.16-0.24,0.32-0.47,0.76-1.11c0,1.93,0,3.42,0,4.9c0.16-0.01,0.33-0.02,0.49-0.03
		c-0.17-2.16,0.25-4.34-0.55-6.47c-0.25-3-0.48-6,0.02-9c0.36-2.16,0.86-4.3-0.76-6.27c-0.63-0.76-0.44-1.85-0.27-2.79
		c0.51-2.87,1-5.76,1.64-8.6c0.53-2.34,0.53-4.7,0.53-7.05c0.01-6.36,0.37-12.72-0.12-19.08c-0.09-1.19-0.68-2.11-1.04-3.16
		c-0.28-0.8-1.09-0.24-1.64-0.43c-0.52-0.18-0.63,0.28-0.65,0.71c-0.03,0.5-0.02,1.22-0.64,1.2c-0.82-0.03-0.5-0.85-0.57-1.35
		c-0.05-0.34-0.03-0.69-0.51-0.84c0,1.61,0.01,3.21,0,4.82c-0.01,0.66,0.1,1.58-0.89,1.42c-0.72-0.12-0.83-0.89-0.67-1.65
		c0.29-1.36,0.48-2.71,0.13-4.14c-0.2-0.81-0.61-1.26-1.25-1.28c-0.9-0.02-0.55,0.78-0.53,1.28c0.04,1.45,0.13,2.91,0.14,4.36
		c0.01,0.65,0.23,1.38-0.42,1.89c-0.22,0.17-0.47,0.09-0.6-0.09c-0.4-0.58-0.13-1.21-0.01-1.79c0.31-1.56,0.4-3.07,0-4.66
		c-0.31-1.23-1.21-0.74-1.87-0.85c-0.89-0.15-0.81,0.64-0.78,1.15c0.14,2.97,0.29,5.95,0.52,8.91c0.17,2.19,0.44,4.34-0.95,6.32
		c-0.69,0.98-0.18,2.2-0.27,3.31c-0.07,0.86-0.03,1.85-1.22,1.82c-1.06-0.03-1.35-0.92-1.35-1.82c0.02-2.34-0.57-4.71,1.09-6.9
		c1.02-1.34,1.1-3.13,0.99-4.86c-0.16-2.64-0.21-5.28-0.29-7.93c-0.02-0.67-0.22-1.42-0.9-1.34c-0.66,0.08-0.18,0.82-0.2,1.28
		c-0.01,0.27-0.07,0.55-0.14,0.82c-0.07,0.3-0.27,0.52-0.59,0.49c-0.41-0.03-0.3-0.36-0.33-0.63c-0.13-1-0.31-1.99-0.43-2.99
		c-0.14-1.19-0.73-2.17-1.69-2.76c-2.25-1.4-3.36-3.52-4.21-5.91c-0.47-1.31-1.12-2.56-1.9-3.74c-0.29-0.44-0.84-1.09-0.15-1.65
		c0.51-0.41,1.09-0.9,1.8-0.3c0.44,0.37,0.86,0.34,1.1-0.16c0.57-1.2,1.48-2.02,2.43-2.93c1.04-1,1.5-2.74,1.88-4.24
		c0.34-1.32-0.2-2.91,1.61-3.6c0.28-0.11,0.52-0.61,0.2-1.16c-1.17-2.07-0.82-3.19,0.91-4.87c2.71-2.62,5.32-5.34,8.17-7.82
		c0.56-0.49,0.85-1.63,0.29-2.44c-0.7-1.02,0.06-1.53,0.67-1.52c1.67,0.02,1.22-0.8,0.89-1.71c-0.38-1.04-1.27-1.49-2.16-1.94
		c-0.8-0.4-1.38-0.91-1.21-1.93c0.19-1.18-1.17-2.49,0.32-3.56c-1.73-1.87,0.82-3.34,0.48-5.09c-0.15-0.76,0.73-1.41,0.34-2.23
		c0.1-0.12,0.2-0.23,0.3-0.35c0.1-0.04,0.21-0.06,0.32-0.07c1.17,0.26,1.18-1.57,2.36-1.31c0.31,0.48,0.68,0.36,1.07,0.1
		c-0.04,0.58,0.78,0.44,0.81,0.96c-0.08,0.02-0.13,0.07-0.13,0.15c-0.18-0.11-0.24-0.03-0.25,0.15c0.08,0.79,0.02,1.55-0.1,2.35
		c-0.12,0.79-0.36,2.07,0.88,2.19c0.69,0.07,1.25,0.06,1.82,0.52c0.17,0.14,0.22,0.68,0.65,0.43c0.35-0.21,0.3-0.55,0.21-0.89
		c-0.23-0.9-0.2-1.83,0.53-2.45c1.36-1.16,1.36-2.42-0.02-3.34c-0.26-0.17-1.19-0.39-0.61-1.17c0.59-0.78-0.24-0.96-0.57-0.93
		c-1.55,0.15-3.19-0.01-4.58,0.94c-1.08,0.17-1.84,1.19-3.02,1.11c-0.01,0-0.05,0.3-0.08,0.45c-0.77,0.87-1.48,0.7-2.31-0.01
		c-0.67-0.57-1.49-1-2.28-1.41c-0.55-0.28-1.06-0.49-0.65-1.22c0.35-0.64,0.97-0.66,1.43-0.31c1.15,0.84,1.49,0.27,1.81-0.79
		c0.42-1.37,1.63-1.76,2.69-1.17c2.04,1.13,3.79,0.07,5.66-0.31c2.24-0.46,4.48-0.85,6.55,0.6c1.66,1.16,3.26,1.88,5.51,1.83
		c1.49-0.04,3.25,0.24,4.87,0.51c1.22,0.21,2.45,0.43,3.68,0.25c1.94-0.27,3.34,0.92,4.88,1.73c0.69,0.36,0.62,0.94,0.14,1.5
		c-0.34-0.27-0.75-0.43-0.91,0.1c-0.11,0.36,0.3,0.35,0.57,0.35c-0.24,0.39-0.13,0.94,0.29,0.67c1.3-0.86,2.19,0.09,3.22,0.5
		c-0.15,0.3-0.4,0.59-0.42,0.9c-0.05,1.22-0.74,2.01-1.82,2.12c-0.99,0.1-1.11-1.69-2.37-1.46c0.61-0.93-0.58-1.32-0.42-2.2
		c-0.52,0.64-0.98,1.06-1.26,1.59c-0.26,0.49,0.33,0.75,0.56,1.1c0.03,0.1,0.02,0.2-0.03,0.29c-0.21,0.02-0.42,0.03-0.63,0.05
		c-0.85,0.01-1.79,0.48-1.97,1.06c-0.45,1.48-1.63,2.16-2.61,3.11c-0.77,0.75-1.4,1.6-2.5-0.15c0.08,1.39,0.04,3.01-0.69,2.91
		c-2.04-0.28-2.44,1.78-3.88,2.2c-0.5,0.15-1.02-0.01-1.47,0.07c-1.22,0.21-2.43-0.62-3.61,0.03c-1.14,0.62-1.96,1.45-1.91,2.9
		c0.01,0.4-0.35,0.82-0.51,1.23c-0.33,0.86-1.09,1.16-1.85,1.23c-0.96,0.09-0.74-0.64-0.68-1.25c0.02-0.23-0.34-0.6-0.58-0.28
		c-0.48,0.66-0.94,0.2-1.4,0.09c-0.5-0.12-0.8,0-0.6,0.54c0.66,1.84,0.48,3.67-0.16,5.55c1.1-0.15,1.03-0.97,1.13-1.57
		c0.09-0.54,0.35-0.85,0.81-0.92c0.52-0.08,0.76,0.39,1.02,0.76c0.32,0.46,0.19,0.98,0.21,1.48c0.04,1.36,1.03,2.63,0.99,3.75
		c-0.04,1.17,0.29,1.7,1.06,2.01c1.51,0.61,2.56,1.72,3.47,2.93c1.67,2.21,3.67,4.29,3.53,7.4c-0.03,0.56,0.24,1.27,0.61,1.69
		c1.7,1.95,3.43,3.87,5.26,5.69c0.52,0.51,1.01,1.87,2.22,0.74c0.09-0.08,0.55,0.11,0.74,0.29c0.63,0.57,1.41,0.11,2.09,0.33
		c0.14,0.05,0.44-0.1,0.55-0.25c0.15-0.2,0.02-0.45-0.19-0.55c-0.47-0.23-1.21-0.22-0.94-1.06c0.27-0.87,1.1-0.73,1.84-0.93
		c-0.64,0.6,0.01,1.21-0.18,1.83c-0.4,1.25,0.76,2.61,2.02,2.33c0.71-0.16,1.25-0.51,1.77,0.35c0.15,0.25,0.82-0.42,0.71-0.43
		c-1.08-0.12,1.43-2.41-0.96-1.58c-0.17,0.06-0.26-0.23-0.14-0.33c0.67-0.55,0.18-1.07-0.13-1.44c-0.35-0.42-0.42-0.68,0.08-0.88
		c0.34-0.13,0.8-0.57,1.08,0.14c0.71,1.78,2.52,2.86,3.02,4.78c0.05,0.21,0.24,0.38,0.68,0.28c0.41-4.19-2-7.76-2.68-11.84
		c-0.43,0.97-1.18,0.87-1.86,0.76c-0.3-0.05-0.34-0.41-0.14-0.68c0.31-0.42-0.16-1.6,1.08-1.11c0,0,0.02-0.07,0.02-0.07l-0.07,0.04
		c-0.1-0.84,1.09-1,1.01-1.71c-0.16-1.33,0.62-2.47,1.44-2.82c1.96-0.83,2-2.55,2.19-4.04c0.31-2.41,1.95-4.66,0.92-7.27
		c-0.16-0.41,0.68-1.53,0.8-1.42c0.77,0.77,1.68-0.25,2.43,0.35c-0.73-1.2-1.73-2.04-2.88-2.72c-1.34-0.8-3.32-1.49-3.43-2.96
		c-0.14-2.07-1.2-2.97-2.67-3.83c0.94-0.18,1.43-1.13,2.33-1.38c0.1-0.01,0.2-0.03,0.3-0.07c0.49-0.11,0.5-0.62,0.75-0.9
		c0.76-0.87,0.64-3.16,2.96-1.74c-0.9-0.82-1.46-1.77-2.81-1.33c-0.51,0.17-0.92-0.63-1.38-0.98c0.77-0.55,0.79-2.02,2.2-1.78
		c0,0,0.02,0.01,0.02,0.01c0.1,0.16,0.2,0.16,0.32,0.02c0.1,0.03,0.21,0.03,0.31,0C408.61,495.44,408.84,495.52,409.08,495.6z
		 M414.45,502.13c-0.7-0.49-1.42-0.81-2.32-0.54c-1.79,0.53-3.6,1.02-5.84,1.64c1.9,0.25,3.42-0.85,4.85,0.1
		c0.62-0.02,0.22,1.04,1.02,0.91c0.91-0.15,1.74-0.25,2.56,0.63c0.59,0.64,1.65,0.18,2.01-0.62c0.35-0.77-0.38-1.13-1.03-1.16
		C415,503.07,414.96,502.32,414.45,502.13z M385.04,493.35c0.13,0.23,0.34,0.49,0.56,0.27c0.26-0.27-0.1-0.4-0.29-0.53
		c-0.27-0.71-0.74-1.41-1.5-1.36c-0.76,0.06-0.94,0.89-1.3,1.52c-0.71,1.26,0.12,2.87-1.12,4.01c-0.34,0.32-0.7,0.84-0.97,1.32
		c-0.2,0.36-0.26,0.82,0.11,1.06c0.39,0.26,0.62-0.05,0.91-0.39c1.33-1.51,1.84-3.4,2.55-5.2
		C384.18,493.57,384.19,492.85,385.04,493.35z M391.24,552.39c0.65-0.27,1.35-0.57,1.72-0.17c0.99,1.07,2.23,0.84,3.41,0.88
		c1.91,0.07,3.83-0.02,5.74,0.07c1.21,0.06,1.91-0.84,2.85-1.28c0.4-0.19,0.22-0.31,0.07-0.59c-0.99-1.87-3.05-2.05-4.28-0.35
		c-0.75-0.86-0.82-0.92-1.03-0.65c-0.93,1.16-2.12,0.53-3.22,0.52c-0.53,0-0.65-0.28-0.66-0.74c0-0.71,0.44-0.42,0.78-0.37
		c0.6,0.09,0.88-0.27,0.84-0.77c-0.05-0.62-0.66-0.45-0.92-0.32c-0.99,0.5-2.4-1-3.12,0.67c-0.02,0.04-0.13,0.1-0.13,0.09
		c-0.32-0.39-0.61-0.84-1.22-0.47c-0.55,0.34,0.81,0.44,0.09,1.11C391.73,550.42,391.01,551.31,391.24,552.39z M423.3,505.79
		c-0.88,0.71-1.6,0.13-2.35,0.13c-0.53,0-0.99,0.19-1.28,0.65c-0.19,0.31,0.06,0.67,0.26,0.68c1.27,0.05,2.12,1.25,3.36,1.36
		C423.3,507.69,423.3,506.92,423.3,505.79z M395.38,494.8c-0.57,0.66-1.34,1.21-1.2,2.22c0.01,0.1,0.74,0.27,0.85,0.15
		C395.62,496.5,395.99,495.73,395.38,494.8z M418.92,531.91c-0.07,0.11-0.15,0.19-0.13,0.22c0.05,0.09,0.12,0.18,0.21,0.23
		c0.03,0.02,0.13-0.08,0.2-0.12C419.11,532.14,419.02,532.03,418.92,531.91z M402.52,494.24c0.04-0.04,0.07-0.07,0.1-0.11
		c-0.07-0.03-0.14-0.08-0.21-0.09c-0.03-0.01-0.07,0.06-0.1,0.09C402.38,494.17,402.45,494.21,402.52,494.24z M373.51,509.44
		c-0.04-0.07-0.08-0.14-0.12-0.22c-0.04,0.04-0.11,0.08-0.11,0.11c0.02,0.08,0.07,0.15,0.11,0.23
		C373.43,509.52,373.46,509.48,373.51,509.44z"/>
	<path class="st1" d="M356.63,474.66c0.18-0.97-0.02-1.99-0.46-3c-0.24-0.55-0.48-1.22-0.41-1.79c0.48-3.79-1.51-6.94-2.59-10.33
		c-0.37-1.18-0.8-2.34-1.11-3.54c-0.34-1.33-0.34-2.64,0.46-3.89c0.67-1.05,0.9-1.97-0.47-2.94c-1.24-0.87-1.76-2.45-2.16-3.92
		c-0.8-2.93-0.98-5.9-0.43-8.9c0.34-1.87,1.76-3.18,3.52-3.28c1.66-0.1,3.69,1.24,4.02,2.96c0.56,2.96,1.86,5.65,2.73,8.49
		c0.28,0.89,0.57,1.67-0.29,2.62c-0.54,0.6-1.24,1.95,0.48,2.57c0.74,0.27,0.7,1.23,1.01,1.87c1.22,2.56,2.5,5.07,1.6,8.14
		c-0.63,2.16,0.19,3.52,2.12,4.7c0.6,0.37,0.93,0.96,1.31,1.51c0.77,1.11,1.41,2.33,2.32,3.31c1.6,1.73,2.06,3.9,2.25,6.04
		c0.2,2.31-0.85,4.45-2.03,6.43c-0.68,1.14-1.81,0.95-2.75,0.41c-0.37-0.21-0.88-0.8-1.07-0.49c-0.31,0.5-0.76,1.12-0.49,1.83
		c0.31,0.79,1.21,1.68-0.03,2.3c-1.17,0.58-2.13-0.05-2.94-0.99c-1.92-2.23-3.73-4.49-4.38-7.48
		C356.67,476.45,356.62,475.63,356.63,474.66z"/>
	<path class="st1" d="M410.14,483.57c0,0.9,0.07,1.81-0.03,2.69c-0.06,0.56-0.41,1.07-1.11,1.08c-0.73,0-0.76-0.63-0.8-1.09
		c-0.18-2.03-0.33-4.06-0.03-6.09c0.14-0.93,0.07-1.49-1.15-1.74c-1.81-0.37-2.96-3.15-2.32-5.25c1.06-3.45,3.58-5.82,6.39-7.78
		c1.12-0.78,0.76-1.29,0.14-1.65c-0.82-0.47-0.87-1.07-0.85-1.81c0.06-2.96-0.83-5.94,0.23-8.88c0.57-1.6,0.81-3.33,2.65-4.22
		c0.68-0.33,1.24-1.26,0.06-1.97c-0.13-0.08-0.18-0.27-0.26-0.42c-1.19-2.28-0.08-8.06,1.75-9.93c0.72-0.73,1.38-0.34,2.05-0.32
		c2.03,0.05,3.46,2,3.17,3.97c-0.25,1.66-0.62,3.31-0.46,5.02c0.09,1.01-0.15,2.01-0.48,2.98c-0.42,1.22-0.94,2.42,0.44,3.48
		c0.53,0.41,0.22,1.16,0.17,1.77c-0.37,4.82-0.98,9.6-2.52,14.21c-0.1,0.31-0.26,0.74-0.13,0.97c1.56,2.86,0.26,5.74,0.11,8.6
		c-0.05,0.95-0.21,1.9-0.36,2.84c-0.06,0.38-0.14,0.83-0.63,0.87c-0.44,0.04-0.44-0.41-0.6-0.69c-0.19-0.33,0.11-1.12-0.63-0.91
		c-0.5,0.14-0.35,0.76-0.37,1.19c-0.04,0.9-0.08,1.8-0.13,2.7c-0.03,0.55-0.22,1.05-0.83,1.1c-0.65,0.05-0.85-0.45-0.89-1
		c-0.05-0.67-0.08-1.34-0.07-2.01c0.02-1.1-0.7-1.52-1.6-1.57c-1.06-0.06-0.74,0.92-0.83,1.47c-0.12,0.77-0.03,1.57-0.03,2.36
		C410.17,483.57,410.16,483.57,410.14,483.57z M416.88,442.07c-0.02-0.39-0.06-0.89-0.56-0.8c-0.6,0.11-0.83,0.68-0.87,1.24
		c-0.02,0.25-0.01,0.83,0.42,0.68C416.35,443.04,416.92,442.78,416.88,442.07z"/>
	<path class="st1" d="M395.22,445.5c0.72,0.23,0.9-0.62,1.47-0.46c1.16,2.19-0.66,6.76-2.65,8.31c-0.57,0.45-1.51,0.42-2.27,0.62
		c-1.06,0.28-1.65,0.86-1.6,2.07c0.03,0.7-0.31,1.4-1.22,1.14c-0.64-0.18-1.08-0.44-0.74-1.43c0.41-1.2-0.75-2.18-1.09-3.31
		c-0.94-3.16-2.13-6.26-1.79-9.66c0.11-1.04,0.2-2.25,0.98-2.79c2.02-1.37,1.51-3.11,1.06-4.9c-0.65-2.58-0.75-4.99,1.66-6.83
		c0.42-0.32,0.37-0.91,0.4-1.42c0.07-1.41,0.75-2.29,2.19-2.54c2.12-0.37,3.68,0.09,4.27,1.4c0.62,1.37,1.02,2.71,0.82,4.36
		c-0.39,3.2-1.25,6.36-1.28,9.55C395.41,441.56,395.13,443.55,395.22,445.5z"/>
	<path class="st1" d="M454.42,468.91c-0.4,2.55-1.52,5.53-3.6,8.04c-1.41,1.7-2.78,3.37-3.41,5.53c-0.57,1.93-2.76,2.49-4.35,2.27
		c-0.84-0.12-1.13,0.33-1.27,0.63c-0.57,1.19-1.37,2.01-2.69,2.29c-0.11,0.02-0.3,0.09-0.29,0.13c0.14,1.79-2.41,1.63-2.48,3.66
		c-0.04,1.1-1.44,2.39-1.91,3.78c-0.34,1.02-0.95,1.94-0.65,3.12c0.2,0.82,0.19,1.96-0.72,2.19c-1.09,0.28-2.44,0.68-3.39-0.44
		c-1.45-1.7-2.19-3.47-0.57-5.49c0.65-0.81,1.04-1.78,1.2-2.87c0.19-1.24,1.21-2.08,2.34-2.25c2.58-0.39,3.81-2.36,4.56-4.29
		c0.82-2.11,1.52-4.14,3.14-5.8c0.77-0.79,1.74-1.17,2.65-1.65c1.28-0.67,1.33-1.47,0.93-2.72c-1.18-3.71-0.32-7.05,2.11-10.02
		c1.32-1.61,2.85-2.74,5.11-1.91C453.42,463.98,454.35,465.39,454.42,468.91z"/>
	<path class="st1" d="M318.82,512.48c4.2,0.21,7.11,1.66,8.96,5.33c0.69,1.37,1.66,2.71,2.43,4.11c0.82,1.49,2.47,1.88,3.88,2.53
		c2.11,0.97,4.18,1.95,5.27,4.2c0.29,0.59,0.64,1.16,0.9,1.76c0.16,0.36,0.75,0.76,0.23,1.13c-0.42,0.3-1.09,0.65-1.57,0.23
		c-1.68-1.5-3.92-1.98-5.87-2.59c-2.2-0.69-4.49-1.52-6.91-1.71c-2.92-0.23-5.78-0.91-8.01-3.04c-2.05-1.96-4.27-3.72-6.47-5.51
		c-1.15-0.93-1.25-3.56,0-4.18C314.03,513.57,316.61,513.03,318.82,512.48z"/>
	<path class="st1" d="M388.02,460.64c-0.3,1.35,0.06,2.66,0.18,3.99c0.08,0.94,1.05,1.72,1.56,1.54c0.86-0.29,1.92-0.97,1.95-2.11
		c0.02-0.56,0.21-0.91,0.46-1.33c0.37-0.61,0.76-1.56,1.42-1.39c0.59,0.16,0.84,1.05,0.88,1.91c0.07,1.36,0.15,2.74,0.69,4.07
		c0.62,1.53-1.73,5.38-3.32,5.72c-0.45,0.1-0.86-0.06-0.99-0.44c-0.42-1.18-1.07-1.21-2.16-0.79c-1.61,0.62-2.71-0.46-3.34-1.69
		c-0.83-1.62-0.98-3.44-0.45-5.23c0.24-0.8,0.63-1.56,0.85-2.37C386.05,461.4,386.57,460.6,388.02,460.64z"/>
	<path class="st1" d="M388.21,580.99c-0.7-0.05-1.48-0.3-1.46-1.29c0.01-0.86,0.66-1.24,1.5-1.23c0.89,0.01,1.55,0.37,1.58,1.34
		C389.85,580.76,389.17,580.99,388.21,580.99z"/>
	<path class="st1" d="M372.64,582.21c0.75,0.03,1.34,0.3,1.33,1.15c-0.01,0.89-0.62,1.25-1.42,1.3c-0.87,0.05-1.19-0.52-1.19-1.27
		C371.34,582.59,371.82,582.19,372.64,582.21z"/>
	<path class="st1" d="M370.49,491.56c0.03-0.16,0.06-0.45,0.08-0.45c1.18,0.09,1.94-0.94,3.02-1.11c0.1,0.33,0.19,0.66,0.29,0.98
		c-1.18-0.26-1.18,1.57-2.36,1.31c0.06-0.18,0.32-0.47,0.01-0.52c-0.39-0.07-0.32,0.33-0.33,0.59c-0.1,0.12-0.2,0.23-0.3,0.35
		C370.76,492.33,370.63,491.94,370.49,491.56z"/>
	<path class="st1" d="M409.08,495.6c-0.24-0.08-0.47-0.16-0.71-0.23C408.66,495.27,408.91,495.32,409.08,495.6z"/>
	<path class="st1" d="M408.06,495.36c-0.12,0.14-0.23,0.14-0.32-0.02C407.85,495.28,407.96,495.29,408.06,495.36z"/>
	<path class="st1" d="M414.45,502.13c-0.75,1.38-2.23,0.72-3.31,1.19c-1.43-0.94-2.95,0.16-4.85-0.1c2.24-0.63,4.05-1.11,5.84-1.64
		C413.03,501.32,413.75,501.64,414.45,502.13z"/>
	<path class="st1" d="M423.3,505.79c0,1.13,0,1.9,0,2.83c-1.24-0.11-2.09-1.31-3.36-1.36c-0.2-0.01-0.45-0.38-0.26-0.68
		c0.28-0.47,0.74-0.66,1.28-0.65C421.7,505.92,422.42,506.49,423.3,505.79z"/>
	<path class="st1" d="M395.38,494.8c0.61,0.93,0.24,1.7-0.35,2.37c-0.11,0.12-0.83-0.05-0.85-0.15
		C394.05,496.02,394.81,495.47,395.38,494.8z"/>
	<path class="st1" d="M374.95,491.09c0.74-1.12,1.25,0.05,1.45,0.34c0.41,0.59-0.18,0.65-0.65,0.62
		C375.72,491.52,374.91,491.66,374.95,491.09z"/>
	<path class="st1" d="M418.92,531.91c0.1,0.12,0.19,0.23,0.28,0.34c-0.07,0.04-0.17,0.14-0.2,0.12c-0.09-0.05-0.16-0.14-0.21-0.23
		C418.77,532.1,418.85,532.02,418.92,531.91z"/>
	<path class="st1" d="M399.91,496.4c0.06-0.14,0.13-0.29,0.19-0.43c0.04,0.02,0.09,0.04,0.1,0.07c0.1,0.32-0.03,0.53-0.32,0.65
		C399.93,496.6,399.94,496.5,399.91,496.4z"/>
	<path class="st1" d="M420.25,530.15c0.19-0.27,0.44-0.3,0.73-0.19c-0.05,0.09-0.09,0.18-0.14,0.28
		C420.64,530.2,420.44,530.18,420.25,530.15z"/>
	<path class="st1" d="M402.12,493.19c-0.27,0-0.68,0.01-0.57-0.35c0.16-0.52,0.57-0.37,0.91-0.1
		C402.35,492.89,402.24,493.04,402.12,493.19z"/>
	<path class="st1" d="M385.31,493.08c0.19,0.13,0.56,0.26,0.29,0.53c-0.22,0.22-0.44-0.03-0.56-0.27
		C385.13,493.26,385.22,493.17,385.31,493.08z"/>
	<path class="st1" d="M375.62,492.2c-0.03,0.13-0.11,0.18-0.25,0.15C375.38,492.17,375.44,492.08,375.62,492.2z"/>
	<path class="st1" d="M405.69,502.14c0.06-0.19,0.13-0.36,0.3-0.07C405.89,502.1,405.79,502.13,405.69,502.14z"/>
	<path class="st1" d="M402.52,494.24c-0.07-0.04-0.14-0.07-0.21-0.11c0.03-0.03,0.07-0.1,0.1-0.09c0.07,0.01,0.14,0.06,0.21,0.09
		C402.59,494.17,402.56,494.2,402.52,494.24z"/>
	<path class="st1" d="M373.51,509.44c-0.05,0.05-0.08,0.08-0.12,0.12c-0.04-0.08-0.09-0.15-0.11-0.23
		c-0.01-0.03,0.07-0.07,0.11-0.11C373.43,509.29,373.47,509.36,373.51,509.44z"/>
	<polygon class="st1" points="403.55,529.94 403.61,529.89 403.59,529.96 	"/>
	<path class="st1" d="M416.88,442.07c0.04,0.71-0.54,0.97-1,1.12c-0.44,0.14-0.44-0.43-0.42-0.68c0.04-0.55,0.27-1.13,0.87-1.24
		C416.82,441.19,416.87,441.69,416.88,442.07z"/>
	<path class="st1" d="M401.62,500.77c0.11,0.11,0.23,0.23,0.34,0.34c0,0,0.01-0.01,0.01-0.01
		C401.85,500.99,401.74,500.87,401.62,500.77C401.63,500.76,401.62,500.77,401.62,500.77z"/>
</g>
<g class="st0">
	<path class="st1" d="M65.23,301.65c-1.5,0.64-3.15,0.53-4.73,1.14c-3.82,1.47-7.41,3.41-11.17,5c-3.42,1.45-3.86,3.99-1.41,6.77
		c1.09,1.23,2.12,2.37,1.2,4.45c-0.6,1.37,0.17,3.09,1.49,4.3c-1.52,1.13-1.64,2.64-1.2,4.47c0.48,2.02,1.55,3.91,1.45,6.07
		c0.34-0.17-0.15,1.17,0.69,0.37c0.15-0.15,0.74,0.69,0.37,1.31c0,0-0.05,0.04-0.05,0.04c0.59-0.05,0.39,0.38,0.41,0.67
		c0.88-0.13,1.79,0.2,2.75-0.22c-0.54,0.46-1.78,0.49-0.83,1.58c-0.22,0.05-0.43,0.09-0.65,0.14c-0.21,0.03-0.41,0.06-0.62,0.08
		c0.42,0.57-0.3,0.67-0.42,1.02c0.74-0.02,0.64,0.65,0.65,1c0.04,0.96,0.64,1,1.44,1.01c-1.1,0.56-1.46,1.47-1.61,2.59
		c-0.41-1.54-0.74-3.04-0.46-4.63c-0.46,0-0.71-0.14-0.43-0.64c-0.69,0.71-1.04,3.47-0.35,4.1c0.57,0.52,0.62,1.09,0.36,1.55
		c-0.77,1.4-0.1,3.11-1.13,4.52c-0.33,0.46,0.34,1.64,0.54,2.49c1.3,5.58,4.06,10.69,5.28,16.3c0.28,1.26,0.92,2.52,1.45,3.72
		c0.79,1.78,0.5,3.41,0.09,5.11c-0.91,3.79-0.7,7.69-1.14,11.54c-0.15,1.33,0.07,2.71-0.28,4.03c-0.42,1.59,0.26,2.85,1.39,3.73
		c1.17,0.91,2.59,0.98,3.97,0.15c1.39-0.84,1.8-2.11,1.66-3.61c-0.15-1.61-1.01-2.99-1.48-4.5c-0.75-2.43-0.08-4.9-0.26-7.34
		c-0.24-3.28-1.18-6.47-1.24-9.78c-0.05-2.73,0.32-3.3,2.99-3.69c0.17-0.03,0.35-0.04,0.53-0.05c4.27-0.32,4.41-0.26,3.52,3.79
		c-0.64,2.88,0.15,5.6,0.53,8.37c0.21,1.58,1.77,1.59,2.88,1.88c1.09,0.28,0.97-0.95,1.3-1.55c0.76-1.37,0.67-2.75,0.13-4.23
		c-0.81-2.19-0.6-4.56-0.37-6.79c0.13-1.27,1.6-1.81,3.14-1.89c4.39-0.22,8.76,0.46,13.13,0.09c0.99-0.08,1.96-0.32,2.94-0.48
		c2.24-0.36,3.17,0.27,3.2,2.51c0.07,4.82,0.04,9.64-0.06,14.45c-0.02,1.02,0.21,1.97,0.3,2.96c0.5,5.71-0.67,11.36-0.59,17.06
		c0,0.17,0,0.39-0.1,0.51c-1.99,2.69-1.09,5.51-0.27,8.25c1.76,5.88,1.57,11.84,0.94,17.83c-0.19,1.75-0.33,3.51-0.39,5.27
		c-0.05,1.52,0.07,3.02,0.69,4.48c0.8,1.89,2.09,3.01,3.62,2.52c1.53-0.48,2.68-1.37,1.53-3.23c1.19-3.84-0.68-7.69,0.01-11.53
		c0.04-0.23-0.01-0.47-0.01-0.7c-0.17-0.25-0.34-0.49-0.79-1.15c0,2.02,0,3.57,0,5.12c-0.17-0.01-0.34-0.02-0.52-0.03
		c0.17-2.25-0.26-4.53,0.57-6.75c0.26-3.13,0.5-6.27-0.03-9.39c-0.38-2.26-0.9-4.49,0.79-6.54c0.65-0.8,0.45-1.93,0.28-2.91
		c-0.54-3-1.04-6.01-1.71-8.98c-0.55-2.44-0.55-4.91-0.56-7.36c-0.01-6.64-0.39-13.28,0.12-19.92c0.09-1.24,0.71-2.21,1.09-3.29
		c0.29-0.84,1.14-0.25,1.71-0.45c0.55-0.18,0.65,0.29,0.68,0.74c0.03,0.53,0.02,1.27,0.67,1.25c0.85-0.03,0.52-0.88,0.59-1.41
		c0.05-0.36,0.03-0.72,0.54-0.88c0,1.68-0.01,3.36,0,5.03c0.01,0.69-0.1,1.66,0.93,1.48c0.75-0.13,0.86-0.93,0.69-1.72
		c-0.3-1.42-0.5-2.83-0.14-4.33c0.21-0.85,0.64-1.32,1.31-1.33c0.94-0.02,0.57,0.81,0.56,1.34c-0.04,1.52-0.14,3.04-0.15,4.55
		c-0.01,0.68-0.24,1.44,0.43,1.97c0.23,0.18,0.49,0.09,0.62-0.09c0.42-0.6,0.13-1.26,0.01-1.87c-0.32-1.63-0.42-3.21,0-4.86
		c0.33-1.29,1.27-0.77,1.95-0.89c0.93-0.16,0.84,0.67,0.82,1.2c-0.15,3.1-0.3,6.21-0.55,9.31c-0.18,2.29-0.46,4.53,0.99,6.6
		c0.72,1.03,0.19,2.3,0.29,3.46c0.08,0.9,0.03,1.93,1.28,1.9c1.11-0.03,1.41-0.96,1.41-1.9c-0.02-2.45,0.59-4.92-1.14-7.21
		c-1.06-1.4-1.15-3.27-1.04-5.08c0.16-2.76,0.22-5.52,0.3-8.28c0.02-0.7,0.23-1.48,0.94-1.4c0.69,0.08,0.19,0.86,0.2,1.33
		c0.01,0.29,0.07,0.58,0.14,0.86c0.08,0.31,0.28,0.54,0.62,0.51c0.42-0.03,0.31-0.37,0.34-0.66c0.13-1.04,0.33-2.08,0.45-3.12
		c0.15-1.24,0.77-2.26,1.77-2.89c2.35-1.46,3.51-3.68,4.39-6.17c0.49-1.37,1.17-2.67,1.99-3.91c0.31-0.46,0.88-1.14,0.15-1.72
		c-0.53-0.42-1.14-0.93-1.88-0.31c-0.46,0.39-0.89,0.35-1.14-0.17c-0.6-1.25-1.54-2.1-2.54-3.06c-1.09-1.04-1.57-2.86-1.97-4.43
		c-0.35-1.38,0.2-3.04-1.68-3.76c-0.29-0.11-0.54-0.63-0.21-1.22c1.22-2.16,0.85-3.33-0.95-5.08c-2.83-2.74-5.56-5.57-8.53-8.16
		c-0.59-0.51-0.89-1.71-0.31-2.55c0.73-1.06-0.06-1.59-0.7-1.59c-1.75,0.02-1.28-0.83-0.93-1.79c0.4-1.09,1.32-1.56,2.26-2.03
		c0.83-0.42,1.44-0.95,1.27-2.02c-0.19-1.23,1.22-2.6-0.34-3.71c1.81-1.95-0.86-3.49-0.5-5.32c0.16-0.8-0.77-1.47-0.35-2.33
		c-0.1-0.12-0.21-0.24-0.31-0.36c-0.11-0.04-0.22-0.07-0.34-0.07c-1.22,0.27-1.23-1.64-2.46-1.37c-0.33,0.5-0.71,0.37-1.11,0.11
		c0.04,0.6-0.81,0.45-0.84,1c0.09,0.02,0.13,0.07,0.14,0.16c0.19-0.12,0.25-0.03,0.26,0.15c-0.08,0.82-0.02,1.62,0.1,2.45
		c0.12,0.83,0.37,2.16-0.92,2.29c-0.72,0.07-1.31,0.06-1.9,0.54c-0.18,0.15-0.23,0.71-0.68,0.45c-0.37-0.22-0.31-0.57-0.22-0.93
		c0.24-0.94,0.2-1.91-0.55-2.56c-1.42-1.21-1.42-2.53,0.02-3.48c0.27-0.18,1.25-0.41,0.64-1.22c-0.62-0.82,0.25-1,0.59-0.97
		c1.62,0.16,3.33-0.01,4.79,0.98c1.12,0.17,1.93,1.25,3.16,1.15c0.01,0,0.05,0.31,0.08,0.47c0.81,0.91,1.54,0.73,2.41-0.01
		c0.7-0.6,1.55-1.04,2.38-1.47c0.57-0.29,1.11-0.51,0.68-1.28c-0.37-0.67-1.01-0.69-1.5-0.33c-1.2,0.88-1.55,0.28-1.89-0.83
		c-0.43-1.43-1.7-1.84-2.81-1.23c-2.13,1.18-3.96,0.07-5.91-0.33c-2.34-0.48-4.68-0.88-6.83,0.63c-1.73,1.21-3.41,1.97-5.76,1.91
		c-1.56-0.04-3.39,0.25-5.08,0.54c-1.27,0.22-2.56,0.44-3.84,0.26c-2.03-0.28-3.49,0.96-5.1,1.8c-0.72,0.38-0.65,0.99-0.15,1.56
		c0.36-0.28,0.78-0.45,0.95,0.1c0.12,0.37-0.31,0.36-0.59,0.36c0.25,0.41,0.13,0.98-0.3,0.7c-1.36-0.9-2.29,0.09-3.36,0.52
		c0.15,0.31,0.42,0.62,0.44,0.94c0.05,1.27,0.77,2.1,1.91,2.22c1.03,0.1,1.16-1.76,2.47-1.53c-0.64-0.97,0.61-1.38,0.44-2.29
		c0.54,0.66,1.02,1.11,1.31,1.66c0.27,0.52-0.34,0.78-0.59,1.15c-0.03,0.1-0.02,0.21,0.03,0.3c0.22,0.02,0.44,0.04,0.66,0.05
		c0.89,0.01,1.87,0.5,2.05,1.11c0.47,1.55,1.7,2.26,2.73,3.25c0.81,0.78,1.46,1.67,2.61-0.15c-0.08,1.45-0.04,3.14,0.72,3.04
		c2.13-0.29,2.55,1.86,4.05,2.3c0.53,0.16,1.07-0.01,1.53,0.07c1.27,0.22,2.54-0.64,3.77,0.03c1.19,0.65,2.04,1.51,1.99,3.03
		c-0.01,0.42,0.36,0.85,0.53,1.29c0.34,0.9,1.14,1.22,1.94,1.29c1,0.09,0.77-0.67,0.71-1.31c-0.02-0.24,0.36-0.63,0.6-0.3
		c0.5,0.69,0.98,0.21,1.47,0.09c0.53-0.13,0.83,0,0.63,0.57c-0.69,1.92-0.5,3.83,0.17,5.8c-1.15-0.16-1.08-1.01-1.18-1.63
		c-0.1-0.57-0.37-0.89-0.85-0.96c-0.54-0.08-0.8,0.41-1.07,0.79c-0.34,0.48-0.2,1.02-0.22,1.54c-0.04,1.42-1.07,2.74-1.03,3.92
		c0.05,1.22-0.31,1.77-1.11,2.09c-1.57,0.63-2.67,1.79-3.63,3.06c-1.75,2.31-3.84,4.48-3.69,7.73c0.03,0.59-0.25,1.32-0.63,1.77
		c-1.77,2.03-3.58,4.04-5.5,5.94c-0.54,0.54-1.06,1.96-2.32,0.78c-0.09-0.09-0.57,0.12-0.77,0.3c-0.66,0.6-1.47,0.11-2.18,0.35
		c-0.15,0.05-0.45-0.11-0.57-0.26c-0.16-0.21-0.02-0.47,0.2-0.58c0.49-0.24,1.26-0.23,0.99-1.1c-0.28-0.9-1.15-0.76-1.92-0.98
		c0.67,0.63-0.01,1.27,0.19,1.91c0.41,1.3-0.8,2.72-2.11,2.43c-0.75-0.16-1.31-0.53-1.85,0.37c-0.16,0.26-0.85-0.44-0.74-0.45
		c1.12-0.13-1.49-2.51,1.01-1.65c0.18,0.06,0.27-0.24,0.15-0.35c-0.7-0.58-0.18-1.12,0.14-1.5c0.37-0.43,0.44-0.71-0.09-0.92
		c-0.35-0.14-0.84-0.59-1.13,0.15c-0.74,1.86-2.64,2.99-3.15,5c-0.06,0.22-0.25,0.39-0.71,0.3c-0.43-4.37,2.08-8.1,2.8-12.37
		c0.45,1.01,1.23,0.91,1.94,0.79c0.32-0.05,0.35-0.43,0.14-0.71c-0.32-0.44,0.17-1.68-1.13-1.16c0,0-0.02-0.07-0.02-0.07l0.07,0.04
		c0.1-0.88-1.14-1.05-1.05-1.78c0.17-1.39-0.64-2.58-1.5-2.95c-2.05-0.87-2.09-2.67-2.29-4.22c-0.32-2.52-2.04-4.86-0.96-7.59
		c0.17-0.43-0.71-1.6-0.83-1.48c-0.81,0.81-1.76-0.26-2.53,0.37c0.77-1.25,1.81-2.13,3-2.84c1.4-0.83,3.47-1.55,3.58-3.09
		c0.15-2.16,1.25-3.1,2.79-4c-0.98-0.19-1.5-1.18-2.44-1.44c-0.11-0.01-0.21-0.04-0.31-0.08c-0.52-0.12-0.52-0.64-0.78-0.94
		c-0.79-0.91-0.67-3.3-3.1-1.82c0.94-0.86,1.53-1.85,2.93-1.39c0.54,0.17,0.96-0.66,1.44-1.02c-0.8-0.58-0.82-2.11-2.29-1.86
		c0,0-0.02,0.01-0.02,0.01c-0.1,0.17-0.21,0.17-0.34,0.03c-0.11,0.03-0.21,0.03-0.32,0C65.73,301.49,65.48,301.57,65.23,301.65z
		 M59.63,308.48c0.73-0.51,1.48-0.85,2.42-0.57c1.87,0.56,3.76,1.06,6.1,1.71c-1.99,0.26-3.58-0.89-5.07,0.1
		c-0.64-0.02-0.23,1.08-1.07,0.95c-0.95-0.16-1.82-0.26-2.67,0.66c-0.62,0.67-1.72,0.19-2.1-0.64c-0.37-0.81,0.4-1.18,1.07-1.21
		C59.05,309.45,59.09,308.68,59.63,308.48z M90.34,299.3c-0.13,0.24-0.36,0.51-0.59,0.28c-0.28-0.28,0.1-0.41,0.3-0.55
		c0.29-0.75,0.77-1.48,1.57-1.42c0.79,0.06,0.98,0.93,1.36,1.59c0.74,1.32-0.12,3,1.17,4.19c0.36,0.33,0.73,0.88,1.01,1.37
		c0.21,0.37,0.27,0.85-0.11,1.11c-0.41,0.28-0.64-0.05-0.95-0.41c-1.38-1.58-1.92-3.55-2.66-5.43
		C91.24,299.54,91.22,298.79,90.34,299.3z M83.86,360.95c-0.68-0.28-1.41-0.59-1.79-0.18c-1.03,1.11-2.33,0.88-3.56,0.92
		c-1.99,0.07-4-0.02-5.99,0.08c-1.27,0.06-1.99-0.88-2.97-1.34c-0.42-0.19-0.23-0.32-0.08-0.62c1.03-1.95,3.19-2.14,4.47-0.36
		c0.78-0.9,0.85-0.96,1.08-0.68c0.97,1.21,2.21,0.55,3.36,0.55c0.55,0,0.68-0.3,0.68-0.78c0-0.74-0.46-0.44-0.82-0.39
		c-0.62,0.09-0.92-0.29-0.88-0.8c0.05-0.65,0.69-0.47,0.96-0.34c1.04,0.52,2.51-1.05,3.25,0.7c0.02,0.05,0.13,0.1,0.13,0.1
		c0.33-0.41,0.64-0.88,1.28-0.49c0.58,0.35-0.85,0.46-0.09,1.16C83.35,358.9,84.1,359.83,83.86,360.95z M50.39,312.29
		c0.92,0.74,1.67,0.14,2.45,0.14c0.56,0,1.04,0.2,1.33,0.68c0.19,0.32-0.06,0.7-0.27,0.71c-1.33,0.05-2.22,1.31-3.51,1.42
		C50.39,314.28,50.39,313.48,50.39,312.29z M79.54,300.83c0.6,0.69,1.39,1.27,1.25,2.31c-0.01,0.1-0.77,0.28-0.88,0.16
		C79.28,302.6,78.9,301.8,79.54,300.83z M54.96,339.57c0.07,0.12,0.16,0.2,0.14,0.23c-0.05,0.1-0.13,0.19-0.22,0.24
		c-0.03,0.02-0.14-0.08-0.21-0.13C54.76,339.81,54.86,339.7,54.96,339.57z M72.08,300.24c-0.04-0.04-0.07-0.08-0.11-0.11
		c0.07-0.03,0.14-0.08,0.22-0.09c0.03-0.01,0.07,0.06,0.11,0.1C72.23,300.17,72.16,300.21,72.08,300.24z M102.38,316.11
		c0.04-0.07,0.08-0.15,0.13-0.23c0.04,0.04,0.12,0.09,0.11,0.12c-0.02,0.08-0.07,0.16-0.11,0.24
		C102.46,316.19,102.42,316.15,102.38,316.11z"/>
	<path class="st1" d="M120,279.8c-0.19-1.01,0.02-2.08,0.48-3.13c0.25-0.58,0.5-1.27,0.42-1.87c-0.5-3.96,1.58-7.25,2.7-10.79
		c0.39-1.23,0.84-2.44,1.16-3.69c0.36-1.39,0.35-2.76-0.48-4.06c-0.7-1.1-0.94-2.06,0.49-3.07c1.29-0.91,1.84-2.56,2.25-4.1
		c0.83-3.06,1.03-6.16,0.45-9.29c-0.36-1.95-1.84-3.32-3.68-3.43c-1.73-0.1-3.86,1.29-4.2,3.09c-0.58,3.09-1.94,5.9-2.86,8.86
		c-0.29,0.93-0.59,1.74,0.3,2.73c0.57,0.63,1.29,2.04-0.51,2.69c-0.77,0.28-0.73,1.29-1.05,1.95c-1.27,2.67-2.61,5.29-1.67,8.5
		c0.65,2.25-0.2,3.68-2.22,4.91c-0.63,0.38-0.97,1.01-1.37,1.58c-0.81,1.15-1.47,2.44-2.42,3.46c-1.67,1.81-2.16,4.07-2.34,6.3
		c-0.21,2.41,0.89,4.65,2.12,6.71c0.71,1.19,1.88,0.99,2.88,0.43c0.39-0.22,0.92-0.84,1.12-0.51c0.32,0.52,0.8,1.17,0.51,1.91
		c-0.32,0.82-1.26,1.76,0.04,2.4c1.22,0.61,2.23-0.06,3.07-1.03c2-2.33,3.9-4.69,4.57-7.81C119.96,281.66,120.01,280.8,120,279.8z"
		/>
	<path class="st1" d="M64.12,289.09c0,0.94-0.07,1.89,0.03,2.81c0.06,0.59,0.43,1.12,1.15,1.12c0.76,0,0.79-0.66,0.84-1.14
		c0.19-2.12,0.34-4.24,0.03-6.36c-0.14-0.97-0.07-1.56,1.2-1.81c1.89-0.38,3.1-3.29,2.42-5.48c-1.1-3.6-3.73-6.07-6.67-8.12
		c-1.17-0.82-0.79-1.35-0.15-1.72c0.85-0.49,0.91-1.11,0.89-1.89c-0.07-3.09,0.86-6.2-0.24-9.27c-0.6-1.67-0.84-3.47-2.76-4.4
		c-0.71-0.34-1.29-1.32-0.06-2.06c0.13-0.08,0.19-0.29,0.27-0.44c1.25-2.39,0.09-8.42-1.83-10.37c-0.75-0.76-1.44-0.35-2.14-0.34
		c-2.12,0.05-3.62,2.08-3.31,4.15c0.26,1.73,0.64,3.46,0.48,5.24c-0.1,1.06,0.15,2.1,0.5,3.11c0.44,1.27,0.98,2.53-0.46,3.63
		c-0.55,0.42-0.22,1.21-0.18,1.85c0.39,5.04,1.03,10.02,2.63,14.84c0.11,0.32,0.27,0.77,0.14,1.01c-1.63,2.98-0.27,5.99-0.11,8.98
		c0.05,0.99,0.22,1.98,0.37,2.97c0.06,0.4,0.15,0.87,0.66,0.91c0.46,0.04,0.46-0.43,0.63-0.72c0.2-0.34-0.11-1.17,0.66-0.95
		c0.52,0.14,0.36,0.79,0.38,1.25c0.04,0.94,0.08,1.88,0.13,2.82c0.03,0.57,0.23,1.1,0.86,1.15c0.68,0.06,0.89-0.47,0.93-1.04
		c0.05-0.7,0.09-1.4,0.08-2.1c-0.02-1.15,0.74-1.59,1.67-1.64c1.11-0.06,0.78,0.96,0.86,1.54c0.12,0.8,0.03,1.64,0.03,2.47
		C64.09,289.09,64.11,289.09,64.12,289.09z M57.08,245.76c0.02-0.4,0.07-0.93,0.59-0.83c0.62,0.11,0.87,0.71,0.91,1.29
		c0.02,0.26,0.01,0.86-0.44,0.71C57.64,246.78,57.04,246.5,57.08,245.76z"/>
	<path class="st1" d="M79.71,249.35c-0.75,0.24-0.94-0.64-1.53-0.48c-1.21,2.29,0.69,7.05,2.77,8.67c0.6,0.46,1.57,0.44,2.37,0.65
		c1.1,0.29,1.73,0.9,1.67,2.16c-0.03,0.73,0.33,1.46,1.28,1.19c0.67-0.19,1.13-0.46,0.77-1.5c-0.43-1.25,0.79-2.28,1.14-3.46
		c0.98-3.3,2.23-6.53,1.86-10.09c-0.11-1.08-0.2-2.35-1.03-2.91c-2.11-1.44-1.58-3.24-1.11-5.11c0.68-2.69,0.78-5.21-1.73-7.14
		c-0.43-0.33-0.39-0.95-0.42-1.48c-0.08-1.47-0.79-2.39-2.28-2.65c-2.22-0.38-3.84,0.09-4.46,1.46c-0.64,1.43-1.06,2.83-0.85,4.55
		c0.41,3.34,1.31,6.64,1.33,9.97C79.51,245.23,79.8,247.31,79.71,249.35z"/>
	<path class="st1" d="M17.89,273.79c0.42,2.66,1.58,5.77,3.76,8.39c1.47,1.78,2.9,3.52,3.57,5.78c0.59,2.01,2.88,2.6,4.54,2.37
		c0.88-0.12,1.18,0.34,1.33,0.66c0.6,1.25,1.44,2.1,2.81,2.39c0.11,0.02,0.31,0.1,0.31,0.14c-0.14,1.87,2.51,1.71,2.59,3.82
		c0.04,1.15,1.5,2.5,2,3.95c0.36,1.06,0.99,2.02,0.68,3.26c-0.21,0.86-0.2,2.05,0.75,2.29c1.14,0.29,2.54,0.71,3.54-0.46
		c1.51-1.77,2.29-3.62,0.59-5.74c-0.68-0.84-1.08-1.86-1.25-3c-0.2-1.3-1.27-2.18-2.45-2.35c-2.69-0.41-3.98-2.47-4.76-4.48
		c-0.85-2.2-1.58-4.32-3.28-6.05c-0.81-0.82-1.82-1.22-2.76-1.72c-1.34-0.7-1.39-1.53-0.97-2.84c1.23-3.87,0.33-7.36-2.2-10.46
		c-1.37-1.68-2.97-2.87-5.33-1.99C18.93,268.64,17.96,270.12,17.89,273.79z"/>
	<path class="st1" d="M159.48,319.28c-4.38,0.22-7.42,1.74-9.36,5.57c-0.72,1.43-1.73,2.83-2.54,4.29
		c-0.86,1.55-2.58,1.97-4.05,2.64c-2.2,1.02-4.36,2.04-5.5,4.38c-0.3,0.62-0.66,1.21-0.94,1.84c-0.16,0.37-0.78,0.79-0.24,1.18
		c0.44,0.32,1.14,0.68,1.64,0.24c1.75-1.57,4.1-2.06,6.13-2.7c2.3-0.72,4.69-1.59,7.21-1.79c3.05-0.24,6.03-0.95,8.36-3.18
		c2.14-2.05,4.46-3.89,6.76-5.75c1.2-0.97,1.3-3.72,0-4.37C164.49,320.43,161.79,319.86,159.48,319.28z"/>
	<path class="st1" d="M87.22,265.15c0.32,1.41-0.06,2.78-0.19,4.17c-0.09,0.98-1.1,1.79-1.63,1.61c-0.9-0.31-2.01-1.01-2.04-2.2
		c-0.02-0.59-0.21-0.95-0.48-1.39c-0.38-0.64-0.79-1.63-1.48-1.45c-0.61,0.16-0.88,1.1-0.92,1.99c-0.07,1.42-0.16,2.86-0.72,4.25
		c-0.64,1.6,1.8,5.61,3.46,5.98c0.47,0.1,0.9-0.06,1.04-0.46c0.44-1.24,1.12-1.27,2.26-0.83c1.68,0.65,2.83-0.49,3.48-1.77
		c0.87-1.69,1.02-3.59,0.47-5.46c-0.25-0.84-0.66-1.63-0.89-2.47C89.28,265.94,88.73,265.11,87.22,265.15z"/>
	<path class="st1" d="M87.02,390.82c0.73-0.06,1.54-0.32,1.53-1.35c-0.01-0.9-0.69-1.29-1.56-1.29c-0.93,0.01-1.62,0.39-1.65,1.4
		C85.31,390.58,86.02,390.83,87.02,390.82z"/>
	<path class="st1" d="M103.29,392.1c-0.78,0.03-1.4,0.31-1.39,1.2c0.01,0.93,0.64,1.31,1.49,1.36c0.91,0.06,1.25-0.55,1.25-1.32
		C104.63,392.49,104.14,392.07,103.29,392.1z"/>
	<path class="st1" d="M105.52,297.44c-0.03-0.16-0.06-0.47-0.08-0.47c-1.23,0.09-2.03-0.98-3.16-1.15c-0.1,0.34-0.2,0.69-0.3,1.03
		c1.23-0.27,1.24,1.64,2.46,1.37c-0.06-0.19-0.33-0.49-0.01-0.55c0.4-0.07,0.33,0.35,0.35,0.62c0.1,0.12,0.21,0.24,0.31,0.36
		C105.24,298.24,105.38,297.84,105.52,297.44z"/>
	<path class="st1" d="M65.23,301.65c0.25-0.08,0.5-0.16,0.74-0.24C65.67,301.31,65.41,301.37,65.23,301.65z"/>
	<path class="st1" d="M66.3,301.41c0.12,0.15,0.24,0.15,0.34-0.03C66.52,301.33,66.41,301.34,66.3,301.41z"/>
	<path class="st1" d="M59.63,308.48c0.78,1.44,2.33,0.75,3.45,1.25c1.49-0.99,3.08,0.16,5.07-0.1c-2.34-0.65-4.23-1.16-6.1-1.71
		C61.11,307.63,60.36,307.97,59.63,308.48z"/>
	<path class="st1" d="M50.39,312.29c0,1.18,0,1.98,0,2.96c1.29-0.12,2.18-1.37,3.51-1.42c0.21-0.01,0.47-0.39,0.27-0.71
		c-0.3-0.49-0.78-0.68-1.33-0.68C52.06,312.43,51.3,313.03,50.39,312.29z"/>
	<path class="st1" d="M79.54,300.83c-0.64,0.97-0.25,1.77,0.37,2.47c0.11,0.12,0.87-0.06,0.88-0.16
		C80.93,302.09,80.14,301.52,79.54,300.83z"/>
	<path class="st1" d="M100.87,296.94c-0.78-1.17-1.31,0.05-1.52,0.35c-0.43,0.62,0.19,0.68,0.67,0.65
		C100.06,297.4,100.91,297.55,100.87,296.94z"/>
	<path class="st1" d="M54.96,339.57c-0.11,0.13-0.2,0.24-0.29,0.35c0.07,0.05,0.18,0.15,0.21,0.13c0.09-0.05,0.17-0.15,0.22-0.24
		C55.12,339.77,55.03,339.69,54.96,339.57z"/>
	<path class="st1" d="M74.81,302.5c-0.07-0.15-0.13-0.3-0.2-0.45c-0.04,0.02-0.1,0.04-0.11,0.07c-0.1,0.33,0.03,0.55,0.34,0.68
		C74.79,302.7,74.78,302.6,74.81,302.5z"/>
	<path class="st1" d="M53.57,337.74c-0.2-0.28-0.46-0.31-0.76-0.2c0.05,0.1,0.1,0.19,0.14,0.29
		C53.16,337.79,53.37,337.76,53.57,337.74z"/>
	<path class="st1" d="M72.49,299.14c0.28,0,0.71,0.01,0.59-0.36c-0.17-0.55-0.59-0.38-0.95-0.1
		C72.26,298.83,72.38,298.98,72.49,299.14z"/>
	<path class="st1" d="M90.05,299.03c-0.2,0.14-0.58,0.27-0.3,0.55c0.23,0.23,0.46-0.04,0.59-0.28
		C90.24,299.21,90.15,299.12,90.05,299.03z"/>
	<path class="st1" d="M100.17,298.1c0.03,0.13,0.12,0.18,0.26,0.15C100.42,298.08,100.36,297.99,100.17,298.1z"/>
	<path class="st1" d="M68.77,308.49c-0.06-0.2-0.13-0.37-0.31-0.08C68.56,308.45,68.66,308.48,68.77,308.49z"/>
	<path class="st1" d="M72.08,300.24c0.08-0.04,0.15-0.07,0.22-0.11c-0.04-0.03-0.08-0.1-0.11-0.1c-0.08,0.01-0.15,0.06-0.22,0.09
		C72.01,300.16,72.04,300.2,72.08,300.24z"/>
	<path class="st1" d="M102.38,316.11c0.05,0.05,0.09,0.09,0.13,0.13c0.04-0.08,0.09-0.15,0.11-0.24c0.01-0.03-0.07-0.08-0.11-0.12
		C102.46,315.95,102.42,316.03,102.38,316.11z"/>
	<polygon class="st1" points="71.01,337.51 70.94,337.47 70.97,337.54 	"/>
	<path class="st1" d="M57.08,245.76c-0.04,0.74,0.56,1.01,1.05,1.17c0.45,0.15,0.46-0.45,0.44-0.71c-0.04-0.58-0.28-1.18-0.91-1.29
		C57.15,244.84,57.1,245.36,57.08,245.76z"/>
	<path class="st1" d="M73.03,307.06c-0.12,0.12-0.24,0.24-0.36,0.35c0,0-0.01-0.01-0.01-0.01C72.78,307.28,72.9,307.16,73.03,307.06
		C73.02,307.05,73.03,307.06,73.03,307.06z"/>
</g>
<g class="st0">
	<path class="st1" d="M479.3,1.52c-0.36,1.45-1.74,1.78-2.74,2.54c-0.76,0.57-2.05,1.22-1.68,2.14c1.7,4.26-1.7,2.93-3.35,3.01
		c-4.52,0.21-6.21,1.51-5.73,5.03c0.17,1.27,0.98,2.47,1.04,3.72c0.32,6.17,0.49,12.34,0.15,18.52c-0.04,0.66-0.15,1.3-1.01,1.71
		c-1.81-2.22-2.43-4.95-3.01-7.65c-1-4.65-1.7-9.37-2.81-14c-0.85-3.57-2.08-3.94-4.83-1.56c-3.62,3.12-6.59,6.54-5.11,12
		c0.64,2.38,0.43,4.95-0.03,7.43c-0.12,0.65-0.17,1.39-0.93,1.55c-0.75,0.15-1.11-0.54-1.51-1.03c-3.82-4.66-4.05-10.12-0.75-15.14
		c0.88-1.34,1.73-2.77,2.27-4.27c0.59-1.68-0.06-2.48-1.98-1.91c-7.55,2.23-13.97,14.15-11.41,21.63c1.29,3.76,2.46,7.42,1.08,11.36
		c-0.64,1.83-1.25,3.83-3.46,4.37c-2.32,0.57-3.9-0.82-5.35-2.37c-2.13-2.27-3.07-4.89-2.46-8.04c0.6-3.08,1.35-6.15,1.02-9.33
		c-0.37-3.49-2.42-5.5-5.59-5.62c-2.49-0.09-3.75,1.26-2.76,3.4c2.99,6.44,1.35,13.06,0.92,19.54c-0.66,9.93-2.01,19.82-3.07,29.72
		c-0.2,0.37-0.53,0.72-0.59,1.1c-1.22,8.17-0.67,16.39-0.72,24.6c-0.01,1.12,0.36,2.12,1.14,2.94c1.25,6.06,2.32,12.13,1.03,18.33
		c-0.45,2.17-1.07,4.48-3.57,4.92c-2.63,0.46-4.1-1.59-5.33-3.54c-2.01-3.2-2.92-6.81-2.83-10.52c0.1-4.02-0.2-7.97-0.77-11.93
		c1.15-1.79-0.09-3.56-0.08-5.35c0.07-7.75,0.77-15.46,1.16-23.18c0.44-8.61,0.14-17.27,0.09-25.9c-0.01-1.15-0.37-2.33-1.11-3.31
		c-1.93-7.98-2.16-16.41-6.17-24.58c-2.25,3.69-1.95,7.14-2.12,10.38c-0.26,4.84-1.71,9.87,1.37,14.45
		c0.56,0.83,0.34,1.87-0.22,2.77c-0.79,1.27-0.91,2.59-0.4,4.04c0.49,1.42,0.46,2.93-1,3.75c-1.67,0.94-3.54,1.02-5.31,0.18
		c-0.95-0.45-0.74-1.15-0.15-1.84c1-1.16,2.91-2.06,1.53-4.02c-0.83-1.18-2.23-1.3-3.55-0.97c-1.9,0.47-4.41,1.01-4.24,3.31
		c0.46,6.17-2.04,12.48,1.05,18.54c1.92,3.76,1.07,8.1,1.96,12.11c0.37,1.69-0.72,3.13-2.46,3.77c-2.1,0.77-4.09,0.49-5.73-1.08
		c-1.42-1.36-0.47-2.66,0.14-4.11c1.75-4.1,0.64-8.32,0.09-12.48c-0.14-1.06-0.44-2.14-0.89-3.11c-2-4.32-2.09-8.13,1.06-12.3
		c1.95-2.59,0.77-6.38-0.62-9.24c-3.72-7.67-8.62-14.51-15.49-19.74c-1.98-2.08-4.18-1.86-6.46-0.58c0,0,0.04-0.01,0.04-0.01
		c-3.92,1.89-4.5,5.86-4.49,9.24c0.05,16.07-1.12,32.17,1.01,48.2c0.3,2.29,0.97,4.12,2.64,5.62c0.66,2-0.1,3.36-1.97,4.13
		c-1.72,0.7-3.5,0.65-4.79-0.75c-1.19-1.3-0.76-2.78,0.33-4.05c1.83-0.95,1.98-2.66,1.98-4.43c0.01-5.5,0.1-11.01,0.01-16.51
		c-0.03-2.11,0.55-4.3-0.47-6.34c-0.15-7.6-1.54-15.04-2.95-22.48c-0.61-3.21-2.15-4.22-5.31-3.24c-2.5,0.78-4.36,2.47-5.79,4.51
		c-3.57,5.08-8.41,5.53-13.84,4.1c-3.38-0.89-6.4-2.6-9.5-4.14c-2.54-1.26-4.35-0.75-5.41,1.98c-3.77,9.65-4.7,19.1,1.9,28.04
		c1.28,1.74,1.7,3.73,1.35,5.84c-0.6,3.63-0.43,7.4-1.05,10.92c-0.65,3.76-1.14,7,0.8,10.48c0.74,1.33,0.14,3.02-1.59,3.75
		c-1.77,0.74-3.48,0.49-4.81-0.85c-1.43-1.44-1.93-3.62-0.77-5.07c1.9-2.37,1.45-4.57,0.71-7c-0.64-2.12-0.03-4.04,0.97-5.92
		c2.46-4.61,1.93-8.79-1.37-12.93c-4-5.01-5.54-11.11-5.5-17.33c0.05-7.68-3.01-13.78-7.9-19.27c-0.22-0.59-0.67-0.76-1.25-0.71
		c0,0-0.03-0.01-0.03-0.01c-3.29-1.12-5.48,0.36-5.81,3.92c0,0,0,0.01,0,0.01c-0.4,0.11-1.14,0.17-1.16,0.33
		c-0.53,4.1-3.36,7.37-4.04,11.4c0.49,3.91,0.77,7.87,1.54,11.72c0.87,4.39,0.61,8.75,0.43,13.14c-0.02,0.52,0.25,1.43-0.77,1.36
		c-0.2-0.01-0.36-0.66-0.54-1.01c-0.06-4.15-0.77-8.26-0.87-12.42c-0.05-2.12-0.2-4.76-2.41-6.32c0,0-0.01-0.03-0.01-0.03
		c-0.17-1.17-0.38-2.32-1.82-2.61c0,0-0.11-0.1-0.11-0.1c-1.5-2.66-3.67-2.3-5.69-0.94c-1.98,1.32-2.84,3.32-2.83,5.84
		c0.08,11.96,0.25,23.9,1.21,35.86c0.89,11.04,2.08,22.07,2.15,33.17c0.01,2.09,0.25,4.26,1.2,6.23
		c0.46,13.52,0.52,27.03-0.97,40.51c-0.8,7.22-0.06,14.49-0.25,21.73c-0.1,3.77-0.47,7.53,1.02,11.17c0.49,1.19,0.34,2.56,0.02,3.85
		c-0.6,2.42-1.69,4.33-4.61,3.92c-2.35-0.33-4.5-2.98-3.5-5.31c2.21-5.14,0.4-10.5,1.36-15.39c1.7-8.7-0.22-16.95-0.74-25.38
		c1.36-2.97-0.04-5.92-0.04-8.88c0-23.76-0.18-47.51-1.24-71.25c-0.29-6.46-0.46-12.94-1.52-19.3c-0.68-4.04-0.53-8.46-3.63-11.81
		c-1.81-7.12-2.92-14.43-5.84-21.24c-0.38-0.89-0.75-1.8-1.21-2.65c-3.49-6.35-9.73-6.56-13.7-0.4c-2.82,4.37-2.85,9.46-3.38,14.4
		c-0.28,2.58-0.44,5.18-0.56,7.78c-0.23,5.29-1.82,9.82-5.98,13.49c-4.9,4.32-6.96,9.71-5.03,16.36c1.25,4.32,0.42,8.62-1.24,12.71
		c-1.55,3.81-3.06,7.65-4.99,11.27c-1.74,3.26-2.14,6.49-1.37,10.02c0.74,3.43,0.98,6.87-0.56,10.19c-0.71,1.53-0.37,2.91,0.33,4.34
		c1.29,2.62,2.61,5.23,3.68,7.94c1.14,2.9,0.97,5.88,0.16,8.92c-2.66,9.94-4.93,19.94-3.41,30.37c0.39,2.67,0.44,5.38-0.51,8.03
		c-0.53,1.47-0.33,2.91,0.55,4.34c1.11,1.81,1.28,3.76-0.61,5.24c-1.55,1.21-3.3,1.04-4.85-0.03c-1.93-1.33-2.17-3.31-1.08-5.17
		c1.93-3.3,1.71-6.75,1.57-10.37c-0.35-9.27-1.45-18.54,1.3-27.76c1.38-4.63-0.07-9.45-1.24-14.09c-1.53-6.07-3.64-12.05-3.31-18.45
		c0.17-3.19,1.19-6.12,2.75-8.91c7.44-13.34,7.58-27.25,3.07-41.48c-0.81-2.54-2.1-4.95-5.09-5.34c-3.87-0.51-6.13,2.09-8.21,4.82
		c-2.17,1.53-1.46,3.71-1,5.6c1.87,7.75,2.26,15.51,0.45,23.31c-1.25,5.39-1.88,10.75-0.83,16.3c0.78,4.12,1.48,8.42,0.63,12.53
		c-1.13,5.41-2.28,10.74-1.82,16.3c0.08,0.99-0.39,1.09-1.16,0.77c-2.45-7.83-0.57-15.88-1.11-23.82
		c-0.48-6.91-0.65-13.81-2.08-20.61c-1.21-5.77-0.95-11.63-0.94-17.46c0.01-6.64-1.17-12.79-5.5-18.21
		c-2.34-2.92-3.97-6.42-5.82-9.71c-2.45-4.35-6.6-5.68-11.63-3.6c-4.42,1.83-5.47,4.35-3.81,9.75c0.78,2.53,1.26,5.02,0.6,7.64
		c-0.74,0.96-0.45,2.09-0.41,3.13c0.18,4.74,0.65,9.47,0.61,14.2c-0.09,10.57,0.1,21.13-0.44,31.71
		c-0.6,11.64-0.14,23.34-0.12,35.01c0,1.03-0.37,2.19,0.64,3.03c0,0-0.01-0.02-0.01-0.02c-0.01,2.38-0.03,4.77-0.02,7.15
		c0,0.29-0.09,1.09,0.59,0.41c0.17-0.17,0.08-0.61,0.1-0.93c0.8,6.31,1.52,12.63,2.99,18.85c0.65,2.74-0.22,5.37-1.54,7.78
		c-0.98,1.8-2.02,3.58-3.2,5.25c-3,4.25-3.57,8.55-1.27,13.39c1.3,2.73,2.59,5.83-0.11,8.68c-1.5-0.25-3.01-0.51-4.51-0.76
		c0,0-0.16-0.16-0.16-0.16c-1.35-2.58-2.19-5.52-1.14-8.13c1.76-4.37,1.09-8.79,0.94-13.14c-0.1-2.63,0.4-4.87,1.46-7.08
		c1.95-4.08,2.79-8.28,2.66-12.85c-0.24-8.23-0.08-16.47-0.07-24.71c0.01-10.95-0.55-21.93,0.22-32.83
		c0.74-10.46-0.16-20.62-2.05-30.84c-1.19-6.45-2.82-12.96-1.98-19.56c0.74-5.88,0.97-11.59-1.42-17.12
		c-1.43-3.3-1.55-7.22-4.56-9.79c0,0,0.01,0.02,0.01,0.02c0.07-0.59-0.05-1.08-0.69-1.3c0,0,0.01,0.01,0.01,0.01
		c0.12-1.04,0.1-1.99-1.34-1.96c-0.53-0.53-1.07-1.05-1.59-1.59c-6.67-6.93-14.95-6.3-20.24,1.73c-4.05,6.16-4.69,12.98-2.49,19.93
		c1.4,4.41,2.7,8.7,0.87,13.26c-0.31,0.78-0.39,1.72-1.56,2.33c-1.3-1.48-1.74-3.28-1.56-5.2c0.49-5.34-0.28-10.35-3.35-14.89
		c-1.14-1.68-0.25-4.02-2.07-5.62c-3.37-2.98-7.14-4.54-11.6-3.86c-8.26,1.26-14.28,7.8-14.73,16.17
		c-0.26,4.84-0.48,9.73,1.63,14.37c0.68,1.5,0.91,3.37-0.98,4.25c-1.74,0.82-3.4,0.24-4.59-1.34c-1.28-1.7-1.2-3.65-0.94-5.6
		c1.64-12.72,2.15-25.47,0.79-38.25c-0.6-5.61-1.65-11.14-3.39-16.51c-0.24-0.75-0.3-1.89-1.45-1.87c-0.84,0.01-1.21,0.84-1.6,1.48
		c-1.69,2.77-3.16,5.69-5.06,8.3c-2.22,3.06-3.9,2.96-5.99-0.12c-1.64-2.41-3.07-4.97-4.6-7.46c-1.96-3.21-4.69-3.55-7.41-0.89
		c-2.12,2.07-2.92,4.81-3.39,7.58c-0.69,4.06-0.93,8.16-0.39,12.3c0.43,3.26,0.07,6.5-1.01,9.61c-0.85,2.43-2.12,4.6-4.99,4.97
		c-2.97,0.39-5.27-0.77-6.81-3.36c-1.07-2.92-1.5-5.91-1.32-9.03c0.15-2.67,0.34-5.41-0.07-8.03c-0.47-3.05-0.03-6.44-2.52-8.95
		c-1.35-1.56-2.17-4.33-4.8-3.51c-2.49,0.78-2.65,3.48-2.9,5.74c-0.42,3.73,1.07,7.24,1.47,10.88c0.06,0.53,0.29,1.05,0.32,1.59
		c0.08,2,0.67,4.77-1.99,5.02c-2.43,0.23-2.91-2.45-3.24-4.5c-0.38-2.37-0.13-4.75,0.28-7.1c0.76-4.33,0.51-8.62-0.6-12.86
		c-1.09-4.15-9.31-9.13-13.51-8.21c-2.27,0.49-3.17,2.84-1.97,5.49c0.62,1.37,1.64,2.6,1.41,4.22c-0.31,2.14-1,4.29-3.5,4.4
		c-2.56,0.12-3.77-1.81-4.21-4.12c-0.27-1.41-0.01-2.82,0.51-4.14c1.53-3.86,0.73-6.93-2.88-9.17c-0.54-0.34-0.97-0.86-1.44-1.3
		C159.32,1.52,319.31,1.52,479.3,1.52z"/>
	<path class="st2" d="M150.82,38.62c3.01,2.56,3.13,6.49,4.56,9.79c2.39,5.53,2.16,11.25,1.42,17.12
		c-0.84,6.6,0.79,13.11,1.98,19.56c1.89,10.22,2.79,20.38,2.05,30.84c-0.77,10.89-0.21,21.88-0.22,32.83
		c-0.01,8.24-0.17,16.48,0.07,24.71c0.13,4.57-0.71,8.77-2.66,12.85c-1.06,2.22-1.55,4.45-1.46,7.08c0.16,4.35,0.82,8.77-0.94,13.14
		c-1.05,2.61-0.2,5.55,1.14,8.13c-1.75-1.27-2.31-3.11-2.2-5.13c0.09-1.72,0.79-3.46,0.62-5.13c-0.91-8.74,1.08-16.92,4.2-24.97
		c0.6-1.54,0.43-3.42,0.44-5.14c0.14-22.75,0.14-45.51,0.42-68.26c0.12-10.3-2.48-20.18-3.86-30.24c-0.54-3.89-1.07-7.89-0.25-11.65
		c1.82-8.44-1.55-15.7-4.32-23.17C151.52,40.18,151.15,39.41,150.82,38.62z"/>
	<path class="st2" d="M193.92,143.97c0.77,0.32,1.24,0.22,1.16-0.77c-0.45-5.55,0.7-10.89,1.82-16.3c0.86-4.11,0.16-8.41-0.63-12.53
		c-1.05-5.55-0.42-10.91,0.83-16.3c1.81-7.8,1.42-15.56-0.45-23.31c-0.46-1.89-1.17-4.07,1-5.6c-0.87,2.2-0.72,4.35-0.14,6.65
		c1.95,7.69,2.17,15.51,0.18,23.16c-1.55,5.95-1.41,11.77-0.43,17.69c0.8,4.87,0.69,9.62-0.55,14.47
		c-2.12,8.26-0.79,16.57,0.59,24.78c0.73,4.31,0.85,8.86,3.52,12.71c0.67,0.97,0.52,2.39-0.69,3.18c-1.5,0.98-3.09,0.86-4.63,0.05
		c-1.2-0.63-1.99-1.86-1.39-2.95C198.71,160.52,195.39,152.26,193.92,143.97z"/>
	<path class="st2" d="M256.4,54.87c3.1,3.34,2.96,7.77,3.63,11.81c1.06,6.37,1.23,12.84,1.52,19.3c1.06,23.74,1.24,47.49,1.24,71.25
		c0,2.96,1.4,5.91,0.04,8.88c-1.19-12.53-0.81-25.1-1.08-37.65c-0.42-19.81,0.07-39.65-2.16-59.39
		C259.04,64.21,257.91,59.5,256.4,54.87z"/>
	<path class="st2" d="M270.49,131c-0.95-1.97-1.19-4.14-1.2-6.23c-0.07-11.1-1.27-22.14-2.15-33.17
		c-0.96-11.95-1.13-23.89-1.21-35.86c-0.02-2.52,0.85-4.52,2.83-5.84c2.03-1.36,4.19-1.72,5.69,0.94c-4.3-2.22-7.66-0.29-7.79,4.71
		c-0.28,10.6,0.3,21.19,1.01,31.76C268.64,101.88,270.07,116.4,270.49,131z"/>
	<path class="st1" d="M70.23,33.41c0.16-2.03,0.6-3.98,1.57-5.99c1.98,4.83,2.97,9.65,3.37,14.6c0.09,1.16-0.02,2.37-0.19,3.53
		c-0.19,1.26-0.36,2.73-1.98,2.95c-1.51,0.2-2.36-0.76-2.77-2.14C70.24,42.03,70.24,37.72,70.23,33.41z"/>
	<path class="st1" d="M207.76,234.02c0.95,3.06,2.69,5.36,3.2,8.17c0.27,1.5,0.4,2.98,0,4.48c-0.45,1.68-0.77,3.69-3.03,3.56
		c-2.23-0.13-2.88-2.07-3.17-3.93C204.09,242.02,205.78,238.26,207.76,234.02z"/>
	<path class="st2" d="M163.91,155.03c-1.01-0.84-0.64-2-0.64-3.03c-0.02-11.67-0.48-23.37,0.12-35.01
		c0.54-10.58,0.35-21.14,0.44-31.71c0.04-4.73-0.43-9.47-0.61-14.2c-0.04-1.04-0.33-2.17,0.41-3.13
		c1.83,19.95,0.76,39.92,0.44,59.88c-0.13,8.33,0.09,16.66,0.12,24.99C164.19,153.55,164,154.29,163.91,155.03z"/>
	<path class="st1" d="M207.65,258.79c1.12,2.34,2.81,3.95,3.36,6.22c0.47,1.94,0.17,3.72-1.35,5.05c-0.98,0.86-2.24,0.78-3.33,0.05
		c-1.67-1.12-1.83-2.82-1.66-4.63C204.92,262.99,206.53,261.17,207.65,258.79z"/>
	<path class="st2" d="M404.66,46.41c0.74,0.98,1.1,2.16,1.11,3.31c0.05,8.63,0.35,17.29-0.09,25.9c-0.39,7.73-1.09,15.43-1.16,23.18
		c-0.02,1.79,1.22,3.56,0.08,5.35c-1.11-9.41-0.37-18.82,0.14-28.22C405.25,66.09,405.81,56.25,404.66,46.41z"/>
	<path class="st2" d="M356.26,88.7c-1.68-1.5-2.34-3.33-2.64-5.62c-2.13-16.04-0.96-32.14-1.01-48.2c-0.01-3.38,0.56-7.35,4.49-9.24
		c-2.81,2.89-3.81,6.54-3.88,10.37c-0.29,15.48-0.16,30.95,0.72,46.42C354.06,84.9,355.8,86.51,356.26,88.7z"/>
	<path class="st2" d="M7.32,22.09c1.66,1.61,2.22,3.55,2.75,5.51c0.34,1.26,0.09,2.37-0.97,3.18c-0.86,0.67-1.83,0.56-2.76,0.13
		c-1.33-0.62-1.42-1.8-1.24-3.03C5.4,25.83,6.23,23.98,7.32,22.09z"/>
	<path class="st2" d="M123.45,77.22c1.79,1.77,2.49,3.9,2.78,6.1c0.22,1.69-0.61,3-2.55,2.92c-1.82-0.08-2.8-1.26-2.55-3.01
		C121.41,81.15,122.06,79.12,123.45,77.22z"/>
	<path class="st2" d="M8.05,40.12c1.38,1.89,4.01,3.25,1.98,5.96c-0.97,1.29-2.67,1.19-3.63-0.06C4.5,43.56,6.58,41.99,8.05,40.12z"
		/>
	<path class="st2" d="M167.05,196.1c1.41,1.64,2.31,3.23,2.15,5.27c-0.09,1.2-0.65,2.19-1.86,2.25c-1.24,0.07-1.89-0.97-2.06-2.09
		C164.99,199.55,165.78,197.86,167.05,196.1z"/>
	<path class="st2" d="M207.8,306.12c0.86,1.62,1.58,2.69,2.03,3.87c0.44,1.16,0.2,2.35-0.81,3.2c-0.65,0.54-1.38,0.46-2.08,0
		c-1.06-0.7-1.11-1.74-1.03-2.84C206,308.89,206.88,307.8,207.8,306.12z"/>
	<path class="st2" d="M279.02,47.11c0.68-4.03,3.51-7.3,4.04-11.4c0.02-0.16,0.76-0.22,1.16-0.33c-0.95,2.59-1.84,5.21-2.9,7.76
		c-0.32,0.78-0.35,1,0.45,1.37c1.11,0.52,2.23,1.53,1.28,2.73c-0.89,1.13-2.24,1.2-2.97-0.54
		C280.08,46.69,279.39,46.97,279.02,47.11z"/>
	<path class="st2" d="M36.41,19.09c2.49,2.51,2.04,5.91,2.52,8.95c0.41,2.62,0.22,5.36,0.07,8.03c-0.18,3.12,0.25,6.11,1.32,9.03
		c-1.95-1.91-2.03-4.37-2.05-6.87C38.21,31.8,38.64,25.31,36.41,19.09z"/>
	<path class="st2" d="M393.94,64.05c-1.29-0.13-2.93-0.12-2.94-1.51c-0.01-1.89,1.82-2.21,3.35-2.26c1.29-0.04,3.01,0.18,2.97,1.77
		C397.27,64.09,395.26,63.78,393.94,64.05z"/>
	<path class="st2" d="M416.06,106.89c-0.78-0.83-1.15-1.82-1.14-2.94c0.05-8.2-0.5-16.43,0.72-24.6c0.06-0.39,0.39-0.74,0.59-1.1
		c-0.34,7.94-1.09,15.87-0.57,23.84C415.76,103.69,415.92,105.29,416.06,106.89z"/>
	<path class="st2" d="M207.74,345.85c1.24,1.7,2.19,3.21,1.9,5.19c-0.14,0.92-0.48,1.72-1.47,1.84c-1.19,0.14-1.74-0.71-1.96-1.71
		C205.79,349.25,206.62,347.63,207.74,345.85z"/>
	<path class="st2" d="M276.39,53.57c2.21,1.56,2.35,4.2,2.41,6.32c0.1,4.17,0.82,8.27,0.87,12.42c-1.07-2.64-1.58-5.42-1.58-8.24
		C278.08,60.47,277.6,56.97,276.39,53.57z"/>
	<path class="st2" d="M351.36,60.74c1.02,2.05,0.44,4.23,0.47,6.34c0.08,5.5,0,11-0.01,16.51c0,1.77-0.15,3.48-1.98,4.43
		c0.98-1.61,1.26-3.34,1.27-5.23C351.11,75.44,351.26,68.09,351.36,60.74z"/>
	<path class="st2" d="M449.25,37.49c1.31,1.9,2.3,3.44,0.99,5.28c-0.43,0.61-1.17,0.65-1.63,0.04
		C447.27,41.05,448.18,39.45,449.25,37.49z"/>
	<path class="st2" d="M70.23,33.41c0,4.31,0.01,8.62,0.01,12.94C68.4,42.04,69.38,37.72,70.23,33.41z"/>
	<path class="st2" d="M125.37,93.75c-0.08,0.8-0.3,1.49-1.28,1.53c-0.91,0.04-1.45-0.47-1.5-1.33c-0.06-0.91,0.37-1.94,1.23-2.01
		C124.68,91.88,125.07,92.93,125.37,93.75z"/>
	<path class="st2" d="M374.69,44.32c0.05,1.01-0.38,1.53-1.28,1.58c-0.87,0.05-1.47-0.39-1.51-1.27c-0.04-0.9,0.42-1.88,1.23-1.95
		C373.99,42.62,374.48,43.56,374.69,44.32z"/>
	<path class="st2" d="M177.76,74.23c0.05,1.12-0.36,1.72-1.25,1.73c-0.83,0.01-1.48-0.49-1.46-1.36c0.02-0.86,0.36-1.9,1.28-1.95
		C177.29,72.6,177.47,73.71,177.76,74.23z"/>
	<path class="st2" d="M478.19,5.26c0.85,1.21,1.72,2.42,0.64,3.8c-0.39,0.5-0.94,0.32-1.4-0.06C475.38,7.33,478.3,6.59,478.19,5.26z
		"/>
	<path class="st2" d="M284.22,35.37c0.33-3.56,2.52-5.04,5.81-3.92C286.91,31,285.77,33.49,284.22,35.37z"/>
	<path class="st2" d="M164.58,161.65c-0.03,0.32,0.07,0.76-0.1,0.93c-0.68,0.67-0.59-0.12-0.59-0.41c-0.02-2.38,0.01-4.77,0.02-7.15
		C165.07,157.13,164.48,159.43,164.58,161.65z"/>
	<path class="st2" d="M357.05,25.66c2.29-1.28,4.48-1.51,6.46,0.58C361.41,25.4,359.32,24.54,357.05,25.66z"/>
	<path class="st2" d="M156.93,214.84c1.5,0.25,3.01,0.51,4.51,0.76C159.68,216.83,158.23,216.28,156.93,214.84z"/>
	<path class="st2" d="M274.56,50.94c1.44,0.29,1.65,1.43,1.82,2.61C275.77,52.68,275.16,51.81,274.56,50.94z"/>
	<path class="st2" d="M148.81,35.39c1.45-0.03,1.46,0.92,1.34,1.96C149.7,36.7,149.25,36.04,148.81,35.39z"/>
	<path class="st2" d="M150.14,37.34c0.63,0.22,0.76,0.71,0.69,1.3C150.39,38.32,150.11,37.91,150.14,37.34z"/>
	<path class="st2" d="M290.05,31.45c0.58-0.05,1.03,0.12,1.25,0.71C290.88,31.92,290.47,31.69,290.05,31.45z"/>
</g>
</svg>
