<?xml version="1.0" encoding="utf-8"?>
<!-- Generator: Adobe Illustrator 25.1.0, SVG Export Plug-In . SVG Version: 6.00 Build 0)  -->
<svg version="1.1" id="Layer_1" xmlns="http://www.w3.org/2000/svg" xmlns:xlink="http://www.w3.org/1999/xlink" x="0px" y="0px"
	 viewBox="0 0 480 480" style="enable-background:new 0 0 480 480;" xml:space="preserve">
<style type="text/css">
	.st0{fill:#3E2976;}
	.st1{fill:#EC569F;}
	.st2{fill:#EA93BE;}
	.st3{fill:#D1479A;}
	.st4{fill:#3C2062;}
	.st5{fill:#010101;}
</style>
<g>
	<path class="st0" d="M392.47,218.3c-0.26,10.43-1.95,18.9-6.02,26.78c-0.7,1.35-1.14,2.4-0.2,4.09
		c9.31,16.63,3.37,39.22-12.92,49.59c-7.88,5.01-16.54,7.73-25.81,8.55c-1.5,0.13-2.59,0.33-3.27,1.91
		c-7.94,18.48-23.16,25.47-42.1,26.58c-4.08,0.24-8.11-0.31-12.15-0.62c-1.17-0.09-2.22-0.12-3.29,0.64
		c-15.16,10.9-31.18,10.2-47.45,3.07c-3.16-1.38-5.52-1.26-8.7-0.16c-19,6.61-36.05,2.68-51.03-10.48c-1.94-1.7-3.62-2.28-6.15-1.95
		c-19.37,2.48-42.37-5.35-49.45-31.77c-0.38-1.42-0.92-2.5-2.22-3.32c-28.04-17.64-28.96-46.62-16.96-70.67
		c1.12-2.25,1.28-4.1,0.64-6.5c-5.34-20.06,0.53-41.17,20.67-53.1c1.12-0.66,2-1.39,2.48-2.73c7.29-20.33,22.56-29.96,43.36-31.1
		c6.52-0.36,11.4-1.65,16.88-5.84c14.3-10.93,30.51-11.81,47.01-4.68c2.21,0.96,3.81,1.09,6.01-0.17
		c18.8-10.76,41.14-7.39,56.26,8.5c1.67,1.75,3.01,2.11,5.35,1.63c15.57-3.19,29.34,1.25,41.84,10.43
		c10.86,7.98,16.14,18.88,16.08,32.29c-0.01,2.78,0.81,4.23,3.35,5.54C383,184.23,392.05,199.45,392.47,218.3z M153.11,140.23
		l0.03-0.03c-0.57,0.1-1.15,0.2-1.41,0.83c-0.99,0.76-1.98,1.53-2.98,2.28c-4.85,3.69-8.55,8.29-10.97,13.89
		c-0.43,0.99-1.33,2.65,0.25,2.82c2.32,0.25,4.91,0.93,7.1-0.79c0.34,0.18,0.69,0.36,1.03,0.55c1.22,1.68,3.23,1.34,4.89,1.88
		c0,0,0.02-0.01,0.02-0.01c-2.24,1.83-5.54-0.32-7.65,2.02c-1.83,0.13-3.94-0.29-5.44,0.48c-4.59,2.34-9.21,4.62-13.32,7.91
		c-10.2,8.16-15.19,23.96-11.95,35.47c0.44,5.43,2,10.35,6.28,14.06c3.35,3.95,7.95,5.82,12.59,7.64c3.74,2.53,7.68,1.61,11.61,0.65
		c2.17-0.65,4.33-1.3,6.5-1.94c0.82-0.24,1.79-0.86,2.11,0.62c-1.21,0.91-2.02,2.31-3.54,2.85c-5.24,1.92-10.46,3.38-16.21,2.13
		c-3.67-0.79-6.83-2.83-10.48-3.53c-1.88-0.44-2.93-2.2-4.67-2.87c-1.26-1.37-2.53-2.74-3.95-4.29c-1.09,1.99-1.96,3.57-2.83,5.16
		c-1.04,0.35-0.86,1.24-0.91,2.04l0.04-0.03c-2.1,2.38-3.06,5.08-2.27,8.25c-0.1,0.35-0.19,0.7-0.29,1.05
		c-2.85,5.31-1.77,10.87-1.08,16.41c0.45,0.89,0.9,1.79,1.36,2.68c1.93,10.52,8.32,17.9,16.76,23.85c0.32,0.65,0.84,0.77,1.48,0.56
		c0.98-0.94,0.56-2.16,0.67-3.28c0.28-2.68,1.08-5.13,3.07-7.06c-0.56,5.76,0.32,11.36,1.31,16.82c0.73,4.07,1.52,8.47,4.83,11.62
		c5.64,9.9,14.47,15.11,25.37,17.25c4.16,1.51,8.33,1.39,12.51,0.07c0.97-0.51,1.65-1.04,0.99-2.34c-1.5-2.94-1.99-6.21-2.87-9.36
		c-0.04-1.16-0.08-2.32-0.11-3.48c0.01-1.61,0.01-3.21,0.02-4.82c-0.11-1.71,1.86-4.23-0.94-4.9c-2.62-0.63-4.88-1.86-7.12-3.06
		c-5.31-2.84-7.67-9.99-5.01-14.28c1.18,5.41,4.77,8.77,9.62,10.87c4.7,2.03,4.73,1.92,7.23-2.49c0.68-1.19,1.41-2.35,2.12-3.52
		c1.14-0.97,2.28-1.93,3.42-2.9c0.65-0.56,1.36-0.92,2.19-0.41c1.2,0.72,0.17,1.52-0.14,2.02c-3.52,5.55-5.16,11.73-6.3,18.1
		c-0.06-0.33-0.04-0.71-0.2-0.99c-0.22-0.39-0.53-0.33-0.53,0.14c0.03,3.15,0.08,6.29,0.13,9.44c0.16-0.07,0.34-0.12,0.48-0.23
		c0.07-0.06,0.08-0.21,0.11-0.31c2.45,12.65,10.8,19.97,22.17,24.56c4.35,2.73,9.4,2.56,14.21,3.37c-0.81,0.35-1.88-0.35-2.59,0.6
		c2.8,0,5.53,0,8.27,0c0.01-0.12,0.02-0.25,0.03-0.37c-0.65-0.08-1.29-0.15-1.94-0.23c4.06-0.82,8.24-1.06,12.06-2.93
		c1.29-0.63,2.2-1.18,1.3-2.81c-1.5-2.74-1.43-5.79-1.5-8.79c0.08-0.22,0.16-0.45,0.25-0.67c0.44,0.41,0.89,0.83,1.33,1.24l0.05,0.1
		c1.49,4.13,4.52,6.86,8.16,9.08c5.92,3.63,12.53,5.31,19.19,6.85c-0.21,0.09-0.42,0.17-0.61,0.29c-0.04,0.03-0.01,0.19-0.01,0.28
		c4.52-0.11,9.2,1.43,13.49-1.26c0.09-0.18,0.17-0.36,0.23-0.56c15.8-4.22,22.43-14.84,20.66-31.72c2.43,2.23,2.61,4.26,3.45,5.95
		c0.24,0.76,0.48,1.52,0.73,2.28c0.07,0.37,0.14,0.74,0.21,1.11c-0.26,2.74-0.2,5.48-0.77,8.23c-0.48,2.31-3.83,4.47-1.75,6.55
		c1.59,1.6,4.82,0.53,7.31,0.54c7.91,0.02,15.59-1.12,22.49-5.39c12.15-6.44,20.48-24.9,16.7-37.06c-0.11,0-0.26-0.05-0.31,0.01
		c-0.73,0.72-1.49,1.43-2.17,2.2c-4.94,5.59-10.94,6.88-17.88,4.46c-0.65-0.23-1.34-0.31-2.01-0.46c1.01-1.32,2.57-0.81,3.86-1.07
		c8.35-1.68,14.1-6.5,17.58-14.17c2.02-3.22,3.06-6.78,3.64-10.51c2.82-15.06-1.53-27.07-14.37-35.1c-3.91-2.44-3.95-2.4-4.75,2
		c-0.23,1.24-0.37,2.5-0.56,3.76c-1.35,4.4-2.79,8.79-6.1,12.18c-3.4,3.48-7.09,6.52-12.4,6.33c1.7-0.79,3.12-1.97,4.44-3.28
		c7.74-7.73,10.19-17.43,10.11-27.94c-0.1-14.55-6.05-31.66-26.92-37.01c-5.19-2.66-10.4-2.39-15.61-0.09l0-0.04
		c-0.6,0.02-1.14,0.17-1.41,0.78c-0.17,2.42-0.34,4.83-0.52,7.25c-0.29,0.87-0.57,1.75-0.88,2.62c-1.65,4.71-4.08,8.82-8.76,11.17
		c-0.63,0.32-1.21,0.85-1.67-0.18c0.21-0.29,0.41-0.59,0.62-0.88l-0.03,0.07c1.15-0.69,1.52-1.95,2.21-2.98
		c2.41-3.58,2.5-7.92,3.9-11.83c1.44-3.58,2.63-7.16-0.08-10.71c-0.2-0.65-0.44-1.3-0.58-1.97c-2.01-9.39-6.74-16.88-15.08-21.94
		c-4.44-2.69-9.37-3.84-14.37-4.84c0.24-0.18,0.47-0.36,0.71-0.54c-0.06-0.07-0.12-0.2-0.18-0.2c-3.18,0-6.36-0.06-9.53,0.11
		c-0.36,0.02,0.34,0.48,0.64,0.66c-2.03,0.41-4.09,0.7-6.09,1.24c-13.64,3.66-23.08,12.07-28.33,25.18c-1.2-1.23-0.97-2.82-0.71-4.2
		c0.48-2.65,1.29-5.25,1.96-7.86l-0.07,0.09c0.63-0.28,0.73-0.85,0.79-1.44c1.44-3.11,4.44-4.84,6.53-7.38
		c1.04-0.72,2-1.59,3.13-2.12c3.58-1.68,3.21-4.31,1.83-7.17c-2.28-4.74-6.25-7.63-10.95-9.59c-8.43-3.52-17.24-4.88-26.34-4.41
		c-5.53-1.34-10.56-0.19-15.17,3.05l0.06-0.05c-1.25-0.17-2.36-0.03-2.89,1.35l0.04-0.03C153.95,139.57,153.37,139.61,153.11,140.23
		z M359.72,227.37c0.08-0.65-0.03-1.21-0.75-1.46c-3.45-5.97-7.72-11.15-13.91-14.47c-1-2.21-3.6-1.53-5.53-3.07
		c3.45,0,6.49,0,9.52,0c1.98,0.38,3.82,1.24,5.24,2.56c1.66,1.54,2.93,1.15,4.58,0.09c2.54-1.64,4.54-3.89,7.22-6.09
		c0,1.15,0,1.91,0,2.68c-0.45,0.39-0.53,0.88-0.42,1.43c-0.07,0.25-0.15,0.49-0.22,0.74c-1.29,1.75-2.13,3.88-4.01,5.11
		c-1.72,1.13-1.42,2.18-0.41,3.65c3.42,4.99,6.22,10.41,7.12,16.37c0.68,4.49,3.1,6.57,6.94,7.8c0.32,0.22,0.65,0.45,0.97,0.67
		c1.31,1.21,1.77,0.45,1.98-0.86l-0.04,0.04c1.42-1.16,1.72-2.95,2.54-4.44c1.49-2.74,0.93-6.06,2.44-8.8
		c0.92,0.32,1.16-0.12,1.31-0.97c0.94-5.27,0.94-10.57,0.22-15.85c-0.17-1.24,0.28-2.91-1.37-3.68
		c-3.48-11.05-9.91-19.77-20.12-25.52c-5.89-3.32-5.88-3.34-8.98,2.68c-1.5,1.76-2.87,3.65-4.86,4.93
		c-0.61-0.84-0.35-1.79-0.36-2.71l-0.07,0.04c1.69-2.42,2.29-5.27,3.01-8.03c4.38-16.8-0.85-30.16-15.2-39.19
		c-9.16-5.76-19.12-8.03-29.86-6.96c-5.09-0.3-5.53,0.3-5.4,5.29c0.08,3.05,1.11,6.42-1.7,9.15c-0.32-1.01-0.6-1.86-0.87-2.7
		c-0.09-4.34-1.07-8.36-3.85-11.87c-7.79-9.81-17.72-15.35-30.42-15.45c-3.08-1.08-6.03-0.99-8.77,0.96
		c-3.31,1.3-6.72,2.37-9.83,4.16c-5.13,2.96-8.81,6.99-10,12.97c-0.42-0.25-0.84-0.49-1.26-0.74c-0.13-1.39-0.27-2.78-0.4-4.17
		c-0.29-2.15,2.34-4.39,0.72-6.07c-1.48-1.54-4.08-2.01-6.21-2.9c-0.85-0.36-1.74-0.63-2.64-0.85c-12.03-2.99-23.05-0.89-33.61,6.68
		c3.4,1.21,6.28,2.23,9.15,3.25c1.84,0.93,2.91,2.99,5.05,3.49c0.41,0.87,1.11,1.31,2.06,1.38c0.52,0.45,1.04,0.89,1.55,1.34
		c2.23,2.27,4.93,4.08,6.62,6.89c0.61,1.01,1.58,0.53,2.51,0.37c3.41-0.57,6.72-1.86,10.26-1.59c3.01,1.02,6.02,1,9.04,0
		c0.93-0.01,1.87-0.03,2.8-0.04c4.71,1.12,9.35,2.46,13.87,4.2c2.27,1.56,4.57,3.08,6.78,4.7c1.25,0.92,1.82,0.33,2.37-0.75
		c1.52-3.01,2.78-6.08,2.65-9.54c0-2.46,0-4.91,0-7.77c4.47,2.89,4.73,6.91,4.84,10.99c-0.7,3.28-1.43,6.59-3.38,9.37
		c-1.13,1.6-1.05,2.63,0.23,4.14c4.11,4.82,7.03,10.3,8.25,16.58c0.18,0.91,0.63,1.45,1.5,1.69c0.66,0.16,1.31,0.46,1.97,0.46
		c7.4-0.01,14.58,1,21.55,3.75c2.57,1.01,5.15-0.01,6.85-2.48c0.93-1.74,3.22-2.48,3.45-4.73l0.08-0.05c1.06-1.16,1.98-2.39,1.8-4.1
		c1.59-5.02,1.88-9.95-1.05-14.65c-0.05-0.42-0.11-0.84-0.16-1.25c0.15-0.18,0.29-0.37,0.44-0.55c4.62,1.79,6.49,5.58,7.3,10.11
		c0.2,1.12,0.03,2.59,1.91,1.75c3.95-1.76,7.39-0.45,10.71,1.71c0,0,0.08,0.07,0.08,0.07c-0.25,0.56-0.5,1.11-0.76,1.67
		c-1.18,0-2.37,0.01-3.55,0.01c-0.56-0.15-1.03,0-1.44,0.4c-7.54,1-11.3,7.28-12.88,14.74c-0.44,2.06-0.84,4.4,0.96,6.25
		c4.53,5.61,7.71,11.93,9.96,18.75c0.02,0.23,0.04,0.47,0.07,0.7c-0.11,0.78-0.1,1.52,0.53,2.11c0.04,0.35,0.11,0.69,0.1,1.04
		c-0.08,6.11,2.39,9.97,8.04,13.26c9.64,5.61,15.28,14.57,16.23,26.03c-1.01,3.48-1.06,6.96,0.01,10.44
		c-0.45,4.69-1.48,9.29-3.17,13.65c-1.17,3.02-1.14,5.8-0.13,8.72l-0.32-0.08c-0.8,3.96-1.01,7.92,0.11,11.86
		c0,1.33,0.35,2.21,2,1.92c7.04-1.26,13.91-2.95,19.74-7.43c6.76-3.99,10.6-10.01,12.22-17.57c3.24-13.51-0.81-23.43-11.74-27.6
		c0,2.33,0,4.47,0,6.62c-0.59,1.83-0.99,3.75-1.82,5.46c-1.24,2.56-1.92,5.67-5.27,6.59c-0.91-3.79,1.09-7.2,1.42-10.83
		c1.54-4.17,1.5-8.33,0.01-12.5c-0.45-2.29-0.89-4.58-1.34-6.88c0.21-2.89-0.38-5.46-2.85-7.3L359.72,227.37z"/>
	<path class="st1" d="M123.74,282.29c-8.44-5.94-14.83-13.33-16.76-23.84c0.04-11.47,2.28-22.24,9.94-31.28
		c1.73,0.67,2.79,2.43,4.67,2.87c8.45,5.93,19.26,6.5,26.7,1.4c1.51-0.53,2.33-1.94,3.54-2.85c1.9-1.62,0.83-2.11-0.88-2.03
		c-2.69,0.13-5.33-0.16-7.9-0.78c-11.22-2.7-20.09-8.37-24.81-19.5c-1.22-2.87-0.89-6.07-2.65-9.55
		c-1.43,8.01-0.46,14.91,2.74,21.53c0.51,1.06,1.93,1.93,0.69,3.35c-4.28-3.71-5.85-8.63-6.28-14.06c0.88-1.12,0.53-2.45,0.55-3.69
		c0.29-15.46,10.04-29.28,24.35-35.37c5.3-2.25,10.81-3.21,16.3-4.54c-0.55-1.26-1.66-1.82-2.85-2.28c0,0-0.02,0.01-0.02,0.01
		c-1.37-1.31-3.16-1.51-4.89-1.88c-0.34-0.18-0.69-0.36-1.03-0.55c-0.68-1.12-0.03-2,0.56-2.86c4.12-6,9.57-10.53,16.44-12.75
		c10.42-3.37,21.03-2.84,31.36,0.52c6.73,2.19,11.54,6.38,11.3,14.31c-2.1,2.53-5.09,4.27-6.53,7.38c-0.26,0.48-0.53,0.96-0.79,1.44
		c0,0,0.07-0.09,0.07-0.09c-2.95,4.78-4.23,9.73-1.54,15.09c1.08-0.24,1.28-1.25,1.73-2.03c8.57-15.08,21.48-22.05,38.8-20.65
		c16.32,1.32,28.19,14.03,28.68,30.33c0.18,5.85-0.78,11.5-2.11,17.14c0,0,0.03-0.07,0.03-0.07c-0.21,0.29-0.41,0.59-0.62,0.88
		c0.45,1.03,1.03,0.5,1.67,0.18c4.68-2.35,7.1-6.46,8.76-11.17c0.3-0.87,0.58-1.74,0.87-2.62c11.36-3.12,21.9-1.16,30.33,6.95
		c10.47,10.06,11.37,22.99,8.44,36.42c-1.4,6.4-4.64,11.97-8.85,16.97c5.3,0.19,9-2.84,12.4-6.33c3.31-3.39,4.75-7.78,6.1-12.18
		c5.34,1.42,9.38,4.82,12.96,8.78c5.26,5.83,6.39,13.08,6.71,20.56c-0.58,3.72-1.63,7.28-3.64,10.51c-1.84-0.51-1.11-1.51-0.61-2.63
		c0.89-2,1.03-3.82,0.58-6.12c-3.18,11-10.41,17.7-20.37,21.79c-0.73,0.3-1.59,0.68-1.98,1.28c-0.42,0.65,0.32,0.9,0.94,0.92
		c0.67,0.15,1.37,0.23,2.01,0.46c6.94,2.42,12.94,1.13,17.88-4.46c0.68-0.77,1.44-1.48,2.17-2.2c0.05-0.05,0.2-0.01,0.31-0.01
		c3.77,12.16-4.55,30.62-16.7,37.06c-1.02-0.82-0.32-1.26,0.31-1.88c1.73-1.7,3.71-3.28,4.99-5.29c2.01-3.18,4.76-6.14,4.92-11.17
		c-1.35,1.62-2.17,2.53-2.92,3.5c-5.43,7.01-12.63,10.28-21.41,9.78c-4.79-0.28-9.15-2.2-13.15-4.85c-0.07-0.37-0.14-0.74-0.21-1.11
		c0.14-0.88,0.14-1.72-0.73-2.28c-0.84-1.68-1.02-3.71-3.45-5.95c1.77,16.88-4.86,27.5-20.66,31.72c-2.07-1.11-0.29-1.2,0.42-1.43
		c9.81-3.26,14.92-10.51,17.51-20.41c-0.63,0.26-1.04,0.29-1.18,0.51c-3.77,5.63-9.26,8.96-15.35,11.47
		c-10.71,4.4-21.42,4.83-32.45,0.79c-3.61-1.33-5.91-4.36-9.4-5.6c0,0-0.05-0.1-0.05-0.1c-0.13-0.75,0.26-2.05-1.33-1.24
		c-0.08,0.22-0.16,0.45-0.25,0.67c-7.04,4.45-15,4.55-22.51,2.98c-10.75-2.25-19.83-7.72-24.52-18.5c-0.17-0.39-0.46-0.84-1.11-0.58
		c-0.71,0.9-0.48,1.97-0.24,2.94c2.01,8.14,5.96,14.96,13.09,19.78c1.93,1.31,4.53,1.97,5.45,4.54
		c-11.37-4.59-19.72-11.91-22.17-24.56c0-2.68,0-5.36,0-8.05c1.14-6.37,2.77-12.55,6.3-18.1c0.32-0.5,1.34-1.29,0.14-2.02
		c-0.83-0.5-1.53-0.14-2.19,0.41c-1.14,0.97-2.28,1.93-3.42,2.9c-7.55,3.17-13.72,0.93-18.97-4.86c-2.65,4.29-0.3,11.44,5.01,14.28
		c2.24,1.2,4.5,2.44,7.12,3.06c2.8,0.67,0.83,3.19,0.94,4.9c-0.84,1.6-0.8,3.21-0.02,4.82c0.04,1.16,0.08,2.32,0.11,3.48
		c-0.77,0.23-1.53,0.66-2.31,0.67c-8.22,0.09-16.08-1.29-23.26-5.62c-2.94-1.77-5.39-4.14-8.11-6.2c4.6,11.61,12.7,19.23,25.6,21.93
		c-1.06,0.34-1.49,0.49-1.93,0.63c-0.23,0.04-0.44,0.12-0.62,0.23c-10.91-2.15-19.74-7.36-25.38-17.25
		c-4.27-9.16-5.64-18.83-5.05-28.84c0.05-0.8,0.17-1.62-0.5-2.27c-9.55-3.76-16.41-10.3-20.1-19.96c-1.17,0.65-0.98,1.43-0.95,2.06
		c0.65,11.22,5.24,20.38,14.41,27.04C124.3,279.98,125,280.8,123.74,282.29z M212.92,299.72l-0.06-0.09
		c0.25,0.32,0.49,0.63,0.74,0.95c0.39,0.39,0.78,0.78,1.17,1.17c0.32,0.24,0.63,0.49,0.95,0.73l-0.09-0.02
		c0.25,0.23,0.5,0.45,0.75,0.68c11.07,9.05,23.15,12.34,36.77,6.3c4.76-2.11,8.22-5.57,9.68-10.73c0.27-0.94,0.56-2.09-1.15-1.16
		c-0.23,0.22-0.46,0.43-0.7,0.65l-0.02,0.02c-0.91,0.12-1.83,0.22-2.74,0.37c-16.46,2.58-31.04-0.13-41.3-14.81
		c-1.19-1.71-2.22-3.53-3.52-5.62c-0.2,0.82-0.36,1.15-0.35,1.47c0.64,12.86,16.11,25.44,26.46,26.22c1.58,0.12,3.27-0.42,4.72,0.67
		c-0.63,0.05-1.27,0.1-1.9,0.15c-0.8,0-1.6,0-2.39,0c-0.89-0.07-1.78-0.13-2.67-0.2c-0.86-0.72-1.87-0.62-2.88-0.52
		c-0.22,0.03-0.43-0.02-0.6-0.16c-0.56-0.63-1.29-0.68-2.06-0.59c-0.67-0.11-1.42-0.08-2.01-0.36
		c-10.31-5.03-18.31-12.02-20.23-24.1c0-2.52,0-5.04-0.01-7.56c0.24-1.24,0.44-2.49,0.74-3.72c1.82-7.49,4.7-14.34,11.3-18.98
		c0.42-0.3,0.85-0.61,1.27-0.91c0,0-0.07,0.05-0.07,0.05c3.22-1.42,6.45-2.85,9.67-4.27c-3.86-3.86-8.67-4.01-13.57-3.21
		c-7.45,1.21-14.62,3.63-22.43,3.36c-8.12-0.28-14.06-3.57-13.46-13.46l0.14-0.13c0.86-0.37,1.22-1.07,1.29-1.96l-0.05,0.05
		c0.25-0.25,0.49-0.5,0.74-0.76l-0.07,0.01c1.17,0.1,1.94-0.71,2.75-1.31c4.21-3.15,8.88-5.44,13.79-7.21
		c8.13-2.92,16.49-5.03,25.15-3.62c14.18,2.31,22.42,11.78,27.28,24.47c4.25,11.07,2.57,21.81-3.33,31.97
		c-3.55,3.44-8.12,4.76-13.74,5.92c4.49,1.44,8.02,0.93,11.53,0.67c8.29-0.46,16.2,0.04,23.46,5.14c4.1,2.88,9.03,2.05,13.47-0.36
		c2.69-1.12,5.5-2.07,7.15-4.76c1.07-0.26,1.7-0.98,1.35-2.01c-0.31-0.89-1.32-0.83-2.13-0.77c-2.8,0.19-5.55-0.25-8.26-0.83
		c-5.06-1.09-9.68-6.04-10.55-11.22c-0.86-5.13,1.67-10.23,6.41-13.18c2.26-1.4,4.79-2.62,6.53-4.53c3.04-3.33,6.93-6.29,7.1-11.45
		c0.02-0.23,0.13-0.41,0.32-0.54c1.05-0.32,1.17-1.16,1.16-2.07l0.03-0.05c1.47-1.87,2.12-4,1.98-6.37
		c0.16-4.4,0.59-8.86-2.68-12.53c-0.27-0.8-0.7-1.59-1.65-1.26c-0.81,0.28-0.01,0.92,0,1.4c0.03,2.26,0.1,4.52,0.15,6.78
		c-0.45,1.55-0.85,3.12-1.37,4.66c-1.93,5.7-4.56,10.89-10.41,13.59c-1.07-1.58,0.66-1.97,1.27-2.69c2.49-2.92,4.96-5.81,5.54-10.17
		c-9.22,6.64-15.09,6.88-25.28,1.32c-0.48-0.26-1.11-0.25-1.67-0.36l-0.05-0.09c-0.13-0.19-0.27-0.38-0.4-0.57
		c-5.62-8.62-13-15.13-22.64-18.94c-0.37-0.45-0.85-0.61-1.43-0.54c-0.22,0.03-0.41-0.03-0.57-0.17c-2.2-4.84-5.13-9.35-6.17-14.74
		c-1.24,3.33-1.89,6.52-1.49,9.75c0.41,3.31-0.9,3.61-3.45,2.37c-0.74-2.35-0.11-4.77-0.32-7.15c0.54-2.49,1.08-4.98,1.62-7.47
		c1.82-4.38,4.68-8.05,8.45-11.45c-2.32-0.8-3.75-0.22-5.37,0.58c-4.88,2.41-6.89,6.86-8.73,11.5c-4.34,3.22-8.89,5.91-14.01,7.89
		c-12.55,4.85-24.68,1.2-31.99-10.05c-1.86-2.87-2.24-6.3-4.02-9.86c0.05,3.76-0.11,6.8,0.66,9.93c1.52,6.11,4.97,11.12,8.32,16.24
		c-9.47-6.66-14.02-15.71-13.27-27.33c0.54-4.28,2.44-8.05,4.38-11.81l-0.06,0.09c0.81-0.51,1.2-1.31,1.51-2.16
		c2.29-2.53,4.59-5.06,7.3-8.04c-6.61,0.73-11.23,3.55-14.38,8.71c-4.52,7.39-5.25,15.41-3.81,23.78c0.16,0.94,1.36,2.25-0.57,2.84
		c-0.61-0.08-1.21-0.16-1.82-0.24c-0.52-0.16-1.05-0.32-1.57-0.48c-3.29-0.31-6.59-0.98-9.8,0.43c-2.19,0.61-4.14,1.61-5.59,3.43
		c-0.58,1.05-2.23,1.88-0.71,3.38c9.91,0.02,19.59,1.07,28.3,6.38c1.08,1.13,2.16,2.26,3.24,3.39c0.37,1.13,0.91,2.04,2.3,1.98
		l0.11,0.04c-0.49,1.21,0.3,2.23,0.46,3.35c0.41,2.93,1.61,5.74,0.89,8.83c-2.17,9.25-7.31,15.67-16.71,18.37
		c-1.6,0.46-3.86,0.26-4.5,2.58c-2.08,1.41-4.36,2.6-6.19,4.28c-3,2.76-5.86,5.76-5.75,10.32c-0.02,0.54-0.24,1.39,0.76,0.95
		c1.06-0.45,2.02-1.12,3.02-1.69c13.03-7.4,26.2-9.26,39.79-1.36c2.27,1.32,3.89,3.7,6.71,4.06l-0.1-0.01
		c0.24,0.26,0.47,0.52,0.71,0.78l-0.04-0.05c0.08,0.73,0.41,1.23,1.22,1.27c0.28,0.22,0.55,0.43,0.83,0.65
		c0.1,2.8,2.58,4.26,3.78,6.46c2.28,4.21,3.52,8.68,4.6,13.25c1,4.49,1.76,9.06,4.85,12.75c0.43,1.68,1.58,2.85,2.83,3.95
		c0.22,0.27,0.43,0.54,0.65,0.82l-0.05-0.08C212.38,299.21,212.65,299.46,212.92,299.72z"/>
	<path class="st1" d="M272.01,145.48c-0.11-4.08-0.37-8.09-4.84-10.99c0,2.86,0,5.32,0,7.77c-0.67,1.89-2.11,2.71-3.94,3.41
		c-2.57,0.97-5.58,0.27-7.86,2.19c-4.52-1.74-9.16-3.09-13.87-4.2c-1.02-0.68-2.09-1.28-3.04-2.05c-1.34-1.1-3.12-2.02-2.38-4.3
		c1.64-2.83,3.83-5.11,6.42-7.14c8.99-7.06,19.33-7.22,29.72-5.34c8.68,1.57,15.85,6.1,20.63,13.93c2.76,4.53,3.74,9.59,4.95,14.61
		c1.21,0.46,1.21-0.66,1.51-1.24c1.66-3.15,2.66-6.5,3.01-10.05c0.85-0.61,1.73-1.04,2.82-1.23c9.57-1.64,18.46,0.12,27.25,4.24
		c12.74,5.97,18.99,21.69,17.34,33.9c-0.41,3.07-1.31,6.13-0.97,9.29c0,0,0.07-0.04,0.07-0.04c-1.23,0.28-0.98,1.29-1.07,2.14
		c-0.06,0.56-1.28,1.04-0.3,1.6c0.88,0.51,1.42-0.21,1.72-1.03c1.99-1.28,3.36-3.17,4.85-4.93c4.88,0.96,9.15,3.1,12.89,6.38
		c10.82,9.52,16.54,21.02,14.78,35.83c-0.6,5.02-3.01,9.44-3.7,14.36c0,0,0.04-0.04,0.04-0.04c-0.66,0.29-1.32,0.57-1.98,0.86
		c-0.32-0.22-0.65-0.45-0.97-0.67c2.84-5.24,4.86-10.74,5.56-17.03c-5.61,5.3-9.83,4.26-12.78-2.37c-1.95-4.39-1.75-9.01-2.43-13.54
		c0.07-0.25,0.15-0.49,0.22-0.74c0.14-0.48,0.28-0.96,0.42-1.43c0-0.76,0-1.53,0-2.68c-2.67,2.19-4.68,4.45-7.22,6.09
		c-1.65,1.06-2.92,1.45-4.58-0.09c-1.42-1.32-3.26-2.19-5.23-2.56c-2.66-1.12-5.47-1.31-8.32-1.26c-0.36,0.11-0.71,0.21-1.07,0.32
		c-0.44,0.07-0.87,0.14-1.31,0.21c-0.22-0.73-0.73-1.07-1.45-1.32c-7.89-2.73-12.18-8.55-14.26-16.4c-1.02-3.84-1.03-7.81-1.3-12.67
		c-2.87,3.61-3.29,6.75-3.27,10.01c0.01,1.61-0.05,3.1-2.24,3.09c-1.8-1.85-1.39-4.19-0.96-6.25c1.58-7.46,5.34-13.74,12.88-14.74
		c0.48-0.13,0.96-0.26,1.44-0.4c1.18,0,2.37-0.01,3.55-0.01c0.61,0.72,1.53,1.63,2.19,0.62c0.69-1.07-0.63-1.7-1.43-2.29
		c0,0-0.08-0.07-0.08-0.07c-0.34-2.22-1.28-4.24-2.85-5.76c-4.55-4.41-9.78-7.65-16.23-8.51c-0.78-0.1-1.71-0.56-2.19,0.32
		c-0.59,1.07,0.25,1.68,1.07,2.19c2.93,4.7,2.64,9.63,1.05,14.65c-1.22,1.09-1.78,2.48-1.8,4.1c0,0-0.08,0.05-0.08,0.05
		c-3.32,1.95-6.94,2.43-10.7,2.01c-6.45-0.71-12.27-3.39-17.63-6.72c-4.8-2.99-8.76-6.95-10.45-12.85
		C272.56,152.97,272.17,149.27,272.01,145.48z"/>
	<path class="st1" d="M325.87,209.82c-0.02-0.23-0.04-0.47-0.07-0.7c3.18,0.86,6.47,0.5,9.69,0.89c6.6,3.52,12.53,7.83,16.93,14.03
		c5.49,7.74,7.6,16.56,8.12,25.81c0.26,4.59,1.24,9.19,0.12,13.83c-0.22,0.91-0.54,3.38,1.75,1.16c3.34-0.92,4.03-4.03,5.27-6.59
		c0.83-1.71,1.23-3.64,1.82-5.46c6.03,1.25,10.87,6.93,11.31,13.12c0.19,2.62-0.49,5.29,0.43,7.87
		c-1.63,7.56-5.46,13.59-12.22,17.57c-0.76-1.24,0.51-1.6,1.02-2.22c4.72-5.69,7.27-12.26,8.3-19.69c-0.47,0.2-0.79,0.23-0.84,0.37
		c-4.08,10.55-12.63,15.15-23.04,17.01c-2.36,0.42-5.37,1.62-6.97-1.75c-1.01-2.92-1.04-5.7,0.13-8.72
		c1.69-4.36,2.72-8.96,3.17-13.65c0.35-3.48,0.39-6.96-0.01-10.44c-0.94-11.46-6.59-20.42-16.23-26.03
		c-5.65-3.29-8.13-7.15-8.04-13.26c0-0.34-0.07-0.69-0.1-1.04C326.51,211.15,326.45,210.42,325.87,209.82z"/>
	<path class="st2" d="M263.1,207.07c1.33-5.63,2.28-11.28,2.11-17.14c-0.49-16.31-12.36-29.01-28.68-30.33
		c-17.32-1.4-30.23,5.57-38.8,20.65c-0.44,0.78-0.65,1.78-1.73,2.03c0.1-1.01,0.2-2.02,0.3-3.03c5.25-13.11,14.7-21.52,28.33-25.18
		c2-0.54,4.06-0.83,6.08-1.24c2.79-0.01,5.58-0.02,8.37-0.03c5,1,9.93,2.15,14.37,4.84c8.33,5.06,13.07,12.55,15.08,21.94
		c0.14,0.67,0.39,1.31,0.58,1.96c0.42,3.57,0.25,7.14,0.09,10.72c-1.4,3.91-1.49,8.24-3.9,11.83
		C264.61,205.12,264.25,206.38,263.1,207.07z"/>
	<path class="st2" d="M204.8,158.45c0.23-7.93-4.58-12.12-11.3-14.31c-10.33-3.36-20.94-3.88-31.36-0.52
		c-6.87,2.22-12.32,6.75-16.44,12.75c-0.59,0.86-1.24,1.74-0.56,2.86c-2.19,1.71-4.78,1.04-7.11,0.79
		c-1.59-0.17-0.68-1.83-0.25-2.82c2.42-5.6,6.12-10.2,10.97-13.89c1-0.76,1.99-1.52,2.98-2.28c0.47-0.28,0.94-0.55,1.41-0.83
		c0,0-0.03,0.03-0.03,0.03c0.47-0.25,0.93-0.5,1.4-0.75c0,0-0.04,0.03-0.04,0.03c1.06-0.25,2.07-0.59,2.89-1.35
		c0,0-0.06,0.05-0.06,0.05c4.95-1.52,9.94-2.89,15.17-3.05c9.11-0.47,17.92,0.9,26.34,4.41c4.7,1.96,8.67,4.85,10.95,9.59
		c1.38,2.86,1.75,5.49-1.83,7.17C206.8,156.86,205.84,157.74,204.8,158.45z"/>
	<path class="st2" d="M303.73,254.6c4.21-5,7.45-10.57,8.85-16.97c2.94-13.43,2.03-26.36-8.44-36.42
		c-8.43-8.1-18.97-10.07-30.33-6.95c0.17-2.42,0.34-4.83,0.52-7.25c0.47-0.26,0.94-0.52,1.41-0.78c0,0,0,0.04,0,0.04
		c5.21-1.01,10.41-0.83,15.62,0.09c20.87,5.35,26.82,22.46,26.92,37.01c0.07,10.51-2.37,20.21-10.11,27.94
		C306.85,252.63,305.43,253.81,303.73,254.6z"/>
	<path class="st3" d="M198.25,330.3c-0.93-2.57-3.52-3.23-5.45-4.54c-7.13-4.82-11.08-11.63-13.09-19.78
		c-0.24-0.98-0.47-2.04,0.24-2.94c0.65-0.26,0.94,0.19,1.11,0.58c4.69,10.78,13.76,16.25,24.52,18.5
		c7.51,1.57,15.47,1.47,22.51-2.98c0.06,3.01,0,6.05,1.5,8.79c0.89,1.63-0.01,2.18-1.3,2.81c-3.82,1.86-8.01,2.1-12.06,2.93
		c-1.26,0-2.52-0.01-3.77-0.01C207.65,332.86,202.61,333.03,198.25,330.3z"/>
	<path class="st2" d="M348.76,188.27c-0.34-3.16,0.56-6.22,0.97-9.29c1.65-12.21-4.6-27.93-17.34-33.9
		c-8.79-4.12-17.68-5.88-27.25-4.24c-1.08,0.19-1.96,0.62-2.82,1.23c-0.52-6.41-0.52-6.41,4.37-7.98
		c10.75-1.07,20.71,1.2,29.87,6.96c14.36,9.02,19.58,22.38,15.2,39.19C351.05,183,350.46,185.85,348.76,188.27z"/>
	<path class="st3" d="M229.72,319.81c3.48,1.25,5.79,4.28,9.4,5.6c11.02,4.04,21.74,3.61,32.45-0.79
		c6.09-2.5,11.58-5.83,15.35-11.47c0.14-0.21,0.55-0.25,1.18-0.51c-2.58,9.91-7.7,17.15-17.51,20.41c-0.7,0.23-2.49,0.32-0.42,1.43
		c-0.06,0.19-0.14,0.38-0.23,0.56c-4.26,0.83-8.56,0.76-12.87,0.69c-6.66-1.53-13.27-3.22-19.19-6.85
		C234.24,326.67,231.21,323.94,229.72,319.81z"/>
	<path class="st3" d="M295.21,312.11c4.01,2.65,8.36,4.58,13.15,4.85c8.77,0.51,15.98-2.76,21.41-9.78c0.75-0.97,1.57-1.88,2.92-3.5
		c-0.17,5.03-2.92,7.99-4.92,11.17c-1.27,2.01-3.26,3.59-4.99,5.29c-0.63,0.62-1.32,1.06-0.31,1.88c-6.9,4.28-14.57,5.41-22.49,5.39
		c-2.49-0.01-5.71,1.06-7.31-0.54c-2.07-2.08,1.27-4.24,1.75-6.55C295,317.6,294.95,314.85,295.21,312.11z"/>
	<path class="st2" d="M297.8,153.36c-1.21-5.02-2.18-10.07-4.95-14.61c-4.78-7.83-11.95-12.36-20.63-13.93
		c-10.39-1.88-20.73-1.72-29.72,5.34c-2.59,2.04-4.78,4.31-6.42,7.14c-0.08-0.23-0.15-0.47-0.23-0.7c1.18-5.98,4.87-10.02,10-12.97
		c3.11-1.8,6.52-2.86,9.83-4.16c2.92-0.32,5.85-0.64,8.78-0.97c12.7,0.1,22.63,5.64,30.42,15.45c2.78,3.51,3.77,7.52,3.85,11.87
		C298.5,148.34,298.7,150.92,297.8,153.36z"/>
	<path class="st1" d="M206.68,135.3c-2.14-0.5-3.21-2.56-5.05-3.49c0.68-1.02,1.71-1.55,2.82-1.92c10.16-3.47,20.14-3.86,29.75,1.81
		c0.13,1.39,0.27,2.78,0.4,4.17c0.18,2.3-0.48,4.29-2.92,4.78c-3.14,0.62-6.33,1.31-9.58,0.85c-4.1-0.58-7.89-2.27-11.82-3.47
		c-0.52-0.45-1.04-0.89-1.55-1.34C208.58,135.42,207.75,135.18,206.68,135.3z"/>
	<path class="st3" d="M161.1,317.97c0.44-0.14,0.87-0.28,1.93-0.63c-12.9-2.7-21-10.32-25.6-21.93c2.71,2.06,5.17,4.43,8.11,6.2
		c7.18,4.33,15.04,5.71,23.26,5.62c0.77-0.01,1.54-0.43,2.31-0.67c0.88,3.14,1.37,6.42,2.87,9.36c0.66,1.3-0.03,1.83-0.99,2.34
		C169.03,318.34,165.05,318.94,161.1,317.97z"/>
	<path class="st3" d="M347.48,285.06c1.6,3.37,4.61,2.17,6.97,1.75c10.42-1.87,18.97-6.46,23.04-17.01
		c0.05-0.14,0.37-0.17,0.84-0.37c-1.03,7.43-3.58,13.99-8.3,19.69c-0.51,0.62-1.78,0.98-1.02,2.22c-5.83,4.48-12.7,6.16-19.74,7.43
		c-1.65,0.3-1.99-0.59-2-1.92c0.44-3.96,0.54-7.91-0.11-11.86L347.48,285.06z"/>
	<path class="st2" d="M234.2,131.7c-9.61-5.67-19.59-5.29-29.75-1.81c-1.11,0.38-2.14,0.9-2.82,1.92c-2.87-1.02-5.75-2.04-9.15-3.26
		c10.56-7.57,21.57-9.66,33.61-6.68c0.9,0.22,1.79,0.5,2.64,0.85c2.13,0.89,4.73,1.36,6.21,2.9
		C236.55,127.31,233.91,129.55,234.2,131.7z"/>
	<path class="st3" d="M272.01,145.48c0.16,3.8,0.55,7.5,1.62,11.23c1.7,5.9,5.65,9.86,10.45,12.85c5.36,3.34,11.18,6.01,17.63,6.72
		c3.76,0.41,7.37-0.06,10.7-2.01c-0.23,2.25-2.52,2.99-3.45,4.73c-2.92,1.79-5.75,2.2-9.17,0.83c-6.77-2.71-13.93-3.3-21.19-2.57
		c-0.87-0.24-1.32-0.77-1.5-1.69c-1.22-6.28-4.13-11.76-8.25-16.58c-1.29-1.51-1.36-2.54-0.23-4.14
		C270.58,152.06,271.31,148.75,272.01,145.48z"/>
	<path class="st3" d="M119.01,221.6c1.25-1.42-0.18-2.29-0.69-3.35c-3.2-6.62-4.18-13.52-2.74-21.53c1.77,3.48,1.43,6.68,2.65,9.55
		c4.73,11.13,13.59,16.8,24.81,19.5c2.57,0.62,5.22,0.91,7.9,0.78c1.71-0.08,2.78,0.41,0.88,2.03c-0.32-1.49-1.29-0.87-2.11-0.62
		c-2.17,0.64-4.33,1.29-6.5,1.94c-3.88,0.03-7.77,0.13-11.61-0.65C126.96,227.42,122.35,225.55,119.01,221.6z"/>
	<path class="st2" d="M378,242.58c0.69-4.92,3.1-9.33,3.7-14.36c1.76-14.81-3.95-26.32-14.78-35.83c-3.73-3.28-8.01-5.43-12.89-6.38
		c3.1-6.02,3.09-6,8.98-2.68c10.21,5.75,16.63,14.47,20.12,25.51c0.52,4.52,1.07,9.02,1.1,13.61c0.01,2.47-2.02,4.4-1.26,6.89
		c-1.52,2.74-0.95,6.06-2.44,8.8C379.72,239.63,379.42,241.42,378,242.58z"/>
	<path class="st2" d="M362.41,264.82c-2.29,2.22-1.97-0.24-1.75-1.16c1.13-4.64,0.14-9.24-0.12-13.83
		c-0.52-9.25-2.63-18.07-8.12-25.81c-4.39-6.2-10.33-10.5-16.93-14.03c0.11-0.07,0.17-0.18,0.19-0.31c3.28-0.27,6.34,0.65,9.37,1.75
		c6.2,3.33,10.46,8.51,13.91,14.47c0.25,0.49,0.5,0.97,0.75,1.46c0,0-0.07-0.06-0.07-0.06c0.95,2.43,1.9,4.87,2.85,7.3
		c0.45,2.29,0.89,4.58,1.34,6.87c0,4.17,0,8.33,0,12.5C363.51,257.62,361.5,261.03,362.41,264.82z"/>
	<path class="st3" d="M123.74,282.29c1.26-1.48,0.56-2.3-0.81-3.3c-9.17-6.66-13.77-15.82-14.41-27.04
		c-0.04-0.63-0.22-1.41,0.95-2.06c3.69,9.67,10.55,16.21,20.1,19.96c-3.36,3.7-4.94,7.98-4.34,13
		C124.58,283.05,124.06,282.93,123.74,282.29z"/>
	<path class="st3" d="M365.44,209.79c0.69,4.53,0.48,9.15,2.43,13.54c2.95,6.63,7.17,7.67,12.78,2.37
		c-0.71,6.29-2.72,11.79-5.56,17.03c-3.85-1.23-6.26-3.31-6.94-7.8c-0.91-5.96-3.71-11.37-7.12-16.37
		c-1.01-1.47-1.31-2.52,0.41-3.65C363.31,213.67,364.15,211.54,365.44,209.79z"/>
	<path class="st2" d="M153.92,163.94c-5.48,1.32-11,2.28-16.3,4.54c-14.32,6.09-24.06,19.91-24.35,35.37
		c-0.02,1.24,0.32,2.57-0.55,3.69c-3.24-11.51,1.75-27.31,11.95-35.47c4.1-3.28,8.73-5.56,13.32-7.91c1.5-0.77,3.61-0.35,5.44-0.48
		C146.94,163.17,150.44,163.25,153.92,163.94z"/>
	<path class="st3" d="M335.5,210c-3.22-0.38-6.51-0.03-9.69-0.89c-2.25-6.82-5.43-13.14-9.96-18.75c2.19,0.02,2.25-1.48,2.24-3.09
		c-0.02-3.26,0.4-6.41,3.27-10.01c0.27,4.86,0.29,8.83,1.3,12.67c2.08,7.85,6.37,13.67,14.26,16.4c0.72,0.25,1.23,0.58,1.45,1.32
		c-0.84,0.75-2.22,0.8-2.68,2.05C335.67,209.83,335.61,209.93,335.5,210z"/>
	<path class="st2" d="M341.89,265.44c-0.32-7.48-1.45-14.73-6.71-20.56c-3.58-3.97-7.62-7.36-12.96-8.78
		c0.18-1.25,0.33-2.51,0.56-3.76c0.8-4.4,0.84-4.45,4.75-2C340.37,238.37,344.71,250.37,341.89,265.44z"/>
	<path class="st3" d="M313.23,155.47c-0.82-0.51-1.66-1.13-1.07-2.19c0.49-0.88,1.41-0.42,2.19-0.32c6.45,0.86,11.67,4.1,16.23,8.51
		c1.57,1.52,2.51,3.54,2.85,5.76c-3.32-2.15-6.76-3.46-10.71-1.71c-1.89,0.84-1.71-0.63-1.91-1.75c-0.82-4.53-2.69-8.32-7.3-10.11
		c-0.25-0.03-0.51-0.06-0.76-0.08c0.11,0.21,0.21,0.42,0.32,0.63C313.13,154.63,313.18,155.05,313.23,155.47z"/>
	<path class="st2" d="M116.92,227.16c-7.66,9.05-9.9,19.81-9.94,31.28c-0.45-0.9-0.91-1.79-1.36-2.68
		c0.37-5.47,0.02-10.99,1.08-16.41c0.1-0.35,0.19-0.7,0.29-1.05c0.76-2.75,1.52-5.5,2.27-8.25c0,0-0.04,0.03-0.04,0.03
		c0.3-0.68,0.6-1.36,0.91-2.04c0.87-1.58,1.74-3.16,2.83-5.16C114.39,224.42,115.66,225.79,116.92,227.16z"/>
	<path class="st3" d="M316.81,291.19c-0.62-0.02-1.36-0.27-0.94-0.92c0.39-0.6,1.25-0.98,1.98-1.28
		c9.96-4.09,17.19-10.79,20.37-21.79c0.45,2.3,0.31,4.12-0.58,6.12c-0.5,1.13-1.23,2.12,0.61,2.63
		c-3.49,7.67-9.23,12.49-17.58,14.17C319.38,290.37,317.82,289.86,316.81,291.19z"/>
	<path class="st3" d="M210.29,138.02c3.93,1.2,7.72,2.9,11.82,3.47c3.24,0.45,6.43-0.23,9.58-0.85c2.44-0.48,3.1-2.47,2.92-4.78
		c0.42,0.25,0.84,0.49,1.26,0.74c0.07,0.23,0.15,0.47,0.23,0.7c-0.74,2.28,1.04,3.2,2.39,4.3c0.94,0.77,2.02,1.37,3.04,2.05
		c-0.93,0.01-1.87,0.03-2.8,0.04c-3.01-0.36-6.02-0.29-9.04,0c-3.54-0.27-6.85,1.02-10.26,1.59c-0.93,0.15-1.9,0.64-2.51-0.37
		C215.22,142.1,212.52,140.29,210.29,138.02z"/>
	<path class="st2" d="M381.24,273.76c-0.92-2.58-0.25-5.25-0.43-7.87c-0.44-6.19-5.28-11.87-11.31-13.12c0-2.15,0-4.29,0-6.62
		C380.43,250.33,384.48,260.25,381.24,273.76z"/>
	<path class="st3" d="M157.95,276.02c5.25,5.79,11.42,8.03,18.97,4.86c-0.71,1.17-1.45,2.33-2.12,3.52
		c-2.5,4.41-2.53,4.51-7.23,2.49C162.71,284.8,159.13,281.44,157.95,276.02z"/>
	<path class="st3" d="M255.37,147.85c2.28-1.92,5.29-1.21,7.86-2.19c1.83-0.69,3.27-1.52,3.94-3.41c0.12,3.46-1.13,6.54-2.65,9.54
		c-0.55,1.08-1.11,1.67-2.37,0.75C259.94,150.93,257.64,149.41,255.37,147.85z"/>
	<path class="st4" d="M125.22,282.85c-0.6-5.02,0.98-9.31,4.34-13c0.66,0.65,0.54,1.47,0.5,2.27c-0.59,10.01,0.78,19.68,5.05,28.84
		c-3.31-3.16-4.09-7.55-4.83-11.62c-0.99-5.47-1.87-11.07-1.31-16.82c-2,1.93-2.8,4.38-3.07,7.06
		C125.78,280.69,126.2,281.91,125.22,282.85z"/>
	<path class="st4" d="M278.6,177.25c7.26-0.73,14.42-0.14,21.19,2.57c3.42,1.37,6.25,0.96,9.17-0.83c-1.69,2.47-4.28,3.49-6.85,2.48
		c-6.96-2.75-14.14-3.76-21.55-3.75C279.91,177.71,279.26,177.41,278.6,177.25z"/>
	<path class="st4" d="M297.8,153.36c0.9-2.44,0.7-5.01,0.93-7.54c0.27,0.85,0.55,1.7,0.87,2.71c2.82-2.72,1.78-6.1,1.7-9.15
		c-0.13-4.99,0.31-5.59,5.39-5.29c-4.9,1.58-4.9,1.58-4.38,7.98c-0.36,3.54-1.36,6.9-3.01,10.04
		C299.01,152.7,299.01,153.82,297.8,153.36z"/>
	<path class="st4" d="M148.28,231.43c-7.44,5.1-18.25,4.54-26.7-1.4c3.65,0.69,6.81,2.73,10.48,3.53
		C137.83,234.81,143.04,233.35,148.28,231.43z"/>
	<path class="st4" d="M335.69,209.7c0.46-1.25,1.84-1.3,2.68-2.05c0.44-0.07,0.87-0.14,1.31-0.21c0.36-0.11,0.71-0.21,1.07-0.32
		c2.85-0.05,5.65,0.15,8.32,1.26c-3.04,0-6.08,0-9.53,0c1.93,1.54,4.53,0.86,5.53,3.06C342.03,210.35,338.97,209.43,335.69,209.7z"
		/>
	<path class="st4" d="M382.98,229.34c-0.76-2.49,1.27-4.43,1.26-6.89c-0.02-4.59-0.57-9.09-1.1-13.61c1.65,0.77,1.2,2.45,1.37,3.68
		c0.72,5.28,0.72,10.57-0.22,15.85C384.14,229.21,383.9,229.65,382.98,229.34z"/>
	<path class="st4" d="M196.3,179.25c-0.1,1.01-0.2,2.02-0.3,3.03c-2.69-5.36-1.41-10.31,1.54-15.09c-0.67,2.62-1.48,5.21-1.96,7.86
		C195.33,176.43,195.1,178.02,196.3,179.25z"/>
	<path class="st4" d="M172.46,135.16c-5.23,0.16-10.21,1.53-15.17,3.05C161.9,134.97,166.93,133.82,172.46,135.16z"/>
	<path class="st4" d="M291.35,186.36c-5.2-0.91-10.41-1.1-15.62-0.09C280.96,183.98,286.16,183.71,291.35,186.36z"/>
	<path class="st4" d="M106.71,239.35c-1.06,5.43-0.71,10.94-1.08,16.41C104.94,250.22,103.85,244.65,106.71,239.35z"/>
	<path class="st4" d="M153.92,163.94c-3.48-0.7-6.98-0.77-10.49-0.26c2.11-2.34,5.4-0.19,7.65-2.02
		C152.27,162.12,153.38,162.68,153.92,163.94z"/>
	<path class="st4" d="M257.06,335.74c4.31,0.08,8.61,0.14,12.87-0.69c-4.29,2.68-8.96,1.14-13.49,1.26c0-0.1-0.04-0.26,0.01-0.28
		C256.64,335.91,256.86,335.83,257.06,335.74z"/>
	<path class="st4" d="M269.2,192.26c0.16-3.58,0.33-7.15-0.09-10.72C271.84,185.1,270.64,188.68,269.2,192.26z"/>
	<path class="st4" d="M161.1,317.97c3.94,0.97,7.92,0.37,11.89,0.3c-4.18,1.32-8.35,1.44-12.51-0.07
		C160.67,318.09,160.88,318.01,161.1,317.97z"/>
	<path class="st4" d="M131.6,229.24c3.84,0.79,7.73,0.69,11.61,0.65C139.27,230.86,135.34,231.77,131.6,229.24z"/>
	<path class="st4" d="M363.84,253.99c0-4.17,0-8.34,0-12.5C365.34,245.66,365.38,249.82,363.84,253.99z"/>
	<path class="st4" d="M239.08,152.8c-2.79,0.01-5.58,0.02-8.37,0.03c-0.29-0.19-0.99-0.64-0.63-0.66c3.17-0.17,6.35-0.11,9.53-0.11
		c0.06,0,0.12,0.13,0.18,0.2C239.56,152.44,239.32,152.62,239.08,152.8z"/>
	<path class="st4" d="M347.16,284.98c0.65,3.95,0.55,7.9,0.11,11.86C346.15,292.9,346.37,288.94,347.16,284.98z"/>
	<path class="st4" d="M176.08,297.7c0,2.68,0,5.37,0,8.05c-0.04,0.11-0.04,0.26-0.11,0.31c-0.14,0.1-0.32,0.15-0.48,0.23
		c-0.05-3.15-0.1-6.29-0.13-9.44c0-0.48,0.31-0.53,0.53-0.14C176.05,296.99,176.03,297.36,176.08,297.7z"/>
	<path class="st4" d="M264.46,118.5c-2.93,0.32-5.85,0.64-8.78,0.97C258.43,117.52,261.38,117.42,264.46,118.5z"/>
	<path class="st4" d="M109.27,230.04c-0.76,2.75-1.52,5.5-2.27,8.25C106.21,235.12,107.17,232.42,109.27,230.04z"/>
	<path class="st4" d="M362.5,234.61c-0.95-2.43-1.9-4.87-2.85-7.3C362.13,229.15,362.71,231.73,362.5,234.61z"/>
	<path class="st4" d="M212.46,333.67c1.26,0,2.52,0.01,3.77,0.01c0.64,0.08,1.29,0.15,1.94,0.23c-0.01,0.12-0.02,0.25-0.03,0.37
		c-2.74,0-5.47,0-8.27,0C210.58,333.31,211.65,334.01,212.46,333.67z"/>
	<path class="st4" d="M350.77,252.26c0.4,3.48,0.35,6.96,0.01,10.44C349.72,259.22,349.76,255.74,350.77,252.26z"/>
	<path class="st2" d="M349.19,190.94c-0.3,0.82-0.84,1.54-1.72,1.03c-0.98-0.56,0.24-1.05,0.3-1.6c0.09-0.85-0.17-1.86,1.07-2.14
		C348.84,189.14,348.58,190.1,349.19,190.94z"/>
	<path class="st4" d="M229.67,143.69c3.01-0.29,6.02-0.35,9.04,0C235.69,144.69,232.68,144.71,229.67,143.69z"/>
	<path class="st3" d="M333.52,167.29c0.8,0.59,2.12,1.23,1.43,2.29c-0.66,1.01-1.58,0.1-2.19-0.62
		C333.01,168.41,333.27,167.85,333.52,167.29z"/>
	<path class="st4" d="M146.17,159.79c1.73,0.37,3.52,0.58,4.89,1.88C149.4,161.12,147.39,161.47,146.17,159.79z"/>
	<path class="st3" d="M312.49,174.21c0.02-1.62,0.57-3,1.8-4.1C314.47,171.82,313.55,173.05,312.49,174.21z"/>
	<path class="st3" d="M171,303.09c-0.78-1.61-0.83-3.22,0.02-4.82C171.01,299.87,171,301.48,171,303.09z"/>
	<path class="st3" d="M206.68,135.3c1.08-0.12,1.91,0.12,2.06,1.38C207.79,136.61,207.08,136.17,206.68,135.3z"/>
	<path class="st4" d="M157.35,138.16c-0.82,0.76-1.84,1.1-2.89,1.35C155,138.14,156.1,137.99,157.35,138.16z"/>
	<path class="st2" d="M376.06,243.4c0.66-0.29,1.32-0.57,1.98-0.86C377.82,243.84,377.37,244.61,376.06,243.4z"/>
	<path class="st3" d="M228.34,318.47c1.58-0.81,1.2,0.49,1.33,1.24C229.23,319.3,228.78,318.89,228.34,318.47z"/>
	<path class="st3" d="M325.87,209.82c0.57,0.6,0.63,1.34,0.53,2.11C325.77,211.34,325.77,210.59,325.87,209.82z"/>
	<path class="st3" d="M294.27,308.72c0.86,0.56,0.87,1.4,0.73,2.28C294.76,310.24,294.52,309.48,294.27,308.72z"/>
	<path class="st4" d="M110.14,228.03c-0.3,0.68-0.6,1.36-0.91,2.04C109.28,229.27,109.1,228.38,110.14,228.03z"/>
	<path class="st3" d="M366.08,207.62c-0.14,0.48-0.28,0.96-0.42,1.43C365.56,208.5,365.63,208.01,366.08,207.62z"/>
	<path class="st4" d="M275.74,186.24c-0.47,0.26-0.94,0.52-1.41,0.78C274.6,186.41,275.14,186.26,275.74,186.24z"/>
	<path class="st4" d="M359.72,227.37c-0.25-0.49-0.5-0.97-0.75-1.46C359.69,226.16,359.8,226.72,359.72,227.37z"/>
	<path class="st3" d="M329.21,168.98c-0.48,0.13-0.96,0.26-1.44,0.4C328.18,168.97,328.65,168.83,329.21,168.98z"/>
	<path class="st4" d="M197.47,167.27c0.26-0.48,0.53-0.96,0.79-1.44C198.2,166.42,198.11,167,197.47,167.27z"/>
	<path class="st4" d="M153.14,140.2c-0.47,0.28-0.94,0.55-1.41,0.83C151.99,140.4,152.56,140.3,153.14,140.2z"/>
	<path class="st4" d="M154.51,139.48c-0.47,0.25-0.93,0.5-1.4,0.75C153.37,139.61,153.95,139.57,154.51,139.48z"/>
	<path class="st2" d="M262.51,207.87c0.21-0.29,0.41-0.59,0.62-0.88C262.92,207.29,262.72,207.58,262.51,207.87z"/>
	<path class="st0" d="M293.29,235.61c-0.19,0.13-0.3,0.31-0.32,0.54c-1.87,1.85-2.97,4.39-5.3,5.81c-0.68-0.05-1.25,0.11-1.51,0.82
		l0.13-0.1c-0.83,0.08-1.35,0.55-1.6,1.33l0.06-0.06c-0.59,0.04-1.12,0.17-1.32,0.83c-0.3,0.16-0.59,0.31-0.89,0.47
		c-0.31-0.32-0.5-0.19-0.61,0.18l0.04-0.06c-4,0.87-8,1.62-12.14,1.36c-1.21-0.08-2.57-1.51-3.75,0.11
		c-0.27,5.05,0.28,10.16-1.46,15.08c-0.47,1.32-0.33,2.72,0.15,4.09c3.66,10.33,13.98,16.08,24.65,13.62
		c1.19-0.27,2.21-0.62,3.1,0.5c-1.65,2.69-4.45,3.64-7.15,4.76c-1.96,0.16-3.9,0.32-5.87-0.04c-7.51-1.38-13.05-5.53-17.08-11.91
		c-0.45-0.71-0.92-2.97-2.23-1.01c-2.89,4.32-7.32,6.19-11.74,8.17c-3.52,0.26-7.05,0.77-11.53-0.67
		c5.62-1.15,10.18-2.48,13.74-5.92c1.79-1.12,3.06-2.75,4.35-4.38c4.79-6.02,5.64-13.07,5.38-20.41c1.17-4.27,0.23-8.11-2.32-11.64
		l-0.02-0.09c0.16-1.42,0.04-2.71-1.44-3.43l0.04,0.04c0.06-0.65-0.02-1.22-0.72-1.5l0.08,0.1c0.04-0.66-0.1-1.22-0.82-1.44
		c-2.75-3.98-5.51-7.94-9.37-10.99c-6.3-4.99-13.51-7.61-21.43-8.45c0.07-0.09,0.17-0.17,0.2-0.27c0.03-0.09,0-0.3-0.02-0.3
		c-2.36-0.13-4.8-1.26-6.99,0.59c-1.13,0.2-2.25,0.42-3.39,0.6c-12.02,1.89-21.95,7.3-29.18,17.28c0,0,0.07-0.01,0.07-0.01
		c-0.25,0.25-0.49,0.5-0.74,0.76c0,0,0.05-0.05,0.05-0.05c-0.79,0.41-1.14,1.12-1.29,1.96c0,0-0.14,0.13-0.14,0.13
		c-1.81,2.14-2.8,4.71-3.93,7.23c-0.76,1.7-0.21,2.44,1.37,3.1c8.66,3.65,13.76,10.1,15.07,19.46c-0.28-0.22-0.55-0.43-0.82-0.65
		c-0.41-0.42-0.81-0.85-1.22-1.27c0,0,0.04,0.05,0.04,0.05c-0.24-0.26-0.47-0.52-0.71-0.78c0,0,0.1,0.01,0.1,0.01
		c-0.35-0.58-0.62-1.22-1.06-1.72c-6.74-7.79-15-12.25-25.57-11.62c-1.36-0.54-2.74-1.31-3.82,0.46c-0.34,0.1-0.68,0.2-1.02,0.3
		c-1.64-0.96-2.98-0.74-3.9,1.02c-5.61,2.21-10.38,5.73-14.92,9.6c-0.1-4.56,2.75-7.56,5.75-10.32c1.83-1.68,4.11-2.87,6.19-4.28
		c4.96-2.07,10.29-1.81,15.48-2.26c1.91-0.17,2.84-0.65,3.45-2.5c1.62-4.98,4.32-9.4,7.64-13.45c2.85-3.49,2.49-8.12-1.01-11.02
		c-1.76-1.46-3.79-2.61-5.69-3.91c0,0-0.11-0.04-0.11-0.04c-0.61-0.84-1.31-1.58-2.3-1.98c-1.08-1.13-2.16-2.26-3.23-3.39
		c-2.43-4.07-5.77-6.93-10.42-8.29c-2.91-0.85-5.85-0.43-8.76-0.72c-2.22-1.08-4.2-0.73-5.94,1c-0.32,0.14-0.64,0.28-0.96,0.42
		c-0.65-0.62-1.53-1.08-1.5-2.17c1.45-1.82,3.4-2.82,5.59-3.43c3.27-0.02,6.58,0.67,9.8-0.43c0.52,0.16,1.05,0.32,1.57,0.48
		c0.45,1.26,1.15,0.69,1.82,0.24c1.92-0.58,0.73-1.9,0.57-2.84c-1.45-8.37-0.71-16.39,3.81-23.78c3.15-5.15,7.77-7.98,14.38-8.71
		c-2.71,2.99-5,5.51-7.3,8.04c-1.09,0.31-1.55,1.06-1.51,2.16c0,0,0.06-0.09,0.06-0.09c-3.1,3.33-5.09,7.07-4.38,11.81
		c-0.75,11.62,3.8,20.67,13.27,27.33c3.18,3.17,7.44,4.29,11.38,6.02c-0.05,0.1-0.14,0.2-0.15,0.3c-0.01,0.1,0.06,0.28,0.12,0.29
		c2.74,0.48,5.58,2.29,8.07-0.6l0.09-0.03c5.12-1.39,10.24-2.79,15.36-4.18c2.19-0.05,4.99,0.16,4.95-2.85
		c-0.06-4.44,0.72-8.74,1.24-13.08c1.85-4.64,3.86-9.09,8.73-11.5c1.62-0.8,3.05-1.38,5.37-0.58c-3.77,3.4-6.63,7.07-8.45,11.45
		c-1.15,0.8-1.41-1.2-3.05-0.64c2.24,2.47,0.1,5.46,1.42,8.1c0.21,2.38-0.42,4.79,0.32,7.15c0.02,0.39,0.04,0.79,0.06,1.18
		c1.25,1.47,2.63,1.02,4.04,0.29c0.55,0.1,1.1,0.2,1.64,0.3c0.51,1.57,1.7,0.82,2.68,0.79l-0.12-0.02c0.94,1.37,2.32,0.76,3.55,0.79
		c0.42,0,0.83,0,1.25,0c9.64,3.82,17.02,10.32,22.64,18.94c0.13,0.19,0.27,0.38,0.4,0.57c0,0,0.05,0.09,0.05,0.09
		c1.36,3.67,2.77,7.32,4.06,11.01c0.34,0.98,0.89,1.65,1.8,1.93c4.89,1.53,9.71,1.96,14.28-1.04c5.85-2.71,8.48-7.89,10.41-13.59
		c0.52-1.53,0.92-3.1,1.37-4.65c1.43-0.62,0.53-1.85,0.69-2.79c0.23-1.39-0.37-2.93,0.8-4.14c3.27,3.67,2.84,8.13,2.68,12.53
		c-0.86,2.06-1.67,4.13-1.98,6.36c0,0-0.03,0.05-0.03,0.05C293.72,234.03,293.46,234.8,293.29,235.61z"/>
	<path class="st0" d="M211.52,298.22c-1.25-1.09-2.39-2.27-2.83-3.95c-0.16-0.67-0.21-1.39-0.5-2c-3.16-6.54-4.47-13.33-3-20.56
		c0.22-1.1,0.32-2.32-0.49-3.34c0.61-4.76,2.41-9.1,4.92-13.11c3.23-5.15,7.52-8.94,13.82-9.84c0.89,0.96,2.37,0.19,3.51,0.96
		c-1.38,1.42-3.57,1.33-4.22,3.23c0,0,0.07-0.05,0.07-0.05c-0.61,0.04-1.27,0.01-1.27,0.91c-6.6,4.64-9.48,11.5-11.3,18.98
		c-0.3,1.23-0.5,2.48-0.74,3.72c-0.03-0.23-0.03-0.47-0.09-0.69c-0.08-0.31-0.54-0.63-0.55-0.27c-0.07,2.99-0.01,5.99,0.02,8.98
		c0.17-0.05,0.36-0.07,0.51-0.15c0.08-0.04,0.08-0.21,0.12-0.32c1.92,12.08,9.92,19.07,20.23,24.1c0.59,0.29,1.33,0.25,2.01,0.36
		c0.57,0.61,1.29,0.68,2.06,0.59c0.18,0.14,0.38,0.19,0.6,0.16c0.85,0.76,1.87,0.6,2.88,0.52c0.89,0.07,1.78,0.13,2.67,0.2
		c0.8,0.48,1.59,0.48,2.39,0c0.63-0.05,1.27-0.1,1.9-0.15c6.79-0.32,12.32-3.17,16.72-8.29c0,0,0.02-0.02,0.02-0.02
		c0.23-0.22,0.46-0.43,0.7-0.65c1.71-0.93,1.41,0.22,1.15,1.16c-1.46,5.16-4.92,8.62-9.68,10.73c-13.62,6.03-25.7,2.75-36.77-6.3
		c0.43-0.98-0.36-0.6-0.75-0.68c0,0,0.09,0.02,0.09,0.02c-0.32-0.24-0.63-0.49-0.95-0.73c-0.39-0.39-0.78-0.78-1.17-1.17
		c-0.25-0.32-0.49-0.63-0.74-0.95c0,0,0.06,0.09,0.06,0.09c-0.27-0.25-0.54-0.51-0.8-0.76c0,0,0.05,0.08,0.05,0.08
		C212.07,298.67,212.5,297.88,211.52,298.22z"/>
	<path class="st2" d="M185,229.24c7.22-9.99,17.16-15.39,29.18-17.28c1.13-0.18,2.26-0.4,3.38-0.6c2.27-0.01,4.54-0.01,6.81-0.02
		c7.92,0.84,15.13,3.46,21.43,8.45c3.86,3.06,6.62,7.01,9.37,10.99c0.27,0.48,0.55,0.96,0.82,1.44c0,0-0.08-0.1-0.08-0.1
		c0.24,0.5,0.48,1,0.72,1.5c0,0-0.04-0.04-0.04-0.04c0.48,1.14,0.96,2.29,1.44,3.44c0,0,0.02,0.09,0.02,0.09
		c0.92,3.85,2.09,7.65,2.32,11.64c0.26,7.34-0.58,14.39-5.38,20.41c-1.3,1.63-2.56,3.25-4.35,4.38c5.9-10.16,7.57-20.9,3.33-31.97
		c-4.87-12.69-13.11-22.16-27.28-24.47c-8.66-1.41-17.03,0.7-25.15,3.62c-4.91,1.76-9.58,4.06-13.79,7.21
		C186.94,228.54,186.17,229.34,185,229.24z"/>
	<path class="st3" d="M223.45,245.43c-6.3,0.9-10.6,4.69-13.82,9.84c-2.51,4.01-4.31,8.36-4.92,13.11
		c-1.12,4.33-0.89,8.74-0.87,13.15c-1.08-4.57-2.32-9.04-4.6-13.25c-1.19-2.2-3.67-3.65-3.78-6.46
		c-1.31-9.37-6.42-15.81-15.07-19.46c-1.58-0.67-2.14-1.4-1.37-3.1c1.13-2.51,2.12-5.09,3.93-7.23c-0.6,9.9,5.34,13.18,13.46,13.46
		c7.81,0.27,14.97-2.15,22.43-3.36c4.91-0.8,9.71-0.65,13.57,3.21C229.42,245.24,226.43,244.65,223.45,245.43z"/>
	<path class="st3" d="M190.17,211.11c-3.94-1.73-8.2-2.85-11.38-6.02c-3.35-5.11-6.8-10.12-8.32-16.24
		c-0.78-3.13-0.61-6.17-0.66-9.93c1.77,3.56,2.16,6.99,4.02,9.86c7.31,11.26,19.44,14.91,31.99,10.05
		c5.12-1.98,9.67-4.67,14.01-7.89c-0.52,4.35-1.29,8.64-1.24,13.08c0.04,3.01-2.75,2.8-4.94,2.85c-5.64-0.52-10.49,1.84-15.36,4.18
		c0,0-0.09,0.03-0.09,0.03C195.53,212.18,192.85,211.32,190.17,211.11z"/>
	<path class="st3" d="M292.51,280.15c-0.89-1.12-1.91-0.77-3.1-0.5c-10.67,2.46-20.99-3.29-24.65-13.62
		c-0.48-1.37-0.62-2.77-0.15-4.09c1.74-4.92,1.19-10.04,1.46-15.08c5.46,1.26,10.83,1.47,15.9-1.48c0,0-0.04,0.06-0.04,0.06
		c0.23,0.02,0.43-0.04,0.61-0.18c0.3-0.16,0.59-0.31,0.88-0.47c0.44-0.28,0.88-0.55,1.32-0.83c0,0-0.06,0.06-0.06,0.06
		c0.74-0.19,1.38-0.51,1.6-1.33c0,0-0.13,0.1-0.13,0.1c0.68,0.05,1.14-0.31,1.51-0.82c2.33-1.43,3.43-3.97,5.3-5.81
		c-0.17,5.16-4.06,8.13-7.1,11.45c-1.74,1.91-4.28,3.13-6.53,4.53c-4.74,2.95-7.27,8.05-6.41,13.18
		c0.87,5.18,5.49,10.13,10.55,11.22c2.72,0.58,5.46,1.02,8.26,0.83c0.8-0.05,1.82-0.12,2.13,0.77
		C294.21,279.17,293.58,279.89,292.51,280.15z"/>
	<path class="st3" d="M260.96,298.22c-4.4,5.13-9.94,7.98-16.72,8.29c-1.45-1.09-3.14-0.55-4.72-0.67
		c-10.36-0.78-25.82-13.36-26.46-26.22c-0.02-0.32,0.15-0.65,0.35-1.47c1.3,2.09,2.33,3.91,3.52,5.62
		c10.26,14.68,24.83,17.39,41.3,14.81C259.13,298.44,260.05,298.34,260.96,298.22z"/>
	<path class="st3" d="M280.51,239.76c-4.57,2.99-9.39,2.57-14.28,1.04c-0.91-0.29-1.46-0.95-1.8-1.93
		c-1.29-3.69-2.69-7.34-4.06-11.01c0.56,0.11,1.19,0.1,1.67,0.36c10.19,5.56,16.05,5.33,25.28-1.32c-0.57,4.36-3.05,7.25-5.54,10.17
		C281.17,237.8,279.44,238.18,280.51,239.76z"/>
	<path class="st3" d="M174.36,209.47c1.91,1.29,3.93,2.44,5.69,3.91c3.5,2.9,3.86,7.54,1.01,11.02c-3.32,4.05-6.02,8.47-7.64,13.45
		c-0.6,1.85-1.53,2.33-3.45,2.5c-5.19,0.45-10.52,0.19-15.48,2.26c0.64-2.32,2.89-2.12,4.5-2.58c9.4-2.7,14.54-9.12,16.71-18.37
		c0.72-3.09-0.48-5.9-0.89-8.83C174.66,211.71,173.87,210.68,174.36,209.47z"/>
	<path class="st2" d="M161.38,246.59c0.34-0.1,0.68-0.2,1.02-0.3c1.27-0.15,2.55-0.31,3.82-0.46c10.57-0.64,18.83,3.83,25.57,11.62
		c0.44,0.5,0.71,1.15,1.06,1.72c-2.83-0.37-4.45-2.75-6.71-4.06c-13.59-7.9-26.77-6.04-39.79,1.36c-1.01,0.57-1.97,1.24-3.02,1.69
		c-1,0.43-0.78-0.41-0.76-0.95c4.54-3.87,9.31-7.39,14.92-9.6C158.78,247.28,160.08,246.93,161.38,246.59z"/>
	<path class="st3" d="M248.45,280.12c4.42-1.98,8.85-3.85,11.74-8.17c1.31-1.96,1.78,0.3,2.23,1.01
		c4.03,6.38,9.57,10.52,17.08,11.91c1.97,0.36,3.91,0.19,5.87,0.04c-4.44,2.41-9.37,3.24-13.47,0.36
		C264.65,280.16,256.74,279.66,248.45,280.12z"/>
	<path class="st2" d="M149.52,195.05c2.91,0.29,5.86-0.12,8.76,0.72c4.65,1.36,7.99,4.21,10.42,8.29
		c-8.72-5.32-18.39-6.36-28.31-6.38c0.74-0.4,1.47-0.81,2.21-1.21c0.32-0.14,0.64-0.28,0.96-0.42
		C145.56,195.72,147.54,195.39,149.52,195.05z"/>
	<path class="st3" d="M229.91,206.71c-0.55-0.1-1.1-0.2-1.64-0.3c-1.35-0.1-2.69-0.19-4.04-0.29c-0.02-0.39-0.04-0.79-0.06-1.18
		c2.55,1.24,3.86,0.94,3.45-2.37c-0.4-3.23,0.25-6.41,1.49-9.75c1.04,5.39,3.97,9.9,6.17,14.74c-0.93-0.03-1.87-0.06-2.8-0.08
		c0,0,0.12,0.02,0.12,0.03C231.9,206.56,230.86,206.8,229.91,206.71z"/>
	<path class="st4" d="M203.84,281.53c-0.03-4.4-0.25-8.82,0.87-13.15c0.8,1.02,0.71,2.25,0.49,3.34c-1.48,7.23-0.17,14.01,3,20.56
		c0.29,0.61,0.34,1.33,0.5,2C205.6,290.58,204.84,286.01,203.84,281.53z"/>
	<path class="st4" d="M223.45,245.43c2.98-0.78,5.97-0.19,8.96-0.09c-3.22,1.42-6.45,2.85-9.67,4.27c0.65-1.9,2.84-1.81,4.22-3.23
		C225.82,245.61,224.34,246.38,223.45,245.43z"/>
	<path class="st4" d="M223.86,197.79c-1.33-2.64,0.82-5.63-1.42-8.1c1.64-0.57,1.9,1.44,3.05,0.64
		C224.94,192.81,224.4,195.3,223.86,197.79z"/>
	<path class="st4" d="M165.52,177.77c-0.71-4.74,1.28-8.48,4.38-11.81C167.96,169.72,166.06,173.49,165.52,177.77z"/>
	<path class="st4" d="M209.5,280.74c-0.04,0.11-0.04,0.27-0.12,0.32c-0.15,0.09-0.34,0.1-0.51,0.15c-0.02-2.99-0.09-5.99-0.02-8.98
		c0.01-0.35,0.46-0.04,0.55,0.27c0.06,0.22,0.06,0.46,0.09,0.69C209.5,275.7,209.5,278.22,209.5,280.74z"/>
	<path class="st4" d="M293.78,214.59c-1.17,1.21-0.57,2.75-0.8,4.14c-0.16,0.94,0.73,2.17-0.69,2.79c-0.05-2.26-0.12-4.52-0.15-6.78
		c-0.01-0.48-0.81-1.12,0-1.4C293.08,213,293.51,213.8,293.78,214.59z"/>
	<path class="st4" d="M156.5,190.45c-3.22,1.1-6.53,0.41-9.8,0.43C149.91,189.47,153.21,190.14,156.5,190.45z"/>
	<path class="st4" d="M142.61,196.47c-0.74,0.4-1.47,0.81-2.21,1.21c-1.52-1.5,0.13-2.32,0.71-3.38
		C141.09,195.39,141.97,195.85,142.61,196.47z"/>
	<path class="st3" d="M294.48,233.49c0.31-2.23,1.12-4.3,1.98-6.36C296.59,229.49,295.95,231.62,294.48,233.49z"/>
	<path class="st4" d="M232.48,207.47c0.93,0.03,1.87,0.06,2.8,0.08c0.17,0.15,0.36,0.2,0.57,0.17c0.03,0.19,0.09,0.37,0.18,0.54
		C234.8,208.23,233.42,208.84,232.48,207.47z"/>
	<path class="st3" d="M171.94,207.45c0.99,0.41,1.69,1.14,2.3,1.98C172.86,209.49,172.31,208.58,171.94,207.45z"/>
	<path class="st2" d="M183.09,231.89c0.15-0.84,0.5-1.54,1.29-1.96C184.31,230.83,183.95,231.52,183.09,231.89z"/>
	<path class="st4" d="M159.89,191.17c-0.68,0.45-1.37,1.03-1.82-0.24C158.68,191.01,159.28,191.09,159.89,191.17z"/>
	<path class="st3" d="M293.29,235.61c0.17-0.81,0.43-1.58,1.16-2.07C294.46,234.45,294.34,235.29,293.29,235.61z"/>
	<path class="st3" d="M237.28,306.47c-1,0.08-2.02,0.24-2.88-0.52C235.41,305.85,236.42,305.74,237.28,306.47z"/>
	<path class="st4" d="M169.84,166.04c-0.04-1.1,0.42-1.85,1.51-2.16C171.03,164.74,170.64,165.54,169.84,166.04z"/>
	<path class="st4" d="M221.54,250.48c0-0.9,0.66-0.87,1.27-0.91C222.38,249.87,221.96,250.17,221.54,250.48z"/>
	<path class="st2" d="M193.42,259.9c0.41,0.42,0.81,0.85,1.22,1.27C193.83,261.13,193.5,260.64,193.42,259.9z"/>
	<path class="st3" d="M233.8,305.79c-0.77,0.09-1.49,0.02-2.06-0.59C232.5,305.11,233.23,305.16,233.8,305.79z"/>
	<path class="st3" d="M242.34,306.66c-0.8,0.48-1.59,0.48-2.39,0C240.74,306.66,241.54,306.66,242.34,306.66z"/>
	<path class="st3" d="M236.03,208.27c-0.09-0.17-0.15-0.35-0.18-0.54c0.57-0.08,1.05,0.08,1.43,0.54
		C236.87,208.27,236.45,208.27,236.03,208.27z"/>
	<path class="st4" d="M211.52,298.22c0.98-0.34,0.55,0.45,0.65,0.82C211.95,298.77,211.73,298.49,211.52,298.22z"/>
	<path class="st4" d="M215.63,302.46c0.38,0.08,1.18-0.29,0.75,0.68C216.13,302.91,215.88,302.68,215.63,302.46z"/>
	<path class="st3" d="M261.68,297.56c-0.23,0.22-0.46,0.43-0.7,0.65C261.22,297.99,261.45,297.77,261.68,297.56z"/>
	<path class="st2" d="M192.75,259.17c0.24,0.26,0.47,0.52,0.71,0.78C193.22,259.69,192.99,259.43,192.75,259.17z"/>
	<path class="st4" d="M212.85,299.63c0.25,0.32,0.49,0.63,0.74,0.95C213.35,300.26,213.1,299.94,212.85,299.63z"/>
	<path class="st4" d="M214.77,301.75c0.32,0.24,0.63,0.49,0.95,0.73C215.4,302.23,215.09,301.99,214.77,301.75z"/>
	<path class="st3" d="M260.33,227.78c-0.13-0.19-0.27-0.38-0.4-0.57C260.06,227.4,260.19,227.59,260.33,227.78z"/>
	<path class="st2" d="M184.34,229.99c0.25-0.25,0.49-0.5,0.74-0.76C184.83,229.48,184.58,229.74,184.34,229.99z"/>
	<path class="st4" d="M212.12,298.96c0.27,0.25,0.54,0.51,0.8,0.76C212.65,299.46,212.38,299.21,212.12,298.96z"/>
	<path class="st3" d="M340.74,207.11c-0.36,0.11-0.71,0.21-1.07,0.32C340.03,207.33,340.38,207.22,340.74,207.11z"/>
	<path class="st0" d="M313.07,154.21c-0.11-0.21-0.21-0.42-0.32-0.63c0.25,0.03,0.51,0.06,0.76,0.08
		C313.37,153.85,313.22,154.03,313.07,154.21z"/>
	<path class="st4" d="M198.3,211.07c4.86-2.34,9.72-4.7,15.36-4.18C208.53,208.29,203.41,209.68,198.3,211.07z"/>
	<path class="st4" d="M281.98,245.38c-5.07,2.94-10.44,2.74-15.9,1.48c1.18-1.62,2.54-0.19,3.75-0.11
		C273.98,247,277.98,246.24,281.98,245.38z"/>
	<path class="st4" d="M260.38,248.75c-0.23-3.99-1.4-7.79-2.32-11.64C260.61,240.64,261.55,244.48,260.38,248.75z"/>
	<path class="st4" d="M190.17,211.11c2.68,0.2,5.36,1.07,8.04-0.01c-2.49,2.9-5.33,1.08-8.07,0.6c-0.06-0.01-0.12-0.19-0.12-0.29
		C190.03,211.31,190.11,211.21,190.17,211.11z"/>
	<path class="st4" d="M224.37,211.35c-2.27,0.01-4.54,0.01-6.81,0.02c2.19-1.86,4.63-0.72,6.99-0.59c0.01,0,0.05,0.21,0.02,0.3
		C224.54,211.18,224.44,211.26,224.37,211.35z"/>
	<path class="st4" d="M149.52,195.05c-1.98,0.33-3.97,0.67-5.95,1C145.33,194.32,147.3,193.97,149.52,195.05z"/>
	<path class="st4" d="M161.38,246.59c-1.3,0.34-2.61,0.68-3.91,1.02C158.41,245.85,159.74,245.63,161.38,246.59z"/>
	<path class="st4" d="M166.22,245.84c-1.27,0.15-2.55,0.31-3.82,0.46C163.48,244.53,164.86,245.29,166.22,245.84z"/>
	<path class="st4" d="M258.05,237.02c-0.48-1.15-0.96-2.29-1.44-3.44C258.09,234.31,258.21,235.61,258.05,237.02z"/>
	<path class="st4" d="M229.91,206.71c0.94,0.09,1.99-0.15,2.68,0.79C231.62,207.52,230.42,208.28,229.91,206.71z"/>
	<path class="st4" d="M224.23,206.12c1.35,0.1,2.69,0.19,4.04,0.29C226.87,207.14,225.48,207.59,224.23,206.12z"/>
	<path class="st4" d="M286.29,242.69c-0.22,0.82-0.86,1.14-1.6,1.33C284.94,243.24,285.46,242.77,286.29,242.69z"/>
	<path class="st4" d="M256.65,233.63c-0.24-0.5-0.48-1-0.72-1.5C256.63,232.4,256.71,232.98,256.65,233.63z"/>
	<path class="st4" d="M256,232.23c-0.27-0.48-0.55-0.96-0.82-1.44C255.9,231.01,256.04,231.57,256,232.23z"/>
	<path class="st4" d="M284.76,243.96c-0.44,0.28-0.88,0.55-1.32,0.83C283.64,244.13,284.17,244,284.76,243.96z"/>
	<path class="st4" d="M287.67,241.97c-0.37,0.51-0.83,0.87-1.51,0.82C286.43,242.07,286.99,241.91,287.67,241.97z"/>
	<path class="st4" d="M282.55,245.26c-0.18,0.14-0.39,0.2-0.61,0.18C282.05,245.07,282.24,244.94,282.55,245.26z"/>
</g>
<path class="st5" d="M273.72,25.47c3.43,0.34,6.55,0.56,9.63,1.04c0.68,0.1,1.62,1.04,1.73,1.72c0.19,1.17,0,2.48-0.32,3.66
	c-1.51,5.61,1.62,9.62,7.54,9.24c1.06-0.07,2.3-1.27,2.98-2.27c0.67-0.97,0.72-2.37,1.08-3.56c0.27-0.9,0.54-1.81,0.94-2.65
	c1.24-2.62,3.94-2.46,10.02,0.41c2.49,1.18,1.36,2.71,0.74,4.41c-0.62,1.73-1.16,3.58-1.18,5.39c-0.01,1,0.87,2.4,1.77,2.95
	c6.45,3.97,7.94,3.44,10.97-3.52c1.75-4.02,1.75-4.02,5.69-2.28c6.45,2.84,6.58,2.89,3.88,9.2c-1.23,2.86-0.36,4.62,1.99,6.01
	c1.06,0.63,2.29,0.99,3.43,1.49c2.6,1.14,4.24,0.22,5.64-2.17c3.83-6.58,3.9-6.54,10.16-2.36c4.05,2.71,3.94,2.72,1.26,7.04
	c-1.01,1.63-2.38,4.61-1.71,5.42c1.84,2.22,4.57,3.83,7.2,5.18c0.57,0.29,2.33-1.36,3.32-2.35c1.67-1.67,2.93-4.59,4.78-4.96
	c1.52-0.31,3.65,2.28,5.49,3.61c3.79,2.75,3.79,2.76,0.71,6.35c-0.48,0.56-0.99,1.08-1.43,1.67c-2.33,3.13-2.23,4.19,0.61,6.86
	c5.4,5.09,5.96,5.06,10.78-0.59c2.77-3.25,2.76-3.24,5.87-0.22c1.78,1.73,3.6,3.43,5.58,5.31c-1.99,2.12-3.87,4.04-5.64,6.06
	c-1.81,2.06-1.74,3.85,0.43,5.91c7.23,6.85,5.6,5.05,11.89,0.16c0.73-0.57,1.43-1.17,2.26-1.85c2.07,2.55,4.14,4.87,5.88,7.4
	c0.41,0.6,0.07,2.19-0.48,2.89c-1.08,1.38-2.59,2.42-3.86,3.67c-2.24,2.21-2.41,4.45-0.6,6.98c3.8,5.3,5.42,5.49,10.74,1.26
	c3.23-2.57,3.21-2.56,5.14,1.19c0.52,1.01,1.14,2,1.83,2.91c2.1,2.77,1.99,3.85-0.79,5.82c-0.85,0.6-1.83,1.03-2.65,1.67
	c-2.68,2.11-3.1,3.95-1.64,6.75c3.23,6.2,4.6,6.66,10.45,2.79c2.39-1.58,3.43-1.26,4.62,1.36c3.07,6.8,3.13,6.65-3.05,10.68
	c-1.36,0.89-3.2,3.09-2.89,4.11c0.82,2.75,2.21,5.76,4.33,7.52c1.02,0.85,4.21-0.83,6.38-1.49c1.05-0.32,2.01-0.94,3.33-1.58
	c1.24,3.55,2.43,6.75,3.43,10c0.16,0.54-0.34,1.63-0.86,1.95c-1.13,0.7-2.45,1.13-3.73,1.58c-4.81,1.69-5.46,2.82-4.43,7.84
	c0.97,4.73,3.16,5.87,7.93,4.28c1.52-0.51,3.11-0.77,4.86-1.18c0.2,1.11,0.33,1.7,0.41,2.3c0.38,2.77,1.83,6.11,0.78,8.14
	c-0.89,1.71-4.8,1.69-7.18,2.85c-1.08,0.53-1.74,2.01-2.45,3.15c-0.23,0.37-0.04,1.02-0.03,1.55c0.2,7.49,1.13,8.36,8.59,7.08
	c2.58-0.44,3.57,0.61,3.81,2.8c0.22,2.07,0.43,4.22,0.12,6.25c-0.15,0.98-1.41,1.89-2.34,2.62c-0.39,0.31-1.22,0.06-1.84,0.07
	c-6.65,0.11-8.22,1.94-7.3,8.42c0.39,2.71,1.92,3.98,4.65,4.07c7.11,0.26,7.11,0.29,6.95,7.32c-0.1,4.53-0.86,5.24-5.24,4.44
	c-2.72-0.5-5.66-0.15-6.54,2.31c-0.9,2.52-0.66,5.72,0.03,8.38c0.27,1.03,3.1,1.76,4.84,1.96c4.44,0.52,5.01,1.1,4.08,5.58
	c-0.11,0.51-0.21,1.02-0.32,1.53c-1.16,5.29-1.51,5.54-6.65,4.2c-2.12-0.55-4.53-1.13-5.7,0.98c-1.3,2.35-2.21,5.15-2.32,7.8
	c-0.04,0.99,2.51,2.59,4.12,3.06c5.48,1.59,6.03,2.39,4.07,7.62c-0.29,0.78-0.55,1.57-0.82,2.36c-1.09,3.13-1.92,3.46-5.15,2.33
	c-1.47-0.52-3.08-1.25-4.51-1.05c-1.42,0.19-3.09,1.14-3.93,2.29c-0.99,1.36-1.3,3.26-1.75,4.97c-0.63,2.4,1.09,3.39,2.84,4.2
	c6.22,2.88,6.23,2.86,3.25,8.92c-2.58,5.24-2.58,5.24-7.78,2.65c-3.1-1.54-4.94-1.05-6.92,1.88c-0.52,0.78-1.01,1.59-1.47,2.4
	c-1.7,2.97-1.38,4.26,1.51,6.26c5.65,3.91,5.65,3.91,1.86,9.71c-2.9,4.44-3.09,4.47-7.4,1.39c-4.32-3.09-4.69-3.03-7.94,1.32
	c-3.83,5.12-3.76,5.55,1.5,9.52c3.44,2.6,3.44,2.6,0.91,6.16c-0.24,0.34-0.51,0.66-0.75,1c-4.12,5.89-4.12,5.89-9.56,1.5
	c-3.11-2.51-4.38-2.36-6.99,0.83c-0.2,0.24-0.4,0.48-0.6,0.72c-3.59,4.23-3.56,5,0.38,9.09c0.51,0.53,0.99,1.09,1.52,1.58
	c1.49,1.38,1.48,2.46-0.28,3.75c-1.67,1.23-3.18,2.74-4.53,4.33c-1.73,2.04-3.05,1.58-4.51-0.24c-0.97-1.22-2.02-2.41-3.16-3.47
	c-1.9-1.76-3.89-1.85-5.82,0.03c-0.45,0.44-0.92,0.86-1.36,1.3c-4.11,4.12-4.14,5.16-0.37,9.65c0.79,0.95,1.5,1.97,2.45,3.23
	c-2.67,2.1-5.09,4.21-7.75,5.94c-0.66,0.43-2.43-0.02-3.13-0.67c-1.44-1.32-2.47-3.09-3.74-4.6c-1.51-1.79-3.24-2.17-5.15-0.54
	c-0.32,0.27-0.65,0.53-0.99,0.77c-5.87,4.06-6.11,4.94-1.95,10.56c1.61,2.18,1.27,3.52-0.92,4.73c-1.28,0.71-2.58,1.38-3.85,2.1
	c-3.92,2.21-4.52,2.01-6.63-2.11c-0.62-1.2-1.3-2.39-2.14-3.43c-1.21-1.49-2.71-1.88-4.38-0.59c-0.41,0.32-0.86,0.59-1.32,0.84
	c-5.9,3.23-6.25,4.19-2.89,10.22c1.32,2.37,0.77,3.64-1.58,4.58c-1.93,0.77-3.79,1.71-5.72,2.47c-1.64,0.65-2.84,0.11-3.47-1.6
	c-0.25-0.68-0.65-1.31-0.88-2c-2.22-6.61-5.34-6.27-11.42-2.72c-2.14,1.25-2.18,3.47-1.32,5.85c2.07,5.79,1.98,5.82-3.96,7.55
	c-0.8,0.23-1.58,0.55-2.38,0.77c-3.33,0.89-4.05,0.39-4.41-2.99c-0.65-6.12-3.76-8.15-9.33-6.04c-2.74,1.03-4.37,2.75-3.68,5.96
	c0.29,1.32,0.73,2.75,0.48,4.01c-0.21,1.08-1.11,2.56-2.04,2.87c-2.04,0.69-4.3,0.77-6.47,1.07c-1.74,0.24-2.85-0.45-3.02-2.27
	c-0.16-1.66-0.18-3.33-0.34-4.99c-0.26-2.73-1.72-4.17-4.55-4.01c-0.1,0.01-0.21,0.03-0.31,0.03c-7.33,0.46-7.85,1.05-7.54,8.47
	c0.15,3.64-0.41,4.31-3.97,4.29c-8.58-0.06-7.38,1.39-7.45-7.4c-0.03-3.88-0.8-4.68-4.74-4.81c-6.86-0.22-7.59,0.36-7.77,7.17
	c-0.08,2.98-0.97,4.58-4.22,3.88c-0.1-0.02-0.21-0.01-0.31-0.01c-7.58-0.28-7.58-0.28-6.5-7.87c0.48-3.39-0.57-4.9-3.85-5.52
	c-6.13-1.16-7.38-0.33-8.56,5.65c-0.98,4.95-1.2,5.09-6.19,3.81c-7.16-1.83-7.14-1.82-4.69-9.16c0.28-0.85,0.59-2,0.25-2.7
	c-1.51-3.1-4.76-3.31-7.55-3.5c-1.26-0.09-2.76,1.63-3.95,2.74c-0.54,0.5-0.61,1.52-0.89,2.3c-1.63,4.65-2.66,5.12-7.36,3.4
	c-5.47-2.01-5.47-2.01-3.46-7.28c2-5.24-0.58-9.43-6.22-9.28c-1.55,0.04-3.6,2.01-4.45,3.62c-3.16,5.91-3.61,6.16-9.43,2.67
	c-1.14-0.68-2.33-1.28-3.68-2.02c1.29-2.23,2.5-4.27,3.67-6.33c1.18-2.06,0.81-3.78-1.18-5.14c-0.69-0.47-1.31-1.04-2.01-1.5
	c-3.81-2.49-4.68-2.33-7.45,1.31c-4.05,5.33-4.05,5.33-9.73,1.83c-3.51-2.16-3.59-2.7-1.04-5.99c0.76-0.99,1.43-2.05,2.11-3.1
	c1.31-2.03,0.84-3.83-0.93-5.25c-1.21-0.97-2.52-2.11-3.95-2.44c-1.25-0.29-3.1,0.02-4.03,0.82c-2.11,1.81-3.82,4.08-5.86,6.35
	c-2.99-2.39-5.79-4.64-8.67-6.94c1.98-2.49,3.75-4.66,5.47-6.86c2.22-2.85,0.17-4.6-1.73-6.31c-1.92-1.72-3.94-3.42-6.56-1.19
	c-1.43,1.21-2.8,2.52-4.1,3.87c-1.44,1.5-2.72,1.63-4.26,0.08c-1.9-1.91-3.94-3.68-6.52-6.08c2.3-2.03,4.14-3.55,5.85-5.19
	c2.08-2,2.43-4,0.37-6.5c-3.57-4.36-5.33-4.75-9.67-1.39c-1.3,1.01-2.56,2.07-3.92,3.17c-2.19-2.59-4.31-4.9-6.13-7.43
	c-0.36-0.5,0.12-2.09,0.71-2.72c1.34-1.44,3.03-2.56,4.49-3.9c1.75-1.6,2.39-3.4,0.66-5.46c-0.33-0.4-0.58-0.87-0.88-1.3
	c-3.26-4.69-4.4-4.92-9.11-1.79c-4.3,2.86-4.31,2.85-6.82-1.8c-0.25-0.46-0.49-0.92-0.73-1.38c-2.19-4.18-2.19-4.18,1.92-6.61
	c5.25-3.1,5.77-7.8,1.13-11.96c-0.73-0.66-2.36-0.82-3.38-0.53c-1.78,0.51-3.52,1.37-5.06,2.41c-1.73,1.16-2.68,0.54-3.48-0.97
	c-1.07-2.02-2.26-4.01-3.04-6.15c-0.29-0.82,0.11-2.39,0.77-2.93c1.15-0.96,2.7-1.48,4.14-2.03c3.45-1.33,4.72-4.16,3.26-7.5
	c-0.42-0.95-0.95-1.86-1.37-2.81c-0.91-2.1-2.36-2.64-4.56-1.97c-2.26,0.69-5.14,2.13-6.77,1.31c-1.58-0.8-1.81-4.11-2.83-6.22
	c-1.08-2.23-0.11-3.61,1.67-4.69c0.69-0.42,1.55-0.6,2.36-0.8c5.67-1.44,6.88-3.78,4.67-9.08c-1.41-3.39-2.81-4.03-6.72-3.11
	c-5.56,1.3-5.56,1.3-6.43-4.34c-0.92-5.94-0.92-5.94,5.12-7.05c3.88-0.72,4.87-2.25,4.37-6.78c-0.52-4.8-1.37-5.6-5.73-5.45
	c-6.79,0.24-6.79,0.24-6.69-6.54c0.07-4.69,0.07-4.69,4.83-4.78c5.73-0.1,8.86-5.37,5.99-10.47c-0.6-1.07-2.49-1.75-3.88-1.97
	c-2.13-0.32-4.35-0.09-7.5-0.09c0.51-3.62,0.89-6.94,1.53-10.21c0.11-0.54,1.38-1.14,2.16-1.2c1.76-0.15,3.56-0.06,5.33,0.08
	c3.33,0.27,4.38-1.72,4.78-4.52c0.67-4.77,0.04-6.44-3.09-7.34c-1.48-0.43-3.07-0.52-4.63-0.67c-2.71-0.27-3.43-1.29-2.67-3.95
	c0.29-1,0.72-1.98,0.87-3c0.96-6.54,1.52-4.81,6.37-4.18c1.89,0.25,4.97,0.22,5.64-0.85c1.45-2.33,2.13-5.39,2.19-8.18
	c0.02-0.91-2.77-2.2-4.46-2.76c-5.33-1.77-5.37-1.67-3.94-7.03c0.24-0.91,0.39-1.86,0.77-2.71c1.02-2.22,2.5-3.38,4.92-1.72
	c0.17,0.12,0.35,0.27,0.54,0.31c2.12,0.5,4.65,1.94,6.27,1.25c3.11-1.33,4-4.91,3.74-8.03c-0.13-1.48-2.11-3.2-3.67-4.08
	c-5.05-2.83-5.13-2.7-3.17-8.08c0.36-0.98,0.79-1.93,1.29-2.85c1.08-1.98,2.59-2.25,4.41-0.99c0.09,0.06,0.15,0.15,0.24,0.2
	c6.23,4.06,7.27,3.7,10.53-2.85c1.46-2.93,0.36-4.73-1.86-6.41c-1.86-1.41-4.82-2.58-5.23-4.34c-0.36-1.58,2.11-3.79,3.3-5.74
	c2.14-3.48,2.48-3.56,5.67-1.15c5.6,4.23,7.39,3.71,10.49-2.65c1.25-2.57,0.67-4.36-1.51-5.94c-1.84-1.34-3.63-2.75-5.7-4.33
	c2.24-2.63,4.14-5.11,6.35-7.26c0.54-0.52,2.33-0.31,3.2,0.18c1.43,0.8,2.66,2.02,3.83,3.2c2.37,2.37,4.4,1.8,6.3-0.54
	c0.72-0.89,1.37-1.84,2.12-2.7c1.84-2.11,1.41-3.91-0.56-5.66c-1.85-1.64-3.62-3.37-5.83-5.44c2.53-2.37,4.71-4.63,7.15-6.54
	c0.58-0.45,2.31-0.08,3.08,0.5c1.65,1.25,3.01,2.88,4.52,4.33c1.34,1.28,2.74,1.34,4.16,0.09c0.71-0.62,1.44-1.21,2.17-1.8
	c3.29-2.64,3.49-4.7,0.78-7.92c-4.15-4.91-4.15-4.91,0.99-8.8c4.21-3.19,4.2-3.18,7.11,1.11c0.58,0.86,1.19,1.72,1.85,2.53
	c1.57,1.9,3.37,2.35,5.46,0.79c0.42-0.31,0.88-0.56,1.32-0.85c4.49-2.98,4.84-5.1,1.53-9.33c-0.83-1.06-1.71-2.08-3.06-3.71
	c3.26-2.03,6.25-3.99,9.37-5.7c0.41-0.22,1.8,0.69,2.28,1.39c0.82,1.18,1.14,2.7,1.94,3.9c1.21,1.82,2.5,3.73,5.23,3.17
	c2.29-0.47,6.78-4.09,6.47-5.79c-0.35-1.95-1.4-3.89-2.58-5.53c-1.38-1.92-1.2-3.22,0.77-4.31c2.09-1.15,4.17-2.37,6.39-3.19
	c0.62-0.23,2.02,0.63,2.55,1.36c0.96,1.34,1.43,3.01,2.27,4.44c2.24,3.8,3.13,4.21,7.26,2.5c3.88-1.61,6.13-4.26,3.27-8.41
	c-2.72-3.94-2.07-5.19,2.44-6.72c6.09-2.06,6.07-2.05,8.41,3.74c0.47,1.16,1.04,2.29,1.68,3.35c1,1.66,2.41,2.19,4.26,1.3
	c1.03-0.49,2.14-0.81,3.2-1.24c2.38-0.96,3.3-2.78,2.96-5.24c-0.14-1.03-0.46-2.03-0.75-3.04c-0.99-3.54-0.73-4.19,2.78-5.15
	c2-0.55,4.1-0.91,6.16-0.94c0.75-0.01,1.6,1.11,2.24,1.85c0.28,0.33,0.16,1.01,0.21,1.53c0.96,8.87,2.68,7.01,9.39,6.54
	c1.19-0.08,2.53-2.15,3.24-3.58c0.48-0.97-0.02-2.43-0.14-3.67c-0.08-0.82-0.5-1.69-0.34-2.45c1.11-5.4,5.86-2.26,8.77-3.49
	c1.76-0.74,3.24,0.94,3.23,3.15c0,0.42,0,0.84,0,1.26c0.05,7.66,1.05,8.57,8.57,7.96c2.28-0.18,3.74-1.17,3.93-3.6
	c0.1-1.35,0.35-2.71,0.32-4.06c-0.1-4.75-0.14-4.75,4.48-4.77c0.1,0,0.21,0,0.31,0c7.69,0,7.69,0,6.28,7.61
	c-0.67,3.6,0.62,5.23,4.34,5.48c7.08,0.49,7.46,0.17,8.44-7.1C273.35,27.72,273.51,26.81,273.72,25.47z M248.87,400.74
	c4.82-0.59,13.9-1.8,23-2.8c21.29-2.33,41.18-9.23,59.66-19.63c25.15-14.17,45.89-33.34,61.21-58.07
	c11.67-18.84,19.78-38.98,23.55-60.9c3.12-18.16,3.93-36.3,1.57-54.6c-2.39-18.59-7.49-36.36-16-53.04
	c-13.42-26.31-31.8-48.35-56.11-65.51c-25.97-18.33-54.99-27.71-86.23-30.85c-16.82-1.69-33.53-0.36-50.17,2.92
	c-23.5,4.63-45.16,13.49-64.64,27.32c-21.16,15.03-38.19,33.86-50.94,56.62c-10.53,18.79-17.94,38.62-20.91,59.91
	c-3.09,22.12-2.16,44.16,2.94,66c8.54,36.53,26.99,67.23,55.63,91.2C163.98,386.55,202.06,399.77,248.87,400.74z"/>
</svg>
