<?xml version="1.0" encoding="utf-8"?>
<!-- Generator: Adobe Illustrator 25.1.0, SVG Export Plug-In . SVG Version: 6.00 Build 0)  -->
<svg version="1.1" id="Layer_1" xmlns="http://www.w3.org/2000/svg" xmlns:xlink="http://www.w3.org/1999/xlink" x="0px" y="0px"
	 viewBox="0 0 480 480" style="enable-background:new 0 0 480 480;" xml:space="preserve">
<style type="text/css">
	.st0{fill:#010101;}
</style>
<g>
	<path d="M86.48,200.19c52.17,6.24,98.38-6.84,139.78-39.3c0.85,1.17,1.89,2.44,2.77,3.81c20.24,31.38,29.79,65.76,28.01,103.03
		c-0.87,18.25-5.4,35.69-14.71,51.71c-19.21,33.06-52.51,42.63-86.23,24.63c-18.39-9.82-32.43-24.25-43.37-41.74
		C93.2,271.12,84.6,237.04,86.48,200.19z M219.62,272.97c0-0.62,0.18-1.32-0.03-1.86c-0.76-2-1.66-3.95-2.5-5.92
		c-1.41,1.54-3.37,2.85-4.15,4.67c-9.92,23.21-34.93,31.77-57.21,19.59c-1.61-0.88-3.85-0.61-5.79-0.88
		c0.45,1.95,0.38,4.26,1.44,5.8c9.09,13.22,26.09,18.78,41.8,13.91C208.69,303.46,219.64,288.86,219.62,272.97z M117.04,263.27
		c0.74-0.01,1.48-0.02,2.22-0.02c0.58-1.38,1.19-2.74,1.75-4.13c3.66-9.1,10.26-14.59,20.11-14.95c4.05-0.15,8.15,1.58,12.24,2.37
		c0.95,0.18,1.96,0.04,2.94,0.05c-0.18-0.98-0.27-1.99-0.59-2.92c-0.19-0.56-0.69-1.04-1.13-1.47c-6.47-6.28-14.1-8.7-22.75-5.82
		c-8.7,2.9-14.14,9.03-15.28,18.31C116.21,257.49,116.85,260.41,117.04,263.27z M231.47,232.53c0.47-0.21,0.94-0.43,1.4-0.64
		c-0.36-1.69-0.46-3.5-1.14-5.06c-3.54-8.18-12.64-13.64-21.44-13.04c-9.05,0.62-17.11,6.86-19.7,15.47
		c-0.45,1.49-0.14,3.2-0.18,4.81c1.31-0.76,2.91-1.26,3.9-2.32c9.93-10.73,23.56-11.32,34.38-1.38
		C229.56,231.15,230.54,231.81,231.47,232.53z"/>
	<path d="M263.87,242.56c-2.8-13.23-5.53-26.14-8.32-39.34c10.35,0.42,19.31-2.52,23.52-14.11c-1.3,0.4-2.58,0.86-3.9,1.2
		c-4.77,1.22-9.53,3.31-14.32,3.37c-5.8,0.07-10.7-1.99-13.35-8.68c-4.9-12.32-12.04-23.52-20.44-34.15
		c-2.15,1.87-4.11,3.58-6.06,5.28c-0.36-0.19-0.72-0.39-1.07-0.58c4.08-9.48,8.17-18.96,12.5-29.03
		c22.04,15.25,45.82,23.69,71.15,27.76c25.21,4.05,50.34,3.68,75.59-3.73c6.37,49.25-1.36,94.69-32.69,134.16
		c-13.32,16.78-30.15,29.02-51.96,32.58c-13.04,2.13-25.46-0.11-37.02-6.74c-2.01-1.15-2.5-2.17-1.66-4.44
		c5.68-15.39,8.32-31.32,7.91-47.72c-0.07-2.81,0.68-4.02,3.6-4.76c17.41-4.39,37.38,2.95,47.54,17.76c0.7,1.03,1.21,2.3,2.14,3.03
		c0.86,0.68,2.34,1.31,3.22,1c0.8-0.28,1.84-2.04,1.61-2.79c-1.68-5.42-2.62-11.46-5.72-15.98c-10.46-15.24-31.5-21.31-49.27-15.13
		C265.86,241.87,264.84,242.22,263.87,242.56z M315.54,197.24c-1.66,5.38,2.45,12.2,9.08,16.1c9.13,5.37,21.06,3.59,28.25-4.22
		c4.54-4.93,6.23-10.58,3.85-14.1C343.96,210.43,330.05,210.88,315.54,197.24z"/>
</g>
<path class="st0" d="M268.48,29.07c3.43,0.34,6.55,0.56,9.63,1.04c0.68,0.1,1.62,1.04,1.73,1.72c0.19,1.17,0,2.48-0.32,3.66
	c-1.51,5.61,1.62,9.62,7.54,9.24c1.06-0.07,2.3-1.27,2.98-2.27c0.67-0.97,0.72-2.37,1.08-3.56c0.27-0.9,0.54-1.81,0.94-2.65
	c1.24-2.62,3.94-2.46,10.02,0.41c2.49,1.18,1.36,2.71,0.74,4.41c-0.62,1.73-1.16,3.58-1.18,5.39c-0.01,1,0.87,2.4,1.77,2.95
	c6.45,3.97,7.94,3.44,10.97-3.52c1.75-4.02,1.75-4.02,5.69-2.28c6.45,2.84,6.58,2.89,3.88,9.2c-1.23,2.86-0.36,4.62,1.99,6.01
	c1.06,0.63,2.29,0.99,3.43,1.49c2.6,1.14,4.24,0.22,5.64-2.17c3.83-6.58,3.9-6.54,10.16-2.36c4.05,2.71,3.94,2.72,1.26,7.04
	c-1.01,1.63-2.38,4.61-1.71,5.42c1.84,2.22,4.57,3.83,7.2,5.18c0.57,0.29,2.33-1.36,3.32-2.35c1.67-1.67,2.93-4.59,4.78-4.96
	c1.52-0.31,3.65,2.28,5.49,3.61c3.79,2.75,3.79,2.76,0.71,6.35c-0.48,0.56-0.99,1.08-1.43,1.67c-2.33,3.13-2.23,4.19,0.61,6.86
	c5.4,5.09,5.96,5.06,10.78-0.59c2.77-3.25,2.76-3.24,5.87-0.22c1.78,1.73,3.6,3.43,5.58,5.31c-1.99,2.12-3.87,4.04-5.64,6.06
	c-1.81,2.06-1.74,3.85,0.43,5.91c7.23,6.85,5.6,5.05,11.89,0.16c0.73-0.57,1.43-1.17,2.26-1.85c2.07,2.55,4.14,4.87,5.88,7.4
	c0.41,0.6,0.07,2.19-0.48,2.89c-1.08,1.38-2.59,2.42-3.86,3.67c-2.24,2.21-2.41,4.45-0.6,6.98c3.8,5.3,5.42,5.49,10.74,1.26
	c3.23-2.57,3.21-2.56,5.14,1.19c0.52,1.01,1.14,2,1.83,2.91c2.1,2.77,1.99,3.85-0.79,5.82c-0.85,0.6-1.83,1.03-2.65,1.67
	c-2.68,2.11-3.1,3.95-1.64,6.75c3.23,6.2,4.6,6.66,10.45,2.79c2.39-1.58,3.43-1.26,4.62,1.36c3.07,6.8,3.13,6.65-3.05,10.68
	c-1.36,0.89-3.2,3.09-2.89,4.11c0.82,2.75,2.21,5.76,4.33,7.52c1.02,0.85,4.21-0.83,6.38-1.49c1.05-0.32,2.01-0.94,3.33-1.58
	c1.24,3.55,2.43,6.75,3.43,10c0.16,0.54-0.34,1.63-0.86,1.95c-1.13,0.7-2.45,1.13-3.73,1.58c-4.81,1.69-5.46,2.82-4.43,7.84
	c0.97,4.73,3.16,5.87,7.93,4.28c1.52-0.51,3.11-0.77,4.86-1.18c0.2,1.11,0.33,1.7,0.41,2.3c0.38,2.77,1.83,6.11,0.78,8.14
	c-0.89,1.71-4.8,1.69-7.18,2.85c-1.08,0.53-1.74,2.01-2.45,3.15c-0.23,0.37-0.04,1.02-0.03,1.55c0.2,7.49,1.13,8.36,8.59,7.08
	c2.58-0.44,3.57,0.61,3.81,2.8c0.22,2.07,0.43,4.22,0.12,6.25c-0.15,0.98-1.41,1.89-2.34,2.62c-0.39,0.31-1.22,0.06-1.84,0.07
	c-6.65,0.11-8.22,1.94-7.3,8.42c0.39,2.71,1.92,3.98,4.65,4.07c7.11,0.26,7.11,0.29,6.95,7.32c-0.1,4.53-0.86,5.24-5.24,4.44
	c-2.72-0.5-5.66-0.15-6.54,2.31c-0.9,2.52-0.66,5.72,0.03,8.38c0.27,1.03,3.1,1.76,4.84,1.96c4.44,0.52,5.01,1.1,4.08,5.58
	c-0.11,0.51-0.21,1.02-0.32,1.53c-1.16,5.29-1.51,5.54-6.65,4.2c-2.12-0.55-4.53-1.13-5.7,0.98c-1.3,2.35-2.21,5.15-2.32,7.8
	c-0.04,0.99,2.51,2.59,4.12,3.06c5.48,1.59,6.03,2.39,4.07,7.62c-0.29,0.78-0.55,1.57-0.82,2.36c-1.09,3.13-1.92,3.46-5.15,2.33
	c-1.47-0.52-3.08-1.25-4.51-1.05c-1.42,0.19-3.09,1.14-3.93,2.29c-0.99,1.36-1.3,3.26-1.75,4.97c-0.63,2.4,1.09,3.39,2.84,4.2
	c6.22,2.88,6.23,2.86,3.25,8.92c-2.58,5.24-2.58,5.24-7.78,2.65c-3.1-1.54-4.94-1.05-6.92,1.88c-0.52,0.78-1.01,1.59-1.47,2.4
	c-1.7,2.97-1.38,4.26,1.51,6.26c5.65,3.91,5.65,3.91,1.86,9.71c-2.9,4.44-3.09,4.47-7.4,1.39c-4.32-3.09-4.69-3.03-7.94,1.32
	c-3.83,5.12-3.76,5.55,1.5,9.52c3.44,2.6,3.44,2.6,0.91,6.16c-0.24,0.34-0.51,0.66-0.75,1c-4.12,5.89-4.12,5.89-9.56,1.5
	c-3.11-2.51-4.38-2.36-6.99,0.83c-0.2,0.24-0.4,0.48-0.6,0.72c-3.59,4.23-3.56,5,0.38,9.09c0.51,0.53,0.99,1.09,1.52,1.58
	c1.49,1.38,1.48,2.46-0.28,3.75c-1.67,1.23-3.18,2.74-4.53,4.33c-1.73,2.04-3.05,1.58-4.51-0.24c-0.97-1.22-2.02-2.41-3.16-3.47
	c-1.9-1.76-3.89-1.85-5.82,0.03c-0.45,0.44-0.92,0.86-1.36,1.3c-4.11,4.12-4.14,5.16-0.37,9.65c0.79,0.95,1.5,1.97,2.45,3.23
	c-2.67,2.1-5.09,4.21-7.75,5.94c-0.66,0.43-2.43-0.02-3.13-0.67c-1.44-1.32-2.47-3.09-3.74-4.6c-1.51-1.79-3.24-2.17-5.15-0.54
	c-0.32,0.27-0.65,0.53-0.99,0.77c-5.87,4.06-6.11,4.94-1.95,10.56c1.61,2.18,1.27,3.52-0.92,4.73c-1.28,0.71-2.58,1.38-3.85,2.1
	c-3.92,2.21-4.52,2.01-6.63-2.11c-0.62-1.2-1.3-2.39-2.14-3.43c-1.21-1.49-2.71-1.88-4.38-0.59c-0.41,0.32-0.86,0.59-1.32,0.84
	c-5.9,3.23-6.25,4.19-2.89,10.22c1.32,2.37,0.77,3.64-1.58,4.58c-1.93,0.77-3.79,1.71-5.72,2.47c-1.64,0.65-2.84,0.11-3.47-1.6
	c-0.25-0.68-0.65-1.31-0.88-2c-2.22-6.61-5.34-6.27-11.42-2.72c-2.14,1.25-2.18,3.47-1.32,5.85c2.07,5.79,1.98,5.82-3.96,7.55
	c-0.8,0.23-1.58,0.55-2.38,0.77c-3.33,0.89-4.05,0.39-4.41-2.99c-0.65-6.12-3.76-8.15-9.33-6.04c-2.74,1.03-4.37,2.75-3.68,5.96
	c0.29,1.32,0.73,2.75,0.48,4.01c-0.21,1.08-1.11,2.56-2.04,2.87c-2.04,0.69-4.3,0.77-6.47,1.07c-1.74,0.24-2.85-0.45-3.02-2.27
	c-0.16-1.66-0.18-3.33-0.34-4.99c-0.26-2.73-1.72-4.17-4.55-4.01c-0.1,0.01-0.21,0.03-0.31,0.03c-7.33,0.46-7.85,1.05-7.54,8.47
	c0.15,3.64-0.41,4.31-3.97,4.29c-8.58-0.06-7.38,1.39-7.45-7.4c-0.03-3.88-0.8-4.68-4.74-4.81c-6.86-0.22-7.59,0.36-7.77,7.17
	c-0.08,2.98-0.97,4.58-4.22,3.88c-0.1-0.02-0.21-0.01-0.31-0.01c-7.58-0.28-7.58-0.28-6.5-7.87c0.48-3.39-0.57-4.9-3.85-5.52
	c-6.13-1.16-7.38-0.33-8.56,5.65c-0.98,4.95-1.2,5.09-6.19,3.81c-7.16-1.83-7.14-1.82-4.69-9.16c0.28-0.85,0.59-2,0.25-2.7
	c-1.51-3.1-4.76-3.31-7.55-3.5c-1.26-0.09-2.76,1.63-3.95,2.74c-0.54,0.5-0.61,1.52-0.89,2.3c-1.63,4.65-2.66,5.12-7.36,3.4
	c-5.47-2.01-5.47-2.01-3.46-7.28c2-5.24-0.58-9.43-6.22-9.28c-1.55,0.04-3.6,2.01-4.45,3.62c-3.16,5.91-3.61,6.16-9.43,2.67
	c-1.14-0.68-2.33-1.28-3.68-2.02c1.29-2.23,2.5-4.27,3.67-6.33c1.18-2.06,0.81-3.78-1.18-5.14c-0.69-0.47-1.31-1.04-2.01-1.5
	c-3.81-2.49-4.68-2.33-7.45,1.31c-4.05,5.33-4.05,5.33-9.73,1.83c-3.51-2.16-3.59-2.7-1.04-5.99c0.76-0.99,1.43-2.05,2.11-3.1
	c1.31-2.03,0.84-3.83-0.93-5.25c-1.21-0.97-2.52-2.11-3.95-2.44c-1.25-0.29-3.1,0.02-4.03,0.82c-2.11,1.81-3.82,4.08-5.86,6.35
	c-2.99-2.39-5.79-4.64-8.67-6.94c1.98-2.49,3.75-4.66,5.47-6.86c2.22-2.85,0.17-4.6-1.73-6.31c-1.92-1.72-3.94-3.42-6.56-1.19
	c-1.43,1.21-2.8,2.52-4.1,3.87c-1.44,1.5-2.72,1.63-4.26,0.08c-1.9-1.91-3.94-3.68-6.52-6.08c2.3-2.03,4.14-3.55,5.85-5.19
	c2.08-2,2.43-4,0.37-6.5c-3.57-4.36-5.33-4.75-9.67-1.39c-1.3,1.01-2.56,2.07-3.92,3.17c-2.19-2.59-4.31-4.9-6.13-7.43
	c-0.36-0.5,0.12-2.09,0.71-2.72c1.34-1.44,3.03-2.56,4.49-3.9c1.75-1.6,2.39-3.4,0.66-5.46c-0.33-0.4-0.58-0.87-0.88-1.3
	c-3.26-4.69-4.4-4.92-9.11-1.79c-4.3,2.86-4.31,2.85-6.82-1.8c-0.25-0.46-0.49-0.92-0.73-1.38c-2.19-4.18-2.19-4.18,1.92-6.61
	c5.25-3.1,5.77-7.8,1.13-11.96c-0.73-0.66-2.36-0.82-3.38-0.53c-1.78,0.51-3.52,1.37-5.06,2.41c-1.73,1.16-2.68,0.54-3.48-0.97
	c-1.07-2.02-2.26-4.01-3.04-6.15c-0.29-0.82,0.11-2.39,0.77-2.93c1.15-0.96,2.7-1.48,4.14-2.03c3.45-1.33,4.72-4.16,3.26-7.5
	c-0.42-0.95-0.95-1.86-1.37-2.81c-0.91-2.1-2.36-2.64-4.56-1.97c-2.26,0.69-5.14,2.13-6.77,1.31c-1.58-0.8-1.81-4.11-2.83-6.22
	c-1.08-2.23-0.11-3.61,1.67-4.69c0.69-0.42,1.55-0.6,2.36-0.8c5.67-1.44,6.88-3.78,4.67-9.08c-1.41-3.39-2.81-4.03-6.72-3.11
	c-5.56,1.3-5.56,1.3-6.43-4.34c-0.92-5.94-0.92-5.94,5.12-7.05c3.88-0.72,4.87-2.25,4.37-6.78c-0.52-4.8-1.37-5.6-5.73-5.45
	c-6.79,0.24-6.79,0.24-6.69-6.54c0.07-4.69,0.07-4.69,4.83-4.78c5.73-0.1,8.86-5.37,5.99-10.47c-0.6-1.07-2.49-1.75-3.88-1.97
	c-2.13-0.32-4.35-0.09-7.5-0.09c0.51-3.62,0.89-6.94,1.53-10.21c0.11-0.54,1.38-1.14,2.16-1.2c1.76-0.15,3.56-0.06,5.33,0.08
	c3.33,0.27,4.38-1.72,4.78-4.52c0.67-4.77,0.04-6.44-3.09-7.34c-1.48-0.43-3.07-0.52-4.63-0.67c-2.71-0.27-3.43-1.29-2.67-3.95
	c0.29-1,0.72-1.98,0.87-3c0.96-6.54,1.52-4.81,6.37-4.18c1.89,0.25,4.97,0.22,5.64-0.85c1.45-2.33,2.13-5.39,2.19-8.18
	c0.02-0.91-2.77-2.2-4.46-2.76c-5.33-1.77-5.37-1.67-3.94-7.03c0.24-0.91,0.39-1.86,0.77-2.71c1.02-2.22,2.5-3.38,4.92-1.72
	c0.17,0.12,0.35,0.27,0.54,0.31c2.12,0.5,4.65,1.94,6.27,1.25c3.11-1.33,4-4.91,3.74-8.03c-0.13-1.48-2.11-3.2-3.67-4.08
	c-5.05-2.83-5.13-2.7-3.17-8.08c0.36-0.98,0.79-1.93,1.29-2.85c1.08-1.98,2.59-2.25,4.41-0.99c0.09,0.06,0.15,0.15,0.24,0.2
	c6.23,4.06,7.27,3.7,10.53-2.85c1.46-2.93,0.36-4.73-1.86-6.41c-1.86-1.41-4.82-2.58-5.23-4.34c-0.36-1.58,2.11-3.79,3.3-5.74
	c2.14-3.48,2.48-3.56,5.67-1.15c5.6,4.23,7.39,3.71,10.49-2.65c1.25-2.57,0.67-4.36-1.51-5.94c-1.84-1.34-3.63-2.75-5.7-4.33
	c2.24-2.63,4.14-5.11,6.35-7.26c0.54-0.52,2.33-0.31,3.2,0.18c1.43,0.8,2.66,2.02,3.83,3.2c2.37,2.37,4.4,1.8,6.3-0.54
	c0.72-0.89,1.37-1.84,2.12-2.7c1.84-2.11,1.41-3.91-0.56-5.66c-1.85-1.64-3.62-3.37-5.83-5.44c2.53-2.37,4.71-4.63,7.15-6.54
	c0.58-0.45,2.31-0.08,3.08,0.5c1.65,1.25,3.01,2.88,4.52,4.33c1.34,1.28,2.74,1.34,4.16,0.09c0.71-0.62,1.44-1.21,2.17-1.8
	c3.29-2.64,3.49-4.7,0.78-7.92c-4.15-4.91-4.15-4.91,0.99-8.8c4.21-3.19,4.2-3.18,7.11,1.11c0.58,0.86,1.19,1.72,1.85,2.53
	c1.57,1.9,3.37,2.35,5.46,0.79c0.42-0.31,0.88-0.56,1.32-0.85c4.49-2.98,4.84-5.1,1.53-9.33c-0.83-1.06-1.71-2.08-3.06-3.71
	c3.26-2.03,6.25-3.99,9.37-5.7c0.41-0.22,1.8,0.69,2.28,1.39c0.82,1.18,1.14,2.7,1.94,3.9c1.21,1.82,2.5,3.73,5.23,3.17
	c2.29-0.47,6.78-4.09,6.47-5.79c-0.35-1.95-1.4-3.89-2.58-5.53c-1.38-1.92-1.2-3.22,0.77-4.31c2.09-1.15,4.17-2.37,6.39-3.19
	c0.62-0.23,2.02,0.63,2.55,1.36c0.96,1.34,1.43,3.01,2.27,4.44c2.24,3.8,3.13,4.21,7.26,2.5c3.88-1.61,6.13-4.26,3.27-8.41
	c-2.72-3.94-2.07-5.19,2.44-6.72c6.09-2.06,6.07-2.05,8.41,3.74c0.47,1.16,1.04,2.29,1.68,3.35c1,1.66,2.41,2.19,4.26,1.3
	c1.03-0.49,2.14-0.81,3.2-1.24c2.38-0.96,3.3-2.78,2.96-5.24c-0.14-1.03-0.46-2.03-0.75-3.04c-0.99-3.54-0.73-4.19,2.78-5.15
	c2-0.55,4.1-0.91,6.16-0.94c0.75-0.01,1.6,1.11,2.24,1.85c0.28,0.33,0.16,1.01,0.21,1.53c0.96,8.87,2.68,7.01,9.39,6.54
	c1.19-0.08,2.53-2.15,3.24-3.58c0.48-0.97-0.02-2.43-0.14-3.67c-0.08-0.82-0.5-1.69-0.34-2.45c1.11-5.4,5.86-2.26,8.77-3.49
	c1.76-0.74,3.24,0.94,3.23,3.15c0,0.42,0,0.84,0,1.26c0.05,7.66,1.05,8.57,8.57,7.96c2.28-0.18,3.74-1.17,3.93-3.6
	c0.1-1.35,0.35-2.71,0.32-4.06c-0.1-4.75-0.14-4.75,4.48-4.77c0.1,0,0.21,0,0.31,0c7.69,0,7.69,0,6.28,7.61
	c-0.67,3.6,0.62,5.23,4.34,5.48c7.08,0.49,7.46,0.17,8.44-7.1C268.11,31.32,268.27,30.41,268.48,29.07z M243.63,404.34
	c4.82-0.59,13.9-1.8,23-2.8c21.29-2.33,41.18-9.23,59.66-19.63c25.15-14.17,45.89-33.34,61.21-58.07
	c11.67-18.84,19.78-38.98,23.55-60.9c3.12-18.16,3.93-36.3,1.57-54.6c-2.39-18.59-7.49-36.36-16-53.04
	c-13.42-26.31-31.8-48.35-56.11-65.51c-25.97-18.33-54.99-27.71-86.23-30.85c-16.82-1.69-33.53-0.36-50.17,2.92
	c-23.5,4.63-45.16,13.49-64.64,27.32c-21.16,15.03-38.19,33.86-50.94,56.62C78,164.59,70.59,184.42,67.62,205.71
	c-3.09,22.12-2.16,44.16,2.94,66c8.54,36.53,26.99,67.23,55.63,91.2C158.74,390.15,196.82,403.37,243.63,404.34z"/>
</svg>
